<svg width="494" height="117" viewBox="0 0 494 117" fill="none" xmlns="http://www.w3.org/2000/svg">
<path d="M301.828 6.88907C315.168 4.15471 327.644 1.90409 339.178 0.193633L339.54 2.63098C334.178 4.27121 330.068 7.14929 327.209 11.2652C324.152 15.544 323.051 20.4222 323.852 25.8192C324.252 28.5177 325.155 31.0081 326.554 33.2471C330.067 33.8382 334.397 33.6408 339.681 32.6793L340.093 35.1537C324.234 37.9948 315.565 34.4319 314.087 24.4649C313.565 20.9395 314.075 17.4832 315.606 14.009C317.076 10.7219 319.195 7.91661 322.045 5.53683C316.55 6.57417 309.936 7.86639 302.359 9.5682L301.828 6.88907ZM334.582 8.79291C335.104 8.71545 335.609 8.81855 336.015 9.15863C336.459 9.44873 336.697 9.85815 336.775 10.3804C336.859 10.9463 336.743 11.3638 336.409 11.8136C336.119 12.2569 335.709 12.4956 335.144 12.5795C334.578 12.6634 334.117 12.5539 333.71 12.2138C333.261 11.8802 333.028 11.5143 332.945 10.9484C332.867 10.4262 332.977 9.96509 333.317 9.55881C333.65 9.109 334.016 8.87682 334.582 8.79291ZM339.718 8.03127C340.24 7.95382 340.745 8.05691 341.195 8.39054C341.594 8.68709 341.833 9.09652 341.91 9.61881C341.994 10.1846 341.878 10.6022 341.588 11.0455C341.255 11.4953 340.845 11.734 340.279 11.8179C339.757 11.8953 339.253 11.7922 338.846 11.4521C338.396 11.1185 338.164 10.7526 338.08 10.1868C338.003 9.66451 338.112 9.20346 338.453 8.79717C338.786 8.34737 339.196 8.10873 339.718 8.03127Z" fill="black"/>
<path d="M300.264 26.3368L300.594 28.5565L285.099 30.8543L287.197 44.9996C280.32 46.0195 275.613 46.673 273.026 46.9233L272.783 44.6906C274.631 44.5501 276.422 44.329 278.163 44.0708L276.394 32.1453L261.161 34.4043L260.832 32.1846L276.065 29.9255L275.374 25.2685L282.469 24.2164C284.891 22.2558 286.946 20.2162 288.597 18.1478L266.226 21.4654L265.896 19.2457L291.619 15.431L291.929 17.5202C290.082 20.0626 287.588 22.7454 284.312 25.5444L284.77 28.6346L300.264 26.3368ZM261.609 14.6327L262.758 22.3799L260.538 22.7091L259.06 12.7421L273.032 10.6702L272.393 6.36133L281.489 5.01233L282.128 9.32121L296.317 7.21703L297.789 17.1405L295.569 17.4697L294.426 9.76594L261.609 14.6327Z" fill="black"/>
<path d="M248.575 18.5229L249.472 24.5727C247.221 30.6891 243.903 36.2076 239.567 41.1652C244.923 44.2853 251.324 46.3607 258.654 47.4977L258.324 49.7707C250.453 48.5806 243.664 46.2957 237.915 42.9226C233.131 47.8577 227.372 51.9145 220.607 55.1863L219.581 53.0698C225.931 49.9931 231.417 46.1992 235.905 41.6639C230.078 37.7684 225.539 32.659 222.245 26.3419L224.312 25.2792C227.474 31.3046 231.893 36.2093 237.563 39.95C239.085 38.212 240.506 36.3999 241.821 34.4701L239.653 19.846L215.018 23.4993L214.676 21.1925L229.605 18.9786L228.707 12.9288L237.717 11.5927L238.614 17.6425L253.935 15.3705L254.277 17.6773L248.575 18.5229Z" fill="black"/>
<path d="M186.389 49.4072L188.125 48.2157C189.761 50.5529 191.519 53.406 193.404 56.8184L191.555 57.8487C191.021 56.9493 190.475 55.9628 189.884 54.9828C186.061 56.7953 181.448 58.6804 176.051 60.6817L175.312 58.7006C176.455 58.3088 177.343 57.9991 177.89 57.7846L174.288 33.4982L178.162 32.9238L177.49 28.3973L184.106 27.4162L184.777 31.9427L188.52 31.3876L190.65 45.7505L183.6 46.7962L184.807 54.9352C186.272 54.3175 187.607 53.7193 188.767 53.1468C187.825 51.5962 187.016 50.3373 186.389 49.4072ZM181.779 34.5224L182.373 38.5266L187.291 37.7972L186.698 33.793L181.779 34.5224ZM182.683 40.6157L183.29 44.707L188.208 43.9776L187.601 39.8864L182.683 40.6157ZM210.778 23.1049L203.771 24.1441L204.842 31.3691L211.066 30.4461L214.113 50.9894C211.719 51.3444 210.102 51.5397 209.182 51.6317L209.002 49.5232C209.749 49.457 210.582 49.3779 211.583 49.2294L209.163 32.9079L205.159 33.5018L208.651 57.0482L201.121 58.1649L197.629 34.6184L193.929 35.167L196.705 53.8824L194.485 54.2115L191.393 33.3635L197.313 32.4857L196.241 25.2607L193.499 25.6674C192.789 27.7744 192.039 29.6203 191.158 31.1744L189.273 30.164C191.449 26.2383 192.759 22.1742 193.153 17.9345L195.276 18.1534C195.135 19.5978 194.814 21.3356 194.184 23.3862L210.462 20.9722L210.778 23.1049ZM180.072 22.4098C178.035 26.6707 175.416 30.3062 172.271 33.397L170.801 31.8803C174.262 28.5203 176.948 24.7413 178.681 20.5255L181.031 20.177C183.603 22.8204 186.282 24.6915 189.182 25.9517L188.352 27.854C185.689 26.6922 183.016 24.8645 180.333 22.3711L180.072 22.4098Z" fill="black"/>
<path d="M152.551 38.9905L151.408 31.2867L143.879 32.4034L143.575 30.3577L151.105 29.2411L150.427 24.6711L157.609 23.6061L158.286 28.1761L166.425 26.9691L166.729 29.0147L158.59 30.2217L159.732 37.9255L166.74 36.8863L167.043 38.9319L146.456 41.9849L146.153 39.9393L152.551 38.9905ZM161.155 56.2186C164.072 58.1881 167.613 59.5756 171.737 60.3874L171.331 62.4493C162.486 60.6918 155.847 56.1162 151.327 48.7354L148.977 49.0839C148.224 50.3076 147.241 51.4765 146.034 52.6341L147.531 62.7317C151.253 61.7349 154.235 60.8478 156.39 60.0834L157.079 62.0274C151.21 64.1433 144.356 65.9159 136.741 67.3566L136.35 65.3238C137.476 65.1125 138.644 64.8947 139.937 64.614L138.982 58.1725C136.699 59.5785 134.311 60.8669 131.839 61.9005L131.02 59.9759C137.552 57.228 142.549 53.7292 146.061 49.5164L130.044 51.8917L129.74 49.846L145.844 47.4579L145.296 43.7583L152.825 42.6417L153.374 46.3412L169.304 43.9789L169.607 46.0245L153.547 48.4062C155.278 51.0852 157.244 53.2402 159.462 55.0018C161.343 52.9881 163.037 50.9132 164.588 48.7705L166.28 49.9874C164.767 52.08 163.03 54.1614 161.155 56.2186ZM132.699 34.1057C131.374 32.9678 129.681 31.751 127.608 30.3681L128.775 28.6383C130.848 30.0211 132.597 31.3185 133.929 32.4999L132.699 34.1057ZM136.466 41.5092C133.929 42.9975 131.571 44.1924 129.23 45.2067L128.374 43.332C130.919 42.1984 133.482 40.8842 136.137 39.2895L134.323 27.0593L141.548 25.9878L144.324 44.7031L137.099 45.7746L136.466 41.5092Z" fill="black"/>
<path d="M106.792 40.5722L96.0412 42.1665C95.6379 50.5443 94.0206 58.8352 91.0283 67.1521L88.3538 66.2143C91.1689 58.5019 92.8007 50.6092 93.1251 42.5989L84.9861 43.8059L84.6247 41.3686L93.1989 40.097C93.2067 38.0497 93.1645 35.9654 93.0287 33.8504L95.9142 33.5115C96.0435 35.5829 96.0857 37.6673 96.0715 39.671L106.43 38.1349L106.792 40.5722ZM119.508 55.2334C122.178 56.4388 124.807 58.2729 127.477 60.6793L125.777 62.7107C123.813 60.8668 121.864 59.4211 119.96 58.2801L120.909 64.6781C117.801 67.7189 114.065 69.5184 109.756 70.1574C106.97 70.5705 104.536 70.3533 102.453 69.5056C99.9398 68.455 98.4677 66.6271 98.0805 64.0157C97.6738 61.2737 98.4892 58.9732 100.477 57.0771C102.192 55.4439 104.488 54.436 107.405 54.0036C108.232 53.8809 109.021 53.8083 109.905 53.7662L108.517 44.4086L117.701 43.0467L119.508 55.2334ZM100.822 63.6091C101.094 65.4371 102.171 66.7007 104.097 67.3936C105.593 67.8835 107.392 68.017 109.394 67.7201C110.221 67.5975 111.035 67.3878 111.886 67.1281L110.273 56.2471C109.426 56.2392 108.593 56.3183 107.766 56.4409C105.633 56.7572 103.913 57.4571 102.613 58.5841C101.114 59.8739 100.513 61.5199 100.822 63.6091ZM122.936 42.3592C118.769 39.1518 114.35 36.649 109.667 34.7636L110.75 32.4679C115.763 34.4822 120.369 37.0463 124.45 40.2665L122.936 42.3592Z" fill="black"/>
<path d="M78.5106 44.2324L82.9384 74.0898L47.3793 79.3632L42.9514 49.5057L56.8791 47.4403L55.6463 39.1272L63.176 38.0105L64.4088 46.3236L78.5106 44.2324ZM52.5725 63.6918L54.4056 76.0526L60.9778 75.078L59.1447 62.7172L52.5725 63.6918ZM66.6743 61.6006L68.5074 73.9614L75.2536 72.9609L73.4205 60.6001L66.6743 61.6006ZM71.4842 47.5429L64.738 48.5433L66.3451 59.3808L73.0914 58.3804L71.4842 47.5429ZM58.8155 60.4975L57.2083 49.66L50.6362 50.6346L52.2434 61.4721L58.8155 60.4975Z" fill="black"/>
<path d="M32.323 47.1231L37.3511 81.0283L5.79618 85.7078L0.76809 51.8026L12.9548 49.9954C13.58 48.2124 14.0682 46.4052 14.45 44.4804L17.01 44.9459C16.8344 45.8615 16.401 47.4382 15.7403 49.5823L32.323 47.1231ZM27.5546 68.9588L26.3411 60.7763L10.4113 63.1387L11.6248 71.3212L27.5546 68.9588ZM13.2642 82.3763L29.194 80.0139L27.8773 71.135L11.9475 73.4974L13.2642 82.3763ZM26.0119 58.5566L24.8114 50.4611L8.88162 52.8235L10.0822 60.919L26.0119 58.5566Z" fill="black"/>
<path d="M487.952 43.6141L489.855 69.0421L483.5 69.9844L477.898 45.1051L487.952 43.6141ZM490.891 75.4272C491.026 76.3412 490.831 77.1263 490.325 77.913C489.769 78.6627 489.024 79.04 488.11 79.1756C487.196 79.3111 486.418 79.1597 485.668 78.6037C484.956 77.9976 484.498 77.3094 484.362 76.3954C484.227 75.4814 484.415 74.6528 484.928 73.9095C485.49 73.2034 486.228 72.7825 487.142 72.647C488.056 72.5114 488.885 72.6999 489.628 73.2124C490.334 73.7749 490.755 74.5132 490.891 75.4272Z" fill="black"/>
<path d="M433.655 73.1063L436.024 89.0796C432.15 89.654 428.568 90.0962 425.272 90.3627L425.093 88.2542C426.766 88.1395 427.773 88.0346 428.209 87.97L426.466 76.2185C425.249 76.7104 424.075 77.1958 423.057 77.5248L422.355 75.4937C423.541 75.0954 424.802 74.5971 426.143 74.0423L424.207 60.9851L420.551 61.5273L420.234 59.3946L423.89 58.8525L422.651 50.4959L430.137 49.3857L431.377 57.7423L434.684 57.2517L435.001 59.3844L431.693 59.875L433.326 70.8865C434.486 70.3141 435.442 69.861 436.143 69.4901L437.174 71.339C436.268 71.8291 435.107 72.4016 433.655 73.1063ZM456.337 45.1889L457.33 47.0878C455.63 47.9182 452.536 48.9552 447.957 50.1681C443.079 51.4697 438.461 52.4215 434.152 53.0605L433.836 50.9279C437.535 50.3792 441.339 49.6371 445.335 48.6887C450.444 47.4418 454.147 46.3144 456.337 45.1889ZM439.166 59.8787C438.392 58.2587 437.468 56.5275 436.27 54.748L438.106 53.6306C439.274 55.5036 440.248 57.2719 441.065 58.8854L439.166 59.8787ZM445.724 58.5059C444.905 56.5812 443.911 54.6824 442.837 52.84L444.743 51.8902C445.654 53.5344 446.597 55.3961 447.629 57.5561L445.724 58.5059ZM464.329 82.8804L464.334 85.0147C459.928 85.0008 456.335 84.4662 453.597 83.4042C450.901 85.3165 447.617 86.871 443.915 87.9983L443.3 85.9544C446.326 85.0609 448.989 83.8208 451.352 82.3584C449.498 81.2544 447.466 79.554 445.264 77.3007L446.824 75.8238C449.196 78.3189 451.364 80.0435 453.279 80.9604C453.639 80.6847 453.924 80.509 454.079 80.3526L453.02 73.2146L444.751 74.441C444.042 79.2611 442.231 83.8444 439.448 88.1715L437.674 87.0111C441.23 81.5909 443.033 75.452 443.096 68.6814L436.567 69.6496L436.251 67.5169L443.084 66.5036C443.065 65.172 442.976 63.6729 442.831 62.0931L436.346 63.0548L436.036 60.9657L450.094 58.8809C450.639 55.9533 451.035 53.2257 451.202 50.7544L458.209 49.7152C457.924 52.2929 457.535 55.0641 456.884 57.8739L459.321 57.5125L459.631 59.6016L444.963 61.7768C445.065 63.3631 445.154 64.8622 445.217 66.1873L461.19 63.8185L461.507 65.9512L445.229 68.3652C445.205 69.7032 445.174 70.9976 445.05 72.2615L460.24 70.0089L461.06 75.5364C459.505 77.9466 457.68 80.0409 455.63 81.8129C457.955 82.4912 460.813 82.868 464.329 82.8804Z" fill="black"/>
<path d="M387.865 90.9728C389.021 86.1752 389.435 80.8651 389.149 75.036L391.444 74.918C391.769 81.0082 391.344 86.5424 390.126 91.527L387.865 90.9728ZM405.77 70.436C402.674 68.76 398.839 67.1936 394.257 65.6935L395.092 63.5236C399.811 65.0479 403.696 66.6513 406.791 68.3273L405.77 70.436ZM413.328 70.1157C415.948 73.686 418.459 78.9183 420.823 85.8626L418.618 86.59C416.393 79.9809 414.001 74.9534 411.444 71.5072L413.328 70.1157ZM409.83 81.6213L412.098 81.0181C412.581 82.7703 412.931 84.2308 413.086 85.2754C413.589 88.6702 412.487 90.8354 409.742 91.8207C408.729 92.1932 407.219 92.5062 405.13 92.816C401.604 93.3388 398.769 93.7149 396.747 93.8812L393.501 71.9886L401.944 70.7364L404.875 90.4963C407.312 90.1349 408.822 89.8219 409.319 89.5704C410.604 88.935 411.076 87.6195 410.779 85.6174C410.637 84.6599 410.3 83.2865 409.83 81.6213ZM416.204 58.6134L382.604 63.5963L384.288 74.9561C385.495 83.0951 385.048 90.2784 383.015 96.3625L380.814 95.6213C382.769 89.9047 383.143 83.1325 381.982 75.2982L379.955 61.6317L392.446 59.7792L391.73 54.948L400.609 53.6313L401.325 58.4625L415.862 56.3067L416.204 58.6134Z" fill="black"/>
<path d="M361.613 96.0223C367.184 95.1961 371.318 94.2718 374.124 93.0994L374.927 95.5158C372.064 96.6075 367.72 97.6076 361.975 98.4596C356.317 99.2987 352.364 99.0398 350.197 97.6263C348.724 96.6883 347.832 95.1748 347.535 93.1727C346.986 89.4731 349.865 85.4877 356.158 81.1295L355.893 79.345C355.538 76.9512 354.363 75.9245 352.361 76.2214C350.881 76.4409 349.287 77.389 347.498 79.1222C345.981 80.5926 344.832 82.1419 344.05 83.7702C343.102 85.7789 341.931 87.7764 340.592 89.8432L338.262 88.2315C341.966 82.6114 344.31 76.5256 345.402 70.0919L336.044 71.4796L335.683 69.0422L345.737 67.5512C345.964 65.7828 346.078 63.8532 346.173 61.793L349.091 61.6716C349.051 63.5013 348.917 65.3004 348.74 67.1059L367.369 64.3433L367.73 66.7807L348.405 69.6465C347.983 72.2 347.461 74.6794 346.709 77.104C349.254 74.7694 352.333 73.3342 355.989 72.7921C360.254 72.1595 363.098 73.3391 364.44 76.3873L371.326 72.4303L372.57 74.8256C369.474 76.4413 366.961 77.7926 365.112 78.823C365.194 79.0777 365.246 79.4258 365.317 79.9046L366.705 89.2623L357.565 90.6177L356.577 83.9585C352.003 87.3058 349.903 90.2416 350.277 92.766C350.471 94.0717 351.011 95.0147 351.898 95.5949C353.478 96.6506 356.695 96.7516 361.613 96.0223Z" fill="black"/>
<path d="M327.109 83.2133C327.615 84.8285 327.978 86.376 328.198 87.8558C328.947 92.9046 328.072 96.9042 325.493 99.911C323.075 102.805 319.295 104.611 314.247 105.36C308.85 106.16 303.841 105.079 299.307 102.104L294.641 70.6361L304.695 69.1451L309.716 103.007C311.067 103.118 312.479 103.042 313.872 102.835C322.751 101.519 326.564 96.6384 325.312 88.1947C325.112 86.8455 324.769 85.4286 324.332 83.981L327.109 83.2133Z" fill="black"/>
<path d="M261.814 94.6312L262.975 96.4607C262.367 96.8622 261.226 97.5652 259.495 98.4891L261.921 114.854C257.613 115.493 254.124 115.966 251.45 116.229L251.271 114.121C252.589 114.014 253.553 113.916 254.293 113.806L252.57 102.185C250.993 102.952 249.876 103.518 249.212 103.839L248.306 101.928C249.181 101.531 250.466 100.896 252.234 99.9217L250.311 86.9515L246.524 87.5131L246.208 85.3804L249.994 84.8188L248.729 76.2881L256.041 75.2038L257.306 83.7345L260.571 83.2504L260.887 85.3831L257.623 85.8672L259.165 96.2694C260.394 95.5535 261.337 95.0133 261.814 94.6312ZM285.247 108.37L289.947 107.673L290.257 109.762L267.668 113.112L264.008 88.4342C263.369 89.819 262.729 91.2039 261.915 92.6145L260.03 91.604C263.339 85.4198 265.447 79.2357 266.41 73.1324L268.502 73.4448C268.087 76.0419 267.521 78.5277 266.819 80.9894L275.175 79.7501C275.915 77.2385 276.554 74.6527 277.001 71.9621L279.106 72.3616C278.665 74.7845 278.123 77.1334 277.482 79.408L285.186 78.2656L285.496 80.3547L281.187 80.9937L282.355 88.8716L286.142 88.31L286.458 90.4427L282.671 91.0043L283.736 98.1857L287.523 97.6242L287.833 99.7133L284.046 100.275L285.247 108.37ZM278.5 109.371L277.3 101.275L273.252 101.876L274.453 109.971L278.5 109.371ZM276.99 99.1862L275.925 92.0047L271.877 92.605L272.942 99.7864L276.99 99.1862ZM275.609 89.872L274.441 81.9942L270.393 82.5945L271.561 90.4723L275.609 89.872Z" fill="black"/>
</svg>
