<svg width="100" height="100" viewBox="0 0 100 100" fill="none" xmlns="http://www.w3.org/2000/svg">
<path d="M73.1 25.2C73.1 22.2 72.1 19.7 70.1 17.9C68.1 16.1 65.2 15.2 61.7 15.2C58.4 15.2 55.7 16 53.7 17.5C51.9 18.9 51 20.8 50.8 23.4C50.8 24 51.2 24.5 51.8 24.5L56.6 24.6C57.4 24.6 58.1 24.1 58.3 23.4C58.5 22.8 58.8 22.3 59.2 21.9C59.9 21.3 60.7 21 61.7 21C62.9 21 63.9 21.4 64.5 22.1C65.2 22.8 65.5 23.8 65.5 25.1C65.5 26.3 65.2 27.3 64.6 28.3C64 29.2 63.3 30 62.3 30.6C60.4 31.9 59.1 33.1 58.2 34.3C57.6 35.1 57.3 36.2 57.2 37.7C57 38.5 57.7 39 58.4 39H63.6C64.2 39 64.7 38.6 64.8 38C64.9 37.2 65 36.6 65.3 36.1C65.6 35.4 66.3 34.7 67.2 34.1C68.9 33.2 70.3 32 71.5 30.4C72.6 28.8 73.1 27 73.1 25.2ZM64.6 44C64.6 43.1 63.9 42.4 63 42.4H58.7C57.8 42.4 57.1 43.1 57.1 44V46.7C57.1 47.6 57.8 48.3 58.7 48.3H63C63.9 48.3 64.6 47.6 64.6 46.7V44ZM98.9 15.9V47.8C98.9 52.9 95.2 57.1 90.5 58.1V67.5C90.5 68.6 90 69.6 89.3 70.4C88.5 71 87.5 71.4 86.5 71.4C85.5 71.4 84.5 71 83.7 70.2L71.7 58.5H35.6C29.7 58.5 25.1 53.7 25.1 48V16C25 10 29.8 5.3 35.6 5.3H88.3C94.1 5.2 98.9 10 98.9 15.9ZM68.8 65.4L74.9 71.5C74.6 77.1 69.9 81.4 64.4 81.4H28.2L16.2 93.5C15.5 94.3 14.5 94.7 13.5 94.7C11.3 94.7 9.50001 92.9 9.50001 90.7V81.3C4.70001 80.3 1.10001 76 1.10001 71V39C1.10001 33.1 5.90001 28.5 11.6 28.5H18V35.9H11.6C9.80001 35.9 8.40001 37.3 8.40001 39V70.9C8.40001 72.6 9.80001 74.1 11.6 74.1H16.9V82.4L25.2 74.1H64.4C66.1 74.1 67.6 72.7 67.6 70.9V65.4H68.8Z" fill="white"/>
</svg>
