<?xml version="1.0" encoding="utf-8"?>
<!-- Generator: Adobe Illustrator 24.1.0, SVG Export Plug-In . SVG Version: 6.00 Build 0)  -->
<svg version="1.1" id="レイヤー_1" xmlns="http://www.w3.org/2000/svg" xmlns:xlink="http://www.w3.org/1999/xlink" x="0px"
	 y="0px" viewBox="0 0 54 54" style="enable-background:new 0 0 54 54;" xml:space="preserve">
<style type="text/css">
	.st0{fill:#FFFFFF;}
</style>
<g>
	<path class="st0" d="M50.5,40.9c0-2.4-1.9-4.2-4.3-4.2c-0.7,0-1.5,0.2-2,0.5C43.4,35.9,42,35,40.4,35c-0.7,0-1.5,0.2-2,0.5
		c-0.7-1.3-2.1-2.2-3.8-2.2c-0.6,0-1.1,0.1-1.6,0.3l0-8.3c0-1.1-0.4-2.2-1.2-3C31,21.4,30,21,28.8,21c-2.4,0-4.2,1.9-4.2,4.3v18.9
		l-2-2c-1.5-1.5-3.7-1.6-5.4-0.5c-1,0.7-1.7,1.7-1.9,2.9c-0.2,1.2,0.2,2.4,1,3.4l4.4,5.2c0.3,0.3,0.7,0.5,1,0.5
		c0.3,0,0.6-0.1,0.8-0.3c0.6-0.5,0.6-1.3,0.2-1.9l-4.4-5.2c-0.3-0.3-0.4-0.8-0.3-1.2c0.1-0.4,0.3-0.8,0.7-1.1c0.6-0.4,1.5-0.3,2,0.2
		l3.2,3.1c0.6,0.6,1.5,0.7,2.2,0.4c0.7-0.3,1.2-1.1,1.2-1.9V25.3c0-0.8,0.7-1.6,1.6-1.6c0.4,0,0.8,0.2,1.1,0.4
		c0.3,0.3,0.4,0.7,0.4,1.1v14.1c0,0.7,0.6,1.3,1.3,1.3c0.7,0,1.3-0.6,1.3-1.3v-1.9c0-0.8,0.7-1.6,1.6-1.6c0.8,0,1.6,0.7,1.6,1.6v3.7
		c0,0.7,0.6,1.3,1.3,1.3c0.7,0,1.3-0.6,1.3-1.3v-1.9c0-0.8,0.7-1.6,1.6-1.6c0.8,0,1.6,0.7,1.6,1.6v3.7c0,0.7,0.6,1.3,1.3,1.3
		c0.7,0,1.3-0.6,1.3-1.3V41v-0.2c0-0.8,0.7-1.5,1.5-1.5c0.8,0,1.6,0.7,1.6,1.5v11.4c0,0.7,0.6,1.3,1.3,1.3c0.7,0,1.3-0.6,1.3-1.3
		L50.5,40.9z"/>
	<path class="st0" d="M11.4,4.2c0,2.2-1.8,3.9-3.9,3.9c-2.2,0-3.9-1.8-3.9-3.9s1.8-3.9,3.9-3.9C9.6,0.3,11.4,2.1,11.4,4.2"/>
	<path class="st0" d="M22.1,4.2c0,2.2-1.8,3.9-3.9,3.9c-2.2,0-3.9-1.8-3.9-3.9s1.8-3.9,3.9-3.9C20.3,0.3,22.1,2.1,22.1,4.2"/>
	<path class="st0" d="M11.4,14.9c0,2.2-1.8,3.9-3.9,3.9c-2.2,0-3.9-1.8-3.9-3.9S5.3,11,7.4,11C9.6,11,11.4,12.8,11.4,14.9"/>
	<path class="st0" d="M22.1,14.9c0,2.2-1.8,3.9-3.9,3.9c-2.2,0-3.9-1.8-3.9-3.9S16,11,18.2,11C20.3,11,22.1,12.8,22.1,14.9"/>
	<path class="st0" d="M11.4,25.7c0,2.2-1.8,3.9-3.9,3.9c-2.2,0-3.9-1.8-3.9-3.9c0-2.2,1.8-3.9,3.9-3.9C9.6,21.7,11.4,23.5,11.4,25.7
		"/>
	<path class="st0" d="M22.1,25.7c0,2.2-1.8,3.9-3.9,3.9c-2.2,0-3.9-1.8-3.9-3.9c0-2.2,1.8-3.9,3.9-3.9
		C20.3,21.7,22.1,23.5,22.1,25.7"/>
	<path class="st0" d="M32.8,4.2c0,2.2-1.8,3.9-3.9,3.9c-2.2,0-3.9-1.8-3.9-3.9s1.8-3.9,3.9-3.9C31,0.3,32.8,2.1,32.8,4.2"/>
	<path class="st0" d="M32.8,14.9c0,2.2-1.8,3.9-3.9,3.9c-2.2,0-3.9-1.8-3.9-3.9s1.8-3.9,3.9-3.9C31,11,32.8,12.8,32.8,14.9"/>
</g>
</svg>
