<?xml version="1.0" encoding="UTF-8"?>
<svg id="_レイヤー_1" data-name="レイヤー_1" xmlns="http://www.w3.org/2000/svg" version="1.1" viewBox="0 0 40 40">
  <!-- Generator: Adobe Illustrator 30.0.0, SVG Export Plug-In . SVG Version: 2.1.1 Build 123)  -->
  <defs>
    <style>
      .st0 {
        fill: #fff;
      }
    </style>
  </defs>
  <path class="st0" d="M38.69,10.72c-.45-1.66-1.77-2.97-3.45-3.41-3.04-.81-15.24-.81-15.24-.81,0,0-12.2,0-15.24.81-1.68.44-3,1.75-3.45,3.41-.82,3.01-.82,9.28-.82,9.28,0,0,0,6.28.82,9.28.45,1.66,1.77,2.97,3.45,3.41,3.04.81,15.24.81,15.24.81,0,0,12.2,0,15.24-.81,1.68-.44,3-1.75,3.45-3.41.82-3.01.82-9.28.82-9.28,0,0,0-6.28-.82-9.28h0ZM16.1,25.78v-11.57l10.13,5.78-10.13,5.78Z"/>
</svg>