<svg width="100" height="100" viewBox="0 0 100 100" fill="none" xmlns="http://www.w3.org/2000/svg">
<path d="M99 36L83.6 12.2H16.4L1 36C1 41.3 5.5 45.8 10.8 45.8C16.1 45.8 20.6 41.6 20.6 36C20.6 41.3 25.1 45.8 30.4 45.8C35.7 45.8 40.2 41.6 40.2 36C40.2 41.3 44.7 45.8 50 45.8C55.3 45.8 59.8 41.6 59.8 36C59.8 41.3 64.3 45.8 69.6 45.8C74.9 45.8 79.4 41.6 79.4 36C79.4 41.3 83.9 45.8 89.2 45.8C94.5 45.8 99 41.6 99 36Z" fill="white"/>
<path d="M89.2 57C86.1 57 83.3 56.4 80.8 55.3V76.6H19.2V55.3C16.7 56.4 13.9 57 10.8 57C10 57 8.8 57 8 56.7V87.8H92V56.7C91.2 57 90.1 57 89.2 57Z" fill="white"/>
</svg>
