<svg width="100" height="100" viewBox="0 0 100 100" fill="none" xmlns="http://www.w3.org/2000/svg">
<path d="M79.1 66.6V67C79.1 72.1 76.6 76.7 73 79.9H44.4C43.2 78.9 42.1 77.9 41.4 76.8C38.4 72.5 21.4 46.7 21.3 46.4C20.9 45.8 20.8 45 21 44.1C21.2 43.2 21.8 42.4 22.7 41.7C23.4 41.3 24.1 41 25 41H25.5C26.3 41.1 27 41.5 27.4 42.2L36.1 55.3C36.7 56.2 37.8 56.6 38.9 56.3C39.9 56 40.6 55.1 40.6 53.9V9.9C40.6 7.9 42.2 6.2 44.3 6.2C46.3 6.2 48 7.8 48 9.9V45C48 46.3 49.1 47.5 50.5 47.5C51.8 47.5 53 46.4 53 45V34.6C53.6 34.3 54.2 34.1 54.9 34.1C56.3 34.1 57.7 35 58.3 36.4V45.7C58.3 47 59.4 48.2 60.8 48.2C62.1 48.2 63.3 47.1 63.3 45.7V37C63.9 36.5 64.7 36.2 65.6 36.2C67.2 36.2 68.6 37.2 69.1 38.8V47C69.1 48.3 70.2 49.5 71.6 49.5C72.9 49.5 74.1 48.4 74.1 47V39.6C74.7 39.2 75.4 38.9 76.3 38.9C78.5 38.9 79.6 40.7 79.6 42.6V66.8L79.1 66.6ZM75.8 33.9C74.6 33.9 73.3 34.2 72.2 34.7C70.7 32.5 68.1 31.2 65.3 31.2C63.9 31.2 62.5 31.5 61.4 32.2C59.8 30.3 57.4 29.1 54.8 29.1C54.2 29.1 53.5 29.2 52.9 29.3V9.9C52.9 5.2 49 1.3 44.3 1.3C39.6 1.3 35.7 5.2 35.7 9.9V45.9L31.5 39.6C30.3 37.8 28.4 36.6 26.2 36.2C24 35.9 21.8 36.4 20 37.6C18.2 38.8 16.8 40.7 16.2 42.8C15.6 45 16 47.2 17.1 49C17.3 49.3 34.3 75 37.3 79.4C37.8 80.2 38.4 80.9 39.1 81.7V94.1C39.1 96.6 41 98.6 43.6 98.6H71.7C74.2 98.6 76.2 96.7 76.2 94.1V83.6C80.9 79.6 84 73.7 84.1 67.1V42.6C84 37.7 80.5 33.9 75.8 33.9Z" fill="white"/>
</svg>
