<svg width="40" height="40" viewBox="0 0 40 40" fill="none" xmlns="http://www.w3.org/2000/svg">
<path fill-rule="evenodd" clip-rule="evenodd" d="M20.0002 0C8.95416 0 0 8.95407 0 20C0 31.0459 8.95416 40 20.0002 40C31.0462 40 40 31.0455 40 20C40 8.95447 31.0458 0 20.0002 0ZM24.6475 14.5966L24.6471 15.2404H24.6461V23.8925C24.6461 25.9552 23.8336 27.9172 22.3752 29.3757C20.9166 30.8341 18.9547 31.6462 16.8925 31.6462C14.8303 31.6462 12.8682 30.8341 11.4099 29.3757C9.95132 27.9173 9.1388 25.9553 9.1388 23.8925C9.1388 21.8297 9.95132 19.8684 11.4099 18.41C12.8683 16.9514 14.8299 16.1389 16.8925 16.1389H18.3313V20.215H16.8925C15.9132 20.215 14.9843 20.5998 14.2917 21.2923C13.5993 21.9848 13.2149 22.9134 13.2149 23.8925C13.2149 24.8716 13.5993 25.8006 14.2917 26.4932C14.9843 27.1852 15.9133 27.5704 16.8925 27.5704C17.8716 27.5704 18.8006 27.1852 19.4932 26.4932C20.1852 25.8006 20.57 24.8722 20.57 23.901V8.3539H24.6292L24.8325 8.7302C25.4645 9.90152 26.3169 11.012 27.3741 11.8313C28.1915 12.465 29.1166 12.9121 30.1387 13.0913L30.8612 13.218L30.0858 17.1476L29.3915 17.0235C28.5645 16.8757 27.7525 16.6248 26.9924 16.2666C26.1198 15.8549 25.3105 15.2995 24.6475 14.5966Z" fill="white"/>
</svg>
