<?xml version="1.0" encoding="utf-8"?>
<!-- Generator: Adobe Illustrator 24.1.0, SVG Export Plug-In . SVG Version: 6.00 Build 0)  -->
<svg version="1.1" id="レイヤー_1" xmlns="http://www.w3.org/2000/svg" xmlns:xlink="http://www.w3.org/1999/xlink" x="0px"
	 y="0px" viewBox="0 0 54 54" style="enable-background:new 0 0 54 54;" xml:space="preserve">
<style type="text/css">
	.st0{fill:#FFFFFF;}
</style>
<g>
	<path class="st0" d="M4.4,20.4h16v-16h-16V20.4z M20.9,24.4H3.7c-1.9,0-3.4-1.5-3.4-3.4V3.7c0.1-1.8,1.6-3.4,3.5-3.4H21
		c1.9,0,3.4,1.5,3.4,3.4V21C24.4,22.8,22.8,24.4,20.9,24.4z"/>
	<rect x="8.3" y="8.3" class="st0" width="8" height="8"/>
	<path class="st0" d="M4.4,49.7h16v-16h-16V49.7z M20.9,53.7H3.7c-1.8,0-3.4-1.5-3.4-3.4V33.1c0-1.9,1.5-3.4,3.4-3.4H21
		c1.9,0,3.4,1.5,3.4,3.4v17.2C24.4,52.2,22.8,53.7,20.9,53.7L20.9,53.7z"/>
	<rect x="8.3" y="37.7" class="st0" width="8" height="8"/>
	<rect x="37.7" y="37.7" class="st0" width="8" height="8"/>
	<rect x="29.7" y="29.7" class="st0" width="8" height="8"/>
	<rect x="45.7" y="29.7" class="st0" width="8" height="8"/>
	<rect x="45.7" y="45.7" class="st0" width="8" height="8"/>
	<rect x="29.7" y="45.7" class="st0" width="8" height="8"/>
	<path class="st0" d="M33.7,20.4h16v-16h-16V20.4z M50.3,24.4H33.1c-1.9,0-3.4-1.5-3.4-3.4V3.7c0-1.9,1.5-3.4,3.4-3.4h17.2
		c1.9,0,3.4,1.5,3.4,3.4v17.2C53.7,22.8,52.2,24.4,50.3,24.4z"/>
	<rect x="37.7" y="8.3" class="st0" width="8" height="8"/>
</g>
</svg>
