<svg xmlns="http://www.w3.org/2000/svg" xmlns:xlink="http://www.w3.org/1999/xlink" width="573.331" height="185.537" viewBox="0 0 573.331 185.537">
  <defs>
    <clipPath id="clip-path">
      <path id="path1034" d="M108.974-8593.006H682.3v-185.537H108.974Z"/>
    </clipPath>
  </defs>
  <g id="g1030" transform="translate(-108.974 8778.543)">
    <g id="g1032" clip-path="url(#clip-path)">
      <g id="g1038" transform="translate(274.615 -8749.663)">
        <path id="path1040" d="M0,0A82.283,82.283,0,0,1,81.79,73.536h4.128A86.339,86.339,0,0,0-8.533-3.845,86.34,86.34,0,0,0-85.914,73.536h4.128A82.388,82.388,0,0,1,0,0" fill="#dbaac0"/>
      </g>
      <g id="g1042" transform="translate(274.615 -8745.244)">
        <path id="path1044" d="M0,0A78.1,78.1,0,0,0-77.368,69.116h4.128A73.6,73.6,0,0,1,8.468,4.636a73.6,73.6,0,0,1,64.481,64.48h4.127A77.383,77.383,0,0,0,0,0" fill="#dbaac0"/>
      </g>
      <g id="g1046" transform="translate(274.615 -8736.989)">
        <path id="path1048" d="M0,0A69.695,69.695,0,0,0-68.966,60.861h4.273A65.422,65.422,0,0,1,8.845,4.717,65.425,65.425,0,0,1,64.989,60.861h4.128A69.846,69.846,0,0,0,0,0" fill="#dbaac0"/>
      </g>
      <g id="g1050" transform="translate(274.619 -8727.561)">
        <path id="path1052" d="M0,0A60.3,60.3,0,0,0-59.539,51.579h4.128A56.107,56.107,0,0,1,8.811,4.977a56.108,56.108,0,0,1,46.6,46.6h4.128A60.19,60.19,0,0,0,0,0" fill="#dbaac0"/>
      </g>
      <g id="g1054" transform="translate(274.615 -8718.864)">
        <path id="path1056" d="M0,0A51.309,51.309,0,0,0-50.547,42.737H50.7A51.6,51.6,0,0,0,0,0" fill="#dbaac0"/>
      </g>
      <g id="g1058" transform="translate(578.489 -8678.337)">
        <path id="path1060" d="M0,0A3.077,3.077,0,0,1-.591-.887C-2.951-5.6-4.569-9.433-6.041-12.969A44.375,44.375,0,0,1-9.279-26.525v-.3a44.39,44.39,0,0,1,.591-5.745,24.17,24.17,0,0,1,2.064-5.747A12.416,12.416,0,0,1-3.387-42,11.324,11.324,0,0,1,.74-44.205c.147,0,.147,0,.3-.145a10.425,10.425,0,0,1,5.16-.441,16.815,16.815,0,0,1,4.856,1.177c.145,0,.145.145.295.145a14.061,14.061,0,0,1,2.947,2.209,14.994,14.994,0,0,1,1.913,2.36c.145.295.441.591.591.885.147.147.147.3.3.441a2.188,2.188,0,0,0,2.064.591,13.822,13.822,0,0,1,3.681-.295,9.871,9.871,0,0,1,4.569,1.032.465.465,0,0,0,.3.145l.145.145a18.544,18.544,0,0,1,3.977,2.947l.147.145.295.3a23.353,23.353,0,0,1,2.655,4.423V-28a14.725,14.725,0,0,1,.441,6.192,18.49,18.49,0,0,1-1.915,5.449,23.924,23.924,0,0,1-8.987,8.988,64.1,64.1,0,0,1-11.052,5.16L2.947.887A2.9,2.9,0,0,1,.737.741L0,0" fill="#d184a8"/>
      </g>
      <g id="g1062" transform="translate(583.495 -8729.184)">
        <path id="path1064" d="M0,0A17.569,17.569,0,0,0-5.451.887a2.483,2.483,0,0,0-.736.295,19.267,19.267,0,0,0-5.747,3.237,18.257,18.257,0,0,0-4.715,5.451,27.155,27.155,0,0,0-2.8,7.516v.145a39.627,39.627,0,0,0-.737,6.777v.737A45.634,45.634,0,0,0-16.5,40.52c1.473,3.681,3.237,7.513,5.6,12.377A9.667,9.667,0,0,0-9.133,55.4a9.437,9.437,0,0,0,2.8,1.915,8.243,8.243,0,0,0,3.683.736A8.323,8.323,0,0,0,0,57.612l10.465-3.095c.145,0,.145,0,.295-.147a65.378,65.378,0,0,0,12.084-5.6A28.838,28.838,0,0,0,33.9,37.569,23.355,23.355,0,0,0,36.553,30.2v-.145a19.28,19.28,0,0,0-.736-8.7c0-.145-.147-.441-.147-.591a20.972,20.972,0,0,0-3.536-6.043c-.147-.295-.441-.44-.591-.736l-.147-.145a26.158,26.158,0,0,0-5.305-3.979.145.145,0,0,1-.145-.144h0L25.8,9.575c-.145-.145-.441-.145-.736-.3a16.215,16.215,0,0,0-6.928-1.473H17.4a7.221,7.221,0,0,0-1.768.147,25.773,25.773,0,0,0-1.915-2.209A21.738,21.738,0,0,0,9.444,2.505c-.295-.145-.44-.3-.736-.441A24.434,24.434,0,0,0,2.076.3,5.745,5.745,0,0,0,.012,0M0,5.9a4.089,4.089,0,0,1,1.327.147A16.792,16.792,0,0,1,6.187,7.223c.147,0,.147.147.3.147A13.973,13.973,0,0,1,9.428,9.579a14.808,14.808,0,0,1,1.915,2.36c.145.295.441.589.591.885.145.147.145.3.3.441a2.218,2.218,0,0,0,1.619.591h.44a17,17,0,0,1,3.1-.3h.591a9.9,9.9,0,0,1,4.569,1.032.454.454,0,0,0,.295.147l.147.145a18.544,18.544,0,0,1,3.977,2.947l.145.144.3.3a23.433,23.433,0,0,1,2.655,4.424v.145a14.718,14.718,0,0,1,.441,6.191,18.5,18.5,0,0,1-1.915,5.451A23.918,23.918,0,0,1,19.6,43.469a64.183,64.183,0,0,1-11.051,5.16L-1.919,51.724a1.866,1.866,0,0,1-.885.147,4.324,4.324,0,0,1-1.328-.3,4.464,4.464,0,0,1-1.032-.736,3.1,3.1,0,0,1-.591-.887c-2.359-4.715-3.977-8.547-5.451-12.083a44.422,44.422,0,0,1-3.237-13.557v-.295a44.909,44.909,0,0,1,.591-5.747,24.181,24.181,0,0,1,2.064-5.745A12.416,12.416,0,0,1-8.551,8.843,11.31,11.31,0,0,1-4.423,6.633c.145,0,.145,0,.295-.147A14.664,14.664,0,0,1,0,5.9"/>
      </g>
      <g id="g1066" transform="translate(605.31 -8698.971)">
        <path id="path1068" d="M0,0A8.413,8.413,0,0,0-.145-4.273v-.145a10.456,10.456,0,0,0-1.619-3.1c0-.147-.147-.147-.147-.3A13.967,13.967,0,0,0-4.565-10.02a.146.146,0,0,1-.145-.145.459.459,0,0,1-.295-.145A7.058,7.058,0,0,0-8.1-11.2a6.981,6.981,0,0,0-2.505.145c-.145-.145-.145-.441-.295-.591A11.365,11.365,0,0,0-14-15.033c-.145,0-.145-.145-.3-.145a11.868,11.868,0,0,0-3.237-1.032,9.506,9.506,0,0,0-3.536.145h-.3a16.647,16.647,0,0,0-2.945,1.327,7.641,7.641,0,0,0-2.36,2.505A14.994,14.994,0,0,0-28.287-8.4c-.295,1.328-.44,2.505-.591,3.537v.295A28.938,28.938,0,0,0-27.4,3.977c.736,2.209,1.619,4.569,2.8,7.369a3.2,3.2,0,0,0,1.473,1.619,3.859,3.859,0,0,0,2.209.295l6.192-1.472h.145a32.389,32.389,0,0,0,6.928-2.8A15.414,15.414,0,0,0-1.615,3.536,7.777,7.777,0,0,0,0,0" fill="#dbaac0"/>
      </g>
      <g id="g1070" transform="translate(586.299 -8715.182)">
        <path id="path1072" d="M0,0A11.329,11.329,0,0,0-2.209.295h-.3A16.653,16.653,0,0,0-5.451,1.623,7.61,7.61,0,0,0-7.809,4.128,14.947,14.947,0,0,0-9.428,7.96c-.3,1.327-.441,2.5-.592,3.536v.3a28.965,28.965,0,0,0,1.473,8.545c.737,2.211,1.619,4.569,2.8,7.369a3.19,3.19,0,0,0,1.473,1.619,2.652,2.652,0,0,0,1.473.3,1.328,1.328,0,0,0,.736-.147L4.128,28h.145A32.454,32.454,0,0,0,11.2,25.2a15.427,15.427,0,0,0,6.041-5.452,11.317,11.317,0,0,0,1.473-3.681,8.413,8.413,0,0,0-.145-4.273v-.147a10.466,10.466,0,0,0-1.619-3.095c0-.145-.145-.145-.145-.3a14.05,14.05,0,0,0-2.655-2.209.146.146,0,0,1-.147-.145.454.454,0,0,1-.295-.147,7.057,7.057,0,0,0-3.1-.885H9.728a5.51,5.51,0,0,0-1.619.145c-.145-.145-.145-.441-.295-.591a11.365,11.365,0,0,0-3.1-3.391c-.145,0-.145-.147-.3-.147A11.9,11.9,0,0,0,1.185-.141,2.89,2.89,0,0,1,.008,0m-1.04,4.564h0M0,4.423H.736A4.255,4.255,0,0,1,4.128,6.781c.145.147.145.3.295.441a4.251,4.251,0,0,0,3.832,2.36h.591c.441,0,.737-.145,1.032-.145h.737a2.293,2.293,0,0,1,1.327.44,5.194,5.194,0,0,1,1.619,1.328,4.986,4.986,0,0,1,.887,1.768,5.6,5.6,0,0,1,0,2.209,6.962,6.962,0,0,1-.887,2.209,9.669,9.669,0,0,1-4.419,3.979H9a32.291,32.291,0,0,1-6.041,2.359L-2.2,24.907c-1.032-2.359-1.768-4.423-2.359-6.191a23.971,23.971,0,0,1-1.328-7.075,10.9,10.9,0,0,1,.441-2.8A12.741,12.741,0,0,1-4.415,6.336,2.859,2.859,0,0,1-3.237,5.16a5.457,5.457,0,0,1,1.619-.737Z"/>
      </g>
      <g id="g1074" transform="translate(219.645 -8739.789)">
        <path id="path1076" d="M0,0A10.2,10.2,0,0,0-6.471,12.889c.043.125.087.251.133.376a9.633,9.633,0,0,0,7.96,5.9,5.982,5.982,0,0,0,1.619,0,11.084,11.084,0,0,0,3.832-.737c1.328-.44,5.9-2.359,10.905-4.568l2.947-1.328a10.826,10.826,0,0,0,5.747-5.009,18.2,18.2,0,0,0,2.945.3,12.987,12.987,0,0,0,2.505-.3A25.718,25.718,0,0,0,46.711-.575,16.8,16.8,0,0,0,48.92-3.08a16.825,16.825,0,0,0,7.809,9.137A32.8,32.8,0,0,0,67.781,8.563c1.032.145,2.064.145,2.945.3.441,0,.737.145,1.179.145h.885a10.861,10.861,0,0,0,6.779-2.8,9.443,9.443,0,0,0,2.064,1.177c.736.441,3.237,1.473,7.369,3.391l.591.3c3.977,1.768,9.432,4.127,10.609,4.713a10.467,10.467,0,0,0,4.715,1.032h.3a9.016,9.016,0,0,0,8.547-6.632,10.042,10.042,0,0,0-3.1-11.2,8.865,8.865,0,0,0,7.219-5.305,9.475,9.475,0,0,0-4.3-12.695c-.183-.091-.369-.175-.559-.255-2.8-1.327-11.331-5.159-14-6.191a14.319,14.319,0,0,0-4.711-1.072H94.02a10.031,10.031,0,0,0-4.128,1.032,7.025,7.025,0,0,0-.437-1.032,9.186,9.186,0,0,0-8.093-6.632H80.77a5.9,5.9,0,0,0-2.209.44,7.613,7.613,0,0,0-1.913.887h-.3a5.381,5.381,0,0,0-2.209.441,7.874,7.874,0,0,0-4.715,3.977.146.146,0,0,1-.145.145,9.178,9.178,0,0,0-6.928-7.073,9.892,9.892,0,0,0-2.064-.295h-.736a9.808,9.808,0,0,0-8.093,4.856l-1.768-.887a7.778,7.778,0,0,0-3.683-.591,3.2,3.2,0,0,0-1.177.145,10.277,10.277,0,0,0-7.665,5.6,91.471,91.471,0,0,0-8.4-4.423,10.94,10.94,0,0,0-4.747-1,3.2,3.2,0,0,0-1.177.145,9.708,9.708,0,0,0-7.96,6.928A8.5,8.5,0,0,0,11.052-25.2H9.724a9.514,9.514,0,0,0-2.945.592c-1.032.295-3.683,1.472-7.96,3.236-2.947,1.179-6.475,2.8-7.369,3.1a10.436,10.436,0,0,0-6.191,6.041,9.057,9.057,0,0,0,.591,7.811A10.265,10.265,0,0,0-6.487.879a4.961,4.961,0,0,0,1.473,0A11.542,11.542,0,0,0-1.776.288" fill="#fff"/>
      </g>
      <g id="g1078" transform="translate(279.899 -8778.548)">
        <path id="path1080" d="M0,0H-.4A13.7,13.7,0,0,0-9.712,3.977a16.077,16.077,0,0,0-3.832-.591h-.441a5.555,5.555,0,0,0-1.619.145A14.279,14.279,0,0,0-23.855,7.66C-25.769,6.628-27.833,5.6-29.16,5.005A15.8,15.8,0,0,0-35.5,3.683h-.441a7.156,7.156,0,0,0-1.768.145A14.765,14.765,0,0,0-47.14,9.575a3.23,3.23,0,0,0-1.177-.147c-.591,0-1.032-.145-1.619-.145h-.445a10.571,10.571,0,0,0-4.273.887c-1.031.295-3.237,1.327-8.093,3.237-2.5,1.032-6.473,2.655-7.219,2.945a14.739,14.739,0,0,0-8.841,8.7,13.615,13.615,0,0,0,.885,11.5A15.383,15.383,0,0,0-70.7,43.02a13.288,13.288,0,0,0,0,10.611,13.72,13.72,0,0,0,11.48,8.688c.591,0,1.177.145,1.768.145h.441a16.192,16.192,0,0,0,5.305-1.032c1.473-.591,5.9-2.359,11.051-4.569l2.947-1.177a15.845,15.845,0,0,0,6.191-4.423h.883a22.118,22.118,0,0,0,3.1-.295,28.863,28.863,0,0,0,15.324-7.516,21.243,21.243,0,0,0,6.779,5.6A34.608,34.608,0,0,0,7.236,52h.145c.887.145,1.768.145,2.505.295a6,6,0,0,0,1.617.145h1.179a13.579,13.579,0,0,0,7.073-2.064c1.032.441,3.1,1.473,7.369,3.237l.591.3h.145c3.683,1.619,9.283,4.128,10.315,4.568A15.654,15.654,0,0,0,44.808,60.1h.441a13.443,13.443,0,0,0,12.675-9.577,14.62,14.62,0,0,0-.441-10.611,13.439,13.439,0,0,0,4.431-5.423A13.9,13.9,0,0,0,55.28,15.98c-.145-.068-.292-.135-.44-.2-2.945-1.327-11.5-5.159-14.163-6.191A16.863,16.863,0,0,0,34.34,8.263h-.591a6.061,6.061,0,0,0-1.619.147A13.052,13.052,0,0,0,21.536,1.619h-.9a12.525,12.525,0,0,0-3.391.591,10.2,10.2,0,0,0-1.913.736,12.518,12.518,0,0,0-2.505.591,11.5,11.5,0,0,0-2.359,1.032A14.569,14.569,0,0,0,3.7.441,10.962,10.962,0,0,0,.757,0ZM0,4.423H.441a11.5,11.5,0,0,1,2.064.3,9.4,9.4,0,0,1,6.928,7.073.146.146,0,0,1,.145-.147,8.4,8.4,0,0,1,4.715-3.977c.591-.145,1.472-.295,2.209-.441h.145a4.566,4.566,0,0,1,1.915-.885A11.644,11.644,0,0,1,20.772,5.9h.591a9.191,9.191,0,0,1,8.093,6.632,7.283,7.283,0,0,1,.489,1.024,9.5,9.5,0,0,1,4.128-1.032h.295a11.417,11.417,0,0,1,4.715,1.032c2.505,1.032,11.051,4.856,14,6.192a9.57,9.57,0,0,1-2.367,18.291,10.04,10.04,0,0,1,3.095,11.2,9.017,9.017,0,0,1-8.551,6.6h-.295a12.921,12.921,0,0,1-4.715-1.032c-1.177-.591-6.632-2.947-10.611-4.715l-.591-.295c-4.273-1.915-6.632-2.947-7.369-3.392s-1.472-.736-2.063-1.177a9.463,9.463,0,0,1-6.779,2.8H12.1a3.669,3.669,0,0,1-1.179-.145,18.2,18.2,0,0,0-2.945-.3A32.834,32.834,0,0,1-3.072,45.087a15.715,15.715,0,0,1-7.809-9.136c-.736.885-1.473,1.768-2.209,2.5a27.115,27.115,0,0,1-14.588,8.093c-.887.147-1.619.147-2.505.3h-.3a16.131,16.131,0,0,1-2.653-.3,11.473,11.473,0,0,1-5.747,5.009l-2.947,1.328c-5.009,2.064-9.432,3.977-10.905,4.569a11.114,11.114,0,0,1-3.832.736h-1.473a9.632,9.632,0,0,1-7.96-5.9A10.085,10.085,0,0,1-60.255,39.24c.2-.076.395-.147.595-.211a8.6,8.6,0,0,0,1.177-.591c-.295.145-1.472.591-2.359.887a8.4,8.4,0,0,1-3.237.591h-1.477a9.579,9.579,0,0,1-7.664-5.305A9.055,9.055,0,0,1-73.81,26.8a10.442,10.442,0,0,1,6.191-6.043c.887-.295,4.424-1.768,7.369-3.095,4.273-1.769,6.928-2.8,7.96-3.239a9.55,9.55,0,0,1,2.945-.591h1.328a7.936,7.936,0,0,1,3.832,1.328,9.508,9.508,0,0,1,7.96-6.928c.441,0,.736-.145,1.177-.145h.3a9.7,9.7,0,0,1,4.423,1.032,76.82,76.82,0,0,1,8.392,4.435,10.365,10.365,0,0,1,7.665-5.6c.44,0,.736-.147,1.177-.147h.295A8.674,8.674,0,0,1-9.408,8.4l1.768.887A9.493,9.493,0,0,1,.453,4.431H0"/>
      </g>
      <g id="g1082" transform="translate(221.859 -8725.646)">
        <path id="path1084" d="M0,0A4.334,4.334,0,0,1-3.832-2.8C-5.009-5.455-3.537-8.105-.3-9.579c2.36-1.032,6.928-2.8,10.02-3.977L5.892-23.268l-.887.44C.437-20.913-4.132-18.995-5.309-18.555a5.109,5.109,0,0,1-6.337-2.359,4.227,4.227,0,0,1-.295-3.536,5.778,5.778,0,0,1,3.095-3.1c1.032-.3,4.424-1.768,7.665-3.1,3.391-1.472,6.632-2.8,7.664-3.1a5.012,5.012,0,0,1,2.064-.295,5.759,5.759,0,0,1,4.128,3.095l7.515,18.716a5.087,5.087,0,0,1-3.537,6.192L13.556-4.7C9.579-3.084,4.273-.724,2.945-.279A6.513,6.513,0,0,1,0,.016"/>
      </g>
      <g id="g1086" transform="translate(252.787 -8752.467)">
        <path id="path1088" d="M0,0A6.091,6.091,0,0,1-2.8-.3a64,64,0,0,1-7.515-3.537A4.883,4.883,0,0,1-12.82-9.579a4.412,4.412,0,0,1,3.832-3.392,5.687,5.687,0,0,1,3.1.443A66.2,66.2,0,0,1,2.2-8.255,4.66,4.66,0,0,1,2.935-1.7,4.661,4.661,0,0,1-.008,0M-1.752,15.477a8.386,8.386,0,0,1-1.915.147c-3.391,0-5.6-1.768-5.6-4.568,0-1.915.736-4.275,4.856-5.011A13.529,13.529,0,0,0,4.88-.871a69.508,69.508,0,0,0,3.979-8.7A5.3,5.3,0,0,1,12.985-13.1a3.87,3.87,0,0,1,2.209.3,5.164,5.164,0,0,1,2.947,5.9A30.758,30.758,0,0,1,10.169,8.841,22.3,22.3,0,0,1-1.768,15.473"/>
      </g>
      <g id="g1090" transform="translate(291.865 -8735.662)">
        <path id="path1092" d="M0,0H-.591c-.887-.145-2.064-.3-3.237-.441a27.1,27.1,0,0,1-9.137-1.913,10.885,10.885,0,0,1-6.041-10.02c.145-2.945.885-8.547,1.327-12.083.145-1.473.3-2.505.441-3.237a5.794,5.794,0,0,1,5.451-5.747,2.518,2.518,0,0,1,1.032.145c1.915.441,3.977,2.211,3.1,7.369l-.147.736c3.392-.441,7.96-1.177,9.433-1.327a3.322,3.322,0,0,1,.3-2.36A2.119,2.119,0,0,1,3.541-30.2a2.511,2.511,0,0,1,1.031-.145,2.61,2.61,0,0,1,1.473.591.146.146,0,0,1,.145-.145A2.537,2.537,0,0,1,7.96-31.377a2.493,2.493,0,0,1,1.032-.147c2.209.147,3.237,2.656,3.536,3.537a5.4,5.4,0,0,1,.441,3.979A3.061,3.061,0,0,1,11.2-22.536a3.233,3.233,0,0,1-1.177.147,2.132,2.132,0,0,1-1.032-.3,2.408,2.408,0,0,1-1.177,1.327c-.441,2.8-2.947,3.683-5.305,4.275A78.7,78.7,0,0,1-9.279-15.316a1.866,1.866,0,0,1-.147.885c-.145,2.36-.295,3.537,3.1,4.273a43.86,43.86,0,0,0,6.192.887l1.032.145A4.181,4.181,0,0,1,3.989-7.211a4.451,4.451,0,0,1,.883,3.536C5.017-1.905,3.1.159.016.008"/>
      </g>
      <g id="g1094" transform="translate(328.997 -8745.523)">
        <path id="path1096" d="M0,0A5.777,5.777,0,0,1-2.655-.591c-.887-.441-3.237-1.328-5.6-2.36-3.392-1.472-6.928-2.8-7.811-3.391a5.052,5.052,0,0,1-3.1-6.337,4.368,4.368,0,0,1,4.277-2.663,6.405,6.405,0,0,1,2.8.591c2.359,1.032,10.905,4.715,13.705,6.043A4.52,4.52,0,0,1,4.207-2.861a4.387,4.387,0,0,1-.225.489A4.022,4.022,0,0,1,0-.012M-4.273,17.671a5.2,5.2,0,0,1-2.505-.589c-1.177-.592-6.191-2.8-10.756-4.857-3.832-1.617-7.073-3.095-7.959-3.536a4.789,4.789,0,0,1-3.229-5.951c.039-.131.084-.26.133-.387A4.535,4.535,0,0,1-24.167-.595,7.5,7.5,0,0,1-21.22,0c2.5,1.032,16.652,7.219,18.715,8.4A4.8,4.8,0,0,1-.441,14.588a3.593,3.593,0,0,1-3.832,3.1"/>
      </g>
      <g id="g1098" transform="translate(216.4 -8745.535)">
        <path id="path1100" d="M0,0A3.577,3.577,0,0,1-4.715-1.768,3.239,3.239,0,0,1-3.209-6.092a3.315,3.315,0,0,1,.7-.245c2.064-.736,13.411-5.6,15.325-6.191a3.641,3.641,0,0,1,4.423,2.063L24.612,8.105c.591,1.473-.441,3.392-2.8,4.423S9.873,17.539,8.105,18.275a3.784,3.784,0,0,1-5.123-1.548c-.012-.023-.024-.047-.037-.071-.885-2.064.3-3.832,2.947-5.009s8.4-3.392,11.331-4.424L12.213-5.156C10.444-4.419,1.457-.587-.02,0" fill="#7f80af"/>
      </g>
      <g id="g1102" transform="translate(267.399 -8764.105)">
        <path id="path1104" d="M0,0A3.707,3.707,0,0,1,2.064,4.423,28.321,28.321,0,0,1-5.451,19.456a18.719,18.719,0,0,1-12.82,6.475c-2.505,0-4.273-1.177-4.273-3.236,0-1.769,1.032-3.1,3.683-3.684A15.278,15.278,0,0,0-8.692,11.347,81.177,81.177,0,0,0-4.564,2.505,3.642,3.642,0,0,1-.077-.024L0,0M-26.089,2.36A3.375,3.375,0,0,1-21.895.081a3.341,3.341,0,0,1,.816.364,51.513,51.513,0,0,1,7.809,4.273,3.026,3.026,0,0,1,.887,3.832,3.644,3.644,0,0,1-4.569,1.473,36.2,36.2,0,0,1-7.219-3.391A3.555,3.555,0,0,1-26.085,2.36" fill="#7f80af"/>
      </g>
      <g id="g1106" transform="translate(302.743 -8759.69)">
        <path id="path1108" d="M0,0C-1.619.441-2.505-1.177-3.237-3.237c-.441-1.179-.3-2.655.883-3.1S-.145-5.743.591-3.828C1.477-1.619,1.477-.437,0,0M-3.957-2.647C-2.484.008-2.631,1.185-4.1,1.627h-.147c0,1.913-1.032,3.1-4.273,3.832A87.327,87.327,0,0,1-21.2,7.227c-.147.737-.147,1.473-.3,2.064-.295,2.655-.145,4.856,4.128,5.747a49.909,49.909,0,0,0,7.369,1.032A3.548,3.548,0,0,1-7.049,19.9a3.836,3.836,0,0,1-4.423,2.945A47.823,47.823,0,0,1-23.26,20.637a9.713,9.713,0,0,1-5.309-8.849C-28.424,7.809-27.1-1.032-26.8-3.391c.3-2.8,2.209-5.011,4.715-4.424,2.655.736,2.505,3.683,2.209,5.747-.145.591-.145,1.473-.441,2.505C-17.081,0-10.607-.891-8.988-1.181a2.479,2.479,0,0,1,1.473,0c-.145-.147-.145-.441-.3-.737-.44-1.177-.295-2.655.887-3.1,1.328-.295,2.064.441,2.947,2.36" fill="#7f80af"/>
      </g>
      <g id="g1110" transform="translate(311.16 -8757.627)">
        <path id="path1112" d="M0,0C.887-1.915,2.8-2.36,5.305-1.328S16.211,3.387,18.861,4.715a3.136,3.136,0,0,1,2.049,3.933,3.068,3.068,0,0,1-.281.635,3.552,3.552,0,0,1-4.856,1.032C13.564,9.428,3.987,5.459,2.217,4.568A3.642,3.642,0,0,1,.008,0M-9.283,15.037c.885-2.36,3.536-2.36,5.6-1.473,2.505,1.032,16.507,7.219,18.571,8.251a3.412,3.412,0,0,1,1.472,4.569c-.44,1.915-2.5,2.655-4.713,1.619-2.064-1.032-16.8-7.515-18.571-8.4-2.209-1.032-3.391-2.064-2.359-4.568" fill="#7f80af"/>
      </g>
      <g id="g1114" transform="translate(215.817 -8661.24)">
        <path id="path1116" d="M0,0A8.875,8.875,0,0,0-4.568.591a32.277,32.277,0,0,0-5.452,2.8l-3.237,2.064c-1.472,1.032-4.127,2.655-6.041,3.832a18.673,18.673,0,0,1-11.5,3.537,10.651,10.651,0,0,1-5.011-2.064c-1.619-1.177-1.472-4.423,2.505-6.041L-6.037-6.924c1.177-.44,2.8-1.327,3.1-.295A8.141,8.141,0,0,0,.74-1.472C1.772-.441.445,0,0,0M97.41-8.7A21.665,21.665,0,0,0,81.936-29.46a21.755,21.755,0,0,0-30.1-6.347,21.752,21.752,0,0,0-8.213,9.884L24.167-30.779a22.367,22.367,0,0,0,1.768-8.7A23.174,23.174,0,0,0,2.8-62.641a30.966,30.966,0,0,0-3.683.295,23.467,23.467,0,0,0-16.36-6.769A23.174,23.174,0,0,0-40.381-45.977a23.815,23.815,0,0,0,1.619,8.545l-5.009,2.209-.441-5.305a1.332,1.332,0,0,0-.147-.736A20.015,20.015,0,0,0-64.7-57.916h-1.769A20.438,20.438,0,0,0-81.936-50.1a20.785,20.785,0,0,0-4.128,12.233v1.031L-81.79,8.984A51.323,51.323,0,0,0-37.872,54.675a64.7,64.7,0,0,0,7.515.591A59.253,59.253,0,0,0,8.4,39.333a12.167,12.167,0,0,0,.591,2.209L13.56,54.659a12.706,12.706,0,0,0,4.128,5.9,24.619,24.619,0,0,0,15.324,5.009,25.283,25.283,0,0,0,10.316-1.915l.736-.295c.3-.145.441-.145.736-.3a97.249,97.249,0,0,0,14.739-8.4A110.918,110.918,0,0,0,81.5,35.5a74.766,74.766,0,0,0,9.577-14.588A21.234,21.234,0,0,0,91.96,5.88,22.4,22.4,0,0,0,97.41-8.708" fill="#060001"/>
      </g>
      <g id="g1118" transform="translate(474.154 -8667.136)">
        <path id="path1120" d="M0,0C.3-.3.441-.736.736-1.032A33.467,33.467,0,0,0,5.147-9.579a20.842,20.842,0,0,0,.737-3.237,21.526,21.526,0,0,0-5.747-17.4,17.511,17.511,0,0,0-1.768-1.619,30.77,30.77,0,0,0-17.243-6.475h-.737l-6.041.145a14.689,14.689,0,0,0-13.264-8.547h-8.252a14.454,14.454,0,0,0-13.556,9.283l-16.652.441a13.606,13.606,0,0,0-5.6,1.328,14.407,14.407,0,0,0-2.505-.3h-17.684a14.568,14.568,0,0,0-14.443-13.115h-8.251A14.568,14.568,0,0,0-140.3-35.955h-16.944a14.625,14.625,0,0,0-14.588,14.588v8.252A14.625,14.625,0,0,0-157.245,1.473h3.392a75.182,75.182,0,0,0,4.568,6.632c.147.3.441.591.591.887-.736.591-1.472,1.032-2.209,1.619a76.4,76.4,0,0,1-12.82,7.809,14.639,14.639,0,0,0-7.077,18.7l3.1,7.515a14.61,14.61,0,0,0,8.251,7.96,15.335,15.335,0,0,0,5.16,1.032A15.083,15.083,0,0,0-148.1,52.3,98.272,98.272,0,0,0-128.65,40.8c2.359-1.619,4.568-3.391,6.777-5.16,2.36,1.769,4.856,3.537,7.369,5.305a198.206,198.206,0,0,0,18.42,11.331,14.254,14.254,0,0,0,6.928,1.768h.145a14.626,14.626,0,0,0,12.084-6.475,13.371,13.371,0,0,0,3.1,2.655,51.8,51.8,0,0,0,10.756,5.011A43.333,43.333,0,0,0-51.744,57.6a21.624,21.624,0,0,0,3.095.145A30.956,30.956,0,0,0-40.4,56.564a25.972,25.972,0,0,0,11.641-6.041A31.958,31.958,0,0,0-20.5,39.616c.591-1.327,1.177-2.653,1.619-3.977H-7.244A14.626,14.626,0,0,0,7.345,21.051V12.84A13.593,13.593,0,0,0-.024.02" fill="#dbaac0"/>
      </g>
      <g id="g1122" transform="translate(356.421 -8725.492)">
        <path id="path1124" d="M0,0H-8.251A23.98,23.98,0,0,0-29.621,13.115H-39.657A23.965,23.965,0,0,0-63.532,36.991v8.247A24.12,24.12,0,0,0-48.353,67.494a7.944,7.944,0,0,1-1.619.736,23.944,23.944,0,0,0-11.643,30.8l3.1,7.515A23.926,23.926,0,0,0-45.108,119.66a24.458,24.458,0,0,0,8.547,1.617,23.825,23.825,0,0,0,10.169-2.208A115.446,115.446,0,0,0-5.317,106.69a8.149,8.149,0,0,0,1.328-1.032,21.724,21.724,0,0,0,1.913,1.327,201.88,201.88,0,0,0,19.452,11.937,23.688,23.688,0,0,0,11.331,2.947h.147a24.476,24.476,0,0,0,12.819-3.683,60.768,60.768,0,0,0,10.169,4.423,52.946,52.946,0,0,0,13.556,2.8,34.711,34.711,0,0,0,3.833.147,37.624,37.624,0,0,0,10.609-1.473,36.116,36.116,0,0,0,15.62-8.093,44.124,44.124,0,0,0,9.875-12.545h5.451A23.963,23.963,0,0,0,134.66,79.569V71.323a23.326,23.326,0,0,0-5.009-14.588,45.133,45.133,0,0,0,1.915-4.715,22.946,22.946,0,0,0,1.177-5.305,30.461,30.461,0,0,0-8.252-24.757,16.533,16.533,0,0,0-2.945-2.655,40,40,0,0,0-22.4-8.4H96.784A24.049,24.049,0,0,0,78.658,2.5H70.412a24.24,24.24,0,0,0-19.02,9.433l-11.331.3a25.88,25.88,0,0,0-6.632,1.032H21.347A23.847,23.847,0,0,0,0,0M0,9.429A14.568,14.568,0,0,1,14.443,22.544H32.127a13.065,13.065,0,0,1,2.5.295,18.309,18.309,0,0,1,5.6-1.327l16.652-.441A14.454,14.454,0,0,1,70.44,11.788H78.69a14.69,14.69,0,0,1,13.265,8.547L98,20.189h.737a30.77,30.77,0,0,1,17.243,6.475,17.655,17.655,0,0,1,1.768,1.617,21.53,21.53,0,0,1,5.747,17.4,12.848,12.848,0,0,1-.737,3.237,33.5,33.5,0,0,1-4.423,8.547c-.295.295-.441.736-.736,1.032a14.528,14.528,0,0,1,7.664,12.82v8.093A14.625,14.625,0,0,1,110.672,94H99.029c-.441,1.327-1.032,2.655-1.619,3.977a31.95,31.95,0,0,1-8.251,10.907,25.99,25.99,0,0,1-11.643,6.041,31,31,0,0,1-8.251,1.177,21.828,21.828,0,0,1-3.1-.145A48.751,48.751,0,0,1,54.84,113.6a45.126,45.126,0,0,1-10.756-5.009,13.435,13.435,0,0,1-3.1-2.655,14.624,14.624,0,0,1-12.083,6.475h-.175a14.235,14.235,0,0,1-6.927-1.769A170.745,170.745,0,0,1,3.383,99.308C.879,97.54-1.473,95.772-3.985,94c-2.211,1.768-4.424,3.391-6.779,5.16a107.688,107.688,0,0,1-19.452,11.5,15.087,15.087,0,0,1-6.192,1.327,12.387,12.387,0,0,1-5.159-1.032A15.055,15.055,0,0,1-49.819,103l-3.1-7.516A14.637,14.637,0,0,1-45.84,76.765a82.864,82.864,0,0,0,12.819-7.811c.737-.591,1.473-1.032,2.211-1.619-.147-.295-.441-.591-.591-.887a74.523,74.523,0,0,1-4.569-6.632h-3.391A14.624,14.624,0,0,1-53.949,45.229V36.987A14.623,14.623,0,0,1-39.361,22.4h16.652A14.567,14.567,0,0,1-8.267,9.283H0"/>
      </g>
      <g id="g1126" transform="translate(397.062 -8663.599)">
        <path id="path1128" d="M0,0H4.273c0,.145.145.145.145.295H-2.056a8.933,8.933,0,0,0-8.988,8.875v7.5a71.4,71.4,0,0,1-7.368-4.856l-.145-.145c-2.651-1.915-4.715-3.391-6.475-4.715,1.619-1.915,3.095-3.683,4.713-5.747l.147-.145a80.943,80.943,0,0,0,5.3-8.4h6.337A8.5,8.5,0,0,0,0,0M23.317-30.653a2.327,2.327,0,0,0,2.359-2.295v-2.585a4.119,4.119,0,0,1,4.112-4.128h8.251a4.12,4.12,0,0,1,4.128,4.111v2.08A2.719,2.719,0,0,0,42.9-31.7a3.233,3.233,0,0,0,1.768.736l12.675-.295h.295a19.655,19.655,0,0,1,11.5,4.423,2.045,2.045,0,0,0,.591.441,10.859,10.859,0,0,1,2.945,9.137c0,.295-.145.591-.145.885a20.42,20.42,0,0,1-3.1,5.9l-2.209,3.1-.885,1.473A4.4,4.4,0,0,1,63.832-4.14l-.736.145A4.448,4.448,0,0,1,59.7-4.585l-.881-.591a2.717,2.717,0,0,0-2.36-.3,2.27,2.27,0,0,0-1.327,1.915,11.085,11.085,0,0,1-1.915,5.009,2.229,2.229,0,0,0-.145,2.505,2.541,2.541,0,0,0,2.209,1.327H70.318A4.122,4.122,0,0,1,74.446,9.4v8.109a4.122,4.122,0,0,1-4.112,4.128H52.2A2.383,2.383,0,0,0,49.843,23.7a24.607,24.607,0,0,1-2.209,7.961,20.969,20.969,0,0,1-5.747,7.513,15.853,15.853,0,0,1-7.369,3.683,20.9,20.9,0,0,1-7.959.737,30.805,30.805,0,0,1-8.988-1.915,34.253,34.253,0,0,1-8.4-3.832,4.147,4.147,0,0,1-1.913-3.537v-.441a4.068,4.068,0,0,1,.736-2.359l4.273-6.041a2.229,2.229,0,0,0,.145-2.505A2.539,2.539,0,0,0,10.2,21.633H-2.343a5.615,5.615,0,0,0-1.915-1.328l-1.619-.887a4.7,4.7,0,0,1-.441-2.063V9.137A4.12,4.12,0,0,1-2.205,5.009H11.367A2.3,2.3,0,0,0,13.727,2.8a2.214,2.214,0,0,0-1.9-2.489C11.773.3,11.717.3,11.663.295A4.452,4.452,0,0,1,8.125-2.943,2.52,2.52,0,0,0,5.767-4.856h-5.9A4.049,4.049,0,0,1-4.257-8.539,9.042,9.042,0,0,0,.312-16.349v-8.259a9.323,9.323,0,0,0-1.619-5.16M70.165.145H65.451a9.219,9.219,0,0,0,4.856-3.683l.736-1.177c.737-1.032,1.177-1.619,2.209-3.237a36.9,36.9,0,0,0,3.683-7.219,4.534,4.534,0,0,0,.441-1.915A16.091,16.091,0,0,0,73.1-30.035a8.413,8.413,0,0,0-1.177-1.032,24.066,24.066,0,0,0-14.164-5.305h-.44l-10.316.3a8.942,8.942,0,0,0-8.987-8.547H29.783A8.929,8.929,0,0,0,20.8-35.749v.216l-20.925.589a8.005,8.005,0,0,0-5.009,1.769,8.411,8.411,0,0,0-3.237-.591H-31.524v-4.128A8.931,8.931,0,0,0-40.4-46.881h-8.365a8.931,8.931,0,0,0-8.987,8.875v4.241h-22.4a8.931,8.931,0,0,0-8.988,8.875v8.376a8.931,8.931,0,0,0,8.875,8.987c.037,0,.076,0,.113,0h6.632a60.722,60.722,0,0,0,5.747,8.843c1.473,1.769,2.8,3.537,4.128,5.16-2.209,1.768-4.423,3.391-6.779,5.16a76.967,76.967,0,0,1-13.705,8.251,9.185,9.185,0,0,0-4.419,11.643l3.095,7.513A8.9,8.9,0,0,0-73.794,43.8c.145-.061.288-.125.429-.193A106.5,106.5,0,0,0-54.8,32.7c3.537-2.5,6.928-5.159,10.02-7.664,3.536,2.655,7.073,5.305,10.611,7.811A148.034,148.034,0,0,0-16.332,43.756a8.909,8.909,0,0,0,4.423,1.032,9.137,9.137,0,0,0,8.093-5.16l3.391-7.073a8.762,8.762,0,0,0,.883-3.977V28a7.167,7.167,0,0,0-.145-1.769H5.471l-1.619,2.36a9.316,9.316,0,0,0-1.619,5.16v.441A8.643,8.643,0,0,0,6.361,41.7a43.553,43.553,0,0,0,9.433,4.424,40.243,40.243,0,0,0,10.169,2.064,16.207,16.207,0,0,0,2.655.145,21.913,21.913,0,0,0,6.927-1.032,20.854,20.854,0,0,0,9.284-4.856,28.926,28.926,0,0,0,6.928-9.137,41.362,41.362,0,0,0,2.359-7.22H70.181a8.931,8.931,0,0,0,8.988-8.873V8.841a8.972,8.972,0,0,0-8.988-8.7"/>
      </g>
      <g id="g1130" transform="translate(467.226 -8646.045)">
        <path id="path1132" d="M0,0H-24.757V.405l.3,4.855a25.013,25.013,0,0,1-1.915,7.22,15.372,15.372,0,0,1-4.715,6.041,13.75,13.75,0,0,1-5.451,2.8,17.671,17.671,0,0,1-4.856.737,7.287,7.287,0,0,1-1.768-.145,30.673,30.673,0,0,1-8.093-1.769,42.285,42.285,0,0,1-7.515-3.391v-.441l4.715-6.632a28.243,28.243,0,0,0,6.777,3.1,29.97,29.97,0,0,0,6.475.881h1.177A6.615,6.615,0,0,0-35.651,11.3a10.279,10.279,0,0,0,2.5-4.856A25.063,25.063,0,0,0-32.851.7l-.3-.887H-72.212V-8.417h35.205v-.736l-3.391-5.9,10.905-6.928v-.441h-4.273l-24.021.887-.424-8.255,30.948-.887a9.1,9.1,0,0,1,5.9,2.945,7.755,7.755,0,0,1,1.915,5.9,6.224,6.224,0,0,1-2.505,4.423l-7.219,5.452,2.064,3.391H-.145V0ZM-78.845-8.272V0a6.566,6.566,0,0,0,1.179,3.832A101.889,101.889,0,0,1-90.212-3.832a.146.146,0,0,1-.145-.145c-3.237-2.211-6.041-4.273-8.7-6.337,2.209-2.359,4.273-4.856,6.336-7.515l.147-.145c2.063-2.947,3.977-6.043,5.9-9.433h7.959a9.892,9.892,0,0,0,2.064-.295v1.176a6.6,6.6,0,0,0,6.576,6.633h5.953a6.777,6.777,0,0,0,5.451,5.16H-72.229a6.389,6.389,0,0,0-6.628,6.141c0,.111-.005.221,0,.333m.312,19.589L-81.94,18.4h-.147A182.751,182.751,0,0,1-99.178,7.94C-104.63,4.108-110.085.129-115.094-4.144-119.95.129-125.114,4.108-130.273,7.94a86.591,86.591,0,0,1-17.093,10.019l-3.1-7.515a83.532,83.532,0,0,0,15.033-9.137c4.856-3.536,9.433-7.219,14-11.051l.3-.887a134.378,134.378,0,0,1-9.875-11.2,56.838,56.838,0,0,1-7.219-12.232h-12.249v-8.248h31.389V-55.439h8.268v13.115H-78.69v8.251H-90.774a66.384,66.384,0,0,1-7.073,12.084,111.121,111.121,0,0,1-9.712,11.051l-.887.737v.591A163.849,163.849,0,0,0-94,1.441a120.853,120.853,0,0,0,15.475,9.432Zm8.4-54.675,29.767-.885v-8.843h8.251v8.7h4.715l14.588-.44A16.371,16.371,0,0,1-3.691-41.28a7.243,7.243,0,0,1,1.915,5.747,21.761,21.761,0,0,1-2.505,4.856c-1.032,1.473-2.064,3.095-3.1,4.713l-.736.147-6.192-4.424v-.736l3.392-5.305a62.26,62.26,0,0,0-7.369-.591,20.728,20.728,0,0,0-2.947.147l-40.527,1.472v8.4h-8.392ZM0-14.9H-15.033a12.7,12.7,0,0,0,2.359-6.041l.887.591a7.3,7.3,0,0,0,3.832,1.177,6.006,6.006,0,0,0,1.619-.145l.737-.145a7.747,7.747,0,0,0,3.832-2.36l.736-1.177c.737-1.177,1.619-2.359,2.359-3.683a44.842,44.842,0,0,0,3.392-6.475,5.25,5.25,0,0,0,.295-1.473A13.76,13.76,0,0,0,1.332-45.687,8.94,8.94,0,0,0,.153-46.864a20.828,20.828,0,0,0-12.379-4.423h-.441l-12.544.295v-2.064a6.6,6.6,0,0,0-6.576-6.632h-8.308a6.6,6.6,0,0,0-6.632,6.576v2.528l-23.284.737a6.253,6.253,0,0,0-4.715,2.209,6.45,6.45,0,0,0-3.683-1.177H-103.9v-6.475a6.6,6.6,0,0,0-6.576-6.632h-8.308a6.6,6.6,0,0,0-6.632,6.575.411.411,0,0,0,0,.057v6.475h-24.908a6.6,6.6,0,0,0-6.624,6.584v8.316a6.6,6.6,0,0,0,6.576,6.632h8.149a54.67,54.67,0,0,0,6.192,9.712c1.913,2.505,3.832,4.856,5.747,6.928-2.8,2.209-5.747,4.423-8.843,6.779a86.972,86.972,0,0,1-14,8.547,6.741,6.741,0,0,0-3.237,8.545l3.1,7.516a6.6,6.6,0,0,0,6.041,3.977,5.994,5.994,0,0,0,2.8-.591A111.281,111.281,0,0,0-126.3,13.52c3.977-2.945,7.811-5.9,11.331-8.843,3.977,3.1,7.96,6.192,12.083,8.988A167.544,167.544,0,0,0-85.206,24.421a5.989,5.989,0,0,0,3.1.737h.145a6.565,6.565,0,0,0,5.9-3.683l3.392-7.073a6.405,6.405,0,0,0,.591-2.8v-.591a6.809,6.809,0,0,0-1.619-4.423,4.052,4.052,0,0,0,1.327.145h12.233l-4.273,6.043A7.288,7.288,0,0,0-65.6,16.608v.441a6.879,6.879,0,0,0,3.1,5.6,42.536,42.536,0,0,0,8.987,4.128,43.289,43.289,0,0,0,9.579,2.063,12.709,12.709,0,0,0,2.36.147A25.418,25.418,0,0,0-35.1,28.1a18.453,18.453,0,0,0,8.251-4.273,24.839,24.839,0,0,0,6.337-8.4,27.2,27.2,0,0,0,2.359-8.545H-.028A6.606,6.606,0,0,0,6.6.308V-7.976A6.672,6.672,0,0,0,.191-14.9c-.072,0-.145-.005-.219-.005" fill="#7f80af"/>
      </g>
      <g id="g1134" transform="translate(367.157 -8680.105)">
        <path id="path1136" d="M0,0H-28.731V.591a78.846,78.846,0,0,0,6.475,9.137,83.707,83.707,0,0,0,7.809,8.4l.3-.147c2.655-2.8,5.451-5.745,8.093-8.7A90.759,90.759,0,0,0,0,0" fill="#7f80af"/>
      </g>
      <g id="g1138" transform="translate(452.934 -8676.281)">
        <path id="path1140" d="M0,0V-.737l3.391-5.3A48.02,48.02,0,0,0-6.924-6.483L-47.451-5.009v8.4h-8.4V-13.124l29.767-.885v-8.825h8.252v8.7h4.715L1.469-14.58a16.384,16.384,0,0,1,9.137,3.536A7.239,7.239,0,0,1,12.52-5.3a21.756,21.756,0,0,1-2.5,4.856c-1.032,1.473-2.064,3.1-3.1,4.715l-.737.145ZM-37.14,50.555a42.285,42.285,0,0,1-7.515-3.391v-.441l4.715-6.633a28.243,28.243,0,0,0,6.777,3.1,25.513,25.513,0,0,0,7.665.887,6.618,6.618,0,0,0,3.977-2.359,10.3,10.3,0,0,0,2.505-4.856,25.062,25.062,0,0,0,.295-5.747l-.295-.883H-58.065V21.965H-22.86v-.737l-3.391-5.895,10.905-6.928V7.964h-4.277l-24.02.885L-44.084.6l30.948-.887a9.093,9.093,0,0,1,5.9,2.947,7.751,7.751,0,0,1,1.915,5.9,6.227,6.227,0,0,1-2.505,4.423l-7.2,5.463,2.064,3.392H14v8.384H-10.76v.441l.3,4.856a24.962,24.962,0,0,1-1.915,7.219,15.376,15.376,0,0,1-4.715,6.043,13.767,13.767,0,0,1-5.451,2.8,16.451,16.451,0,0,1-6.632.591,30.632,30.632,0,0,1-7.96-1.619" fill="#fff"/>
      </g>
      <g id="g1142" transform="translate(453.399 -8676.423)">
        <path id="path1144" d="M0,0,5.9,4.128l.441-.147.736-1.032C7.811,1.773,8.692.591,9.433-.441a18.974,18.974,0,0,0,2.5-4.856,7.413,7.413,0,0,0-1.768-5.451,13.449,13.449,0,0,0-8.843-3.391l-14.588.441h-4.713a.469.469,0,0,1-.441-.441v-8.409h-7.515v8.7c0,.147-.145.3-.3.441l-29.325.887V3.541h7.515V-4.552c0-.145.145-.3.295-.441L-7.215-6.467a56.965,56.965,0,0,1,10.464.441.512.512,0,0,1,.3.145v.3L.153-.424v.44ZM5.731,5.009H5.584L-.607.587C-.752.587-.752.441-.752.292V-.595L2.343-5.309a50.74,50.74,0,0,0-9.712-.3L-47.6-4.132V3.961a.47.47,0,0,1-.441.441h-8.252a.468.468,0,0,1-.44-.441V-12.969c0-.145.145-.3.295-.441l29.327-.887v-8.545a.467.467,0,0,1,.44-.441h8.252a.469.469,0,0,1,.441.441v8.4h4.273L.883-14.884A14.493,14.493,0,0,1,10.315-11.2,7.639,7.639,0,0,1,12.379-5.16,17.127,17.127,0,0,1,9.724,0C8.988,1.032,8.105,2.209,7.365,3.391L6.628,4.569a.146.146,0,0,1-.145.145l-.736.295M-37.424,50.385A29.385,29.385,0,0,0-29.464,52a16.182,16.182,0,0,0,6.475-.589,11.328,11.328,0,0,0,5.305-2.656,17.27,17.27,0,0,0,4.569-6.041A22.687,22.687,0,0,0-11.2,35.5l-.295-5.16a.469.469,0,0,1,.44-.441H13.407V22.4H-13.119c-.147,0-.3,0-.3-.147l-2.064-3.391a.283.283,0,0,1,.057-.4.283.283,0,0,1,.089-.045l7.219-5.451A6.024,6.024,0,0,0-5.755,8.7,6.517,6.517,0,0,0-7.523,3.1,8.857,8.857,0,0,0-13.269.3l-30.653.885.441,7.515,23.58-.887h4.273a.471.471,0,0,1,.441.441v.433c0,.147,0,.3-.147.3l-10.609,6.777,3.237,5.6v.881a.47.47,0,0,1-.441.441H-58.073v7.531h38.759a.318.318,0,0,1,.3.3l.295.881a24.6,24.6,0,0,1-.295,5.9,11.551,11.551,0,0,1-2.655,5.16A7.2,7.2,0,0,1-25.8,44.951a24.959,24.959,0,0,1-7.811-.887,33.666,33.666,0,0,1-6.632-2.947l-4.423,6.192v.145c2.505,1.179,5.159,2.211,7.219,2.947m9.72,2.505a9.112,9.112,0,0,1-1.913-.147,29.866,29.866,0,0,1-8.093-1.768A40.112,40.112,0,0,1-45.249,47.6c-.145,0-.145-.147-.145-.3v-.583l4.713-6.632a.541.541,0,0,1,.441-.147,20.763,20.763,0,0,0,6.633,2.947,23.638,23.638,0,0,0,7.513.887,6.427,6.427,0,0,0,3.683-2.211,12.265,12.265,0,0,0,2.505-4.713,32.251,32.251,0,0,0,.3-5.6l-.147-.441H-58.515a.469.469,0,0,1-.441-.44V22.107a.469.469,0,0,1,.441-.44h34.927V21.52l-3.391-5.9a.283.283,0,0,1,.057-.4.306.306,0,0,1,.088-.045l10.465-6.632h-3.683l-24.021.887c-.145,0-.441-.147-.441-.3L-44.955.891c0-.145,0-.145.147-.3a.508.508,0,0,1,.295-.145l30.949-.887a9.606,9.606,0,0,1,6.191,3.1A7.5,7.5,0,0,1-5.459,8.851a6.77,6.77,0,0,1-2.655,4.713l-6.928,5.305,1.768,2.947H13.4a.469.469,0,0,1,.441.44v8.093a.47.47,0,0,1-.441.441H-10.619l.3,4.856a24.472,24.472,0,0,1-1.915,7.515,16.947,16.947,0,0,1-4.715,6.192,13.689,13.689,0,0,1-5.6,2.945,34.394,34.394,0,0,1-5.16.591"/>
      </g>
      <g id="g1146" transform="translate(360.986 -8670.822)">
        <path id="path1148" d="M0,0A72.654,72.654,0,0,0,6.192-9.283H-22.54v.589A78.732,78.732,0,0,0-16.065.444a83.564,83.564,0,0,0,7.811,8.4L-7.96,8.7C-5.455,6.045-2.655,3.1,0,0M7.061,32.717C1.611,28.885-3.844,24.907-8.855,20.633c-4.855,4.273-10.019,8.252-15.179,12.084A86.553,86.553,0,0,1-41.127,42.736l-3.095-7.513a83.615,83.615,0,0,0,15.033-9.139c4.856-3.536,9.432-7.219,14-11.051l.295-.887a134.366,134.366,0,0,1-9.873-11.2,56.844,56.844,0,0,1-7.22-12.232H-44.221v-8.252h31.389V-30.653h8.268v13.115H27.561v8.252H15.479A66.5,66.5,0,0,1,8.385,2.8,111.307,111.307,0,0,1-1.327,13.852l-.883.736v.591A163.127,163.127,0,0,0,12.233,26.229a120.62,120.62,0,0,0,15.475,9.433v.591l-3.392,7.075h-.149c-5.9-3.392-11.643-6.779-17.093-10.611" fill="#fff"/>
      </g>
      <g id="g1150" transform="translate(338.713 -8679.64)">
        <path id="path1152" d="M0,0A77.947,77.947,0,0,0,6.337,8.988a79.15,79.15,0,0,0,7.543,8.247c3.391-3.392,5.747-6.192,7.96-8.7a69.3,69.3,0,0,0,5.9-8.7ZM13.84,18.12c-.147,0-.147,0-.3-.145A86.487,86.487,0,0,1,5.735,9.428,105.183,105.183,0,0,1-.74.291V-.445A.469.469,0,0,1-.3-.887H28.432c.145,0,.295,0,.295.145v.3a64.991,64.991,0,0,1-6.191,9.433c-2.209,2.5-4.715,5.3-8.093,8.7l-.3.145c-.145.3-.145.3-.295.3m-.421,11.027c.145,0,.145,0,.3.145,5.159,4.273,10.464,8.4,15.915,12.084A165.391,165.391,0,0,0,46.444,51.7l3.237-6.633v-.295a114.9,114.9,0,0,1-15.325-9.283A175.733,175.733,0,0,1,19.913,24.433c-.145,0-.145-.145-.145-.295v-.591c0-.147,0-.147.145-.3l.883-.736a135.706,135.706,0,0,0,9.712-10.905A63.3,63.3,0,0,0,37.436-.473c0-.145.145-.145.295-.145H49.519V-8.131H17.833a.469.469,0,0,1-.441-.44v-12.82H9.877v12.82a.467.467,0,0,1-.44.44H-21.657v7.52H-9.72a.512.512,0,0,1,.3.145A54.666,54.666,0,0,0-2.205,11.768c3.391,4.273,6.632,7.959,9.712,11.2a.453.453,0,0,1,.145.295l-.295.887a.146.146,0,0,1-.147.145c-4.273,3.683-8.841,7.219-14,11.051a84.962,84.962,0,0,1-14.883,8.988l2.8,6.779A99.66,99.66,0,0,0-2.221,41.4c5.451-3.979,10.611-8.093,15.179-12.084a1.173,1.173,0,0,1,.441-.145M46.577,52.44h-.3A171.45,171.45,0,0,1,29.188,41.976c-5.305-3.683-10.609-7.665-15.781-11.937Q6.555,36.007-1.627,41.976A90.419,90.419,0,0,1-18.72,52h-.295a.147.147,0,0,1-.147-.147l-3.095-7.515a.282.282,0,0,1,.056-.4.314.314,0,0,1,.089-.045A93.019,93.019,0,0,0-7.077,34.756C-1.919,31.075,2.5,27.388,6.775,23.851l.145-.591a129.734,129.734,0,0,1-9.712-11.2A63.93,63.93,0,0,1-10.012-.025H-22.095a.469.469,0,0,1-.441-.44V-8.717a.469.469,0,0,1,.441-.44H9V-21.981a.467.467,0,0,1,.441-.441h8.251a.469.469,0,0,1,.441.441V-9.163H49.819a.471.471,0,0,1,.441.441V-.469a.471.471,0,0,1-.441.441H37.881a77.114,77.114,0,0,1-6.928,11.937A113.771,113.771,0,0,1,21.241,22.96l-.737.592v.295A150.381,150.381,0,0,0,34.8,34.752a117.611,117.611,0,0,0,15.475,9.433c.145,0,.145.145.145.295v.737l-3.391,7.073c-.147,0-.3.145-.441.145"/>
      </g>
      <g id="g1154" transform="translate(239.393 -8641.201)">
        <path id="path1156" d="M0,0H11.2c2.359,0,3.683-.145,4.715-.145h.736a10.165,10.165,0,0,0,10.028-10.3c0-.1,0-.207-.008-.311a9.955,9.955,0,0,0-7.061-9.433,10.194,10.194,0,0,0,10.756-8.987,10.883,10.883,0,0,0-8.409-12.812L.883-47.293a9.494,9.494,0,0,1-1.032-.295h-.3a19.009,19.009,0,0,0-5.9-1.032h-.736A10.383,10.383,0,0,0-17.1-40.073v.295A11.915,11.915,0,0,0-8.109-26.072h.145l20.339,5.009h.145c.3,0,.441.145.737.145H-1.327c-2.947,0-12.233.737-12.38,10.02a9.681,9.681,0,0,0,.592,3.683,3.682,3.682,0,0,0-.592-1.032,4.812,4.812,0,0,0-.885-1.177l-.145-.3-.147-.145-.885-1.032-.147-.145A12.243,12.243,0,0,0-24.9-15.179a14.978,14.978,0,0,0-8.4,2.8l-.591.441-.145.145A31.719,31.719,0,0,1-53.06-2.949a14.069,14.069,0,0,1-7.656-2.215,18.21,18.21,0,0,1-7.369-10.169,26.191,26.191,0,0,1-.736-4.713c0-.736-.145-1.328-.145-2.064L-28.14-39.64c.145,0,.145-.147.295-.147A12.108,12.108,0,0,0-22.1-49.66a13.321,13.321,0,0,0,4.128.591A14.742,14.742,0,0,0-3.065-63.645,14.743,14.743,0,0,0-17.643-78.552c-.208,0-.416,0-.624.007A14.233,14.233,0,0,0-24.9-76.926a14.7,14.7,0,0,0-13.124-7.956A14.859,14.859,0,0,0-52.908-70.049a14.86,14.86,0,0,0,6.044,11.988L-71.476-47.6l-1.473-16.649v-.144a11.655,11.655,0,0,0-12.083-9.58h-1.177A12.221,12.221,0,0,0-95.642-69.4a12.515,12.515,0,0,0-2.505,7.219v.3l4.273,45.391A43.008,43.008,0,0,0-57.325,21.544a45.8,45.8,0,0,0,6.337.405c12.084,0,23.725-5.16,34.781-15.325l.145-.145a12.579,12.579,0,0,0,3.1-12.673C-10.46-1.036-4.124-.153-.016,0" fill="#fff"/>
      </g>
      <g id="g1158" transform="translate(306.741 -8674.213)">
        <path id="path1160" d="M0,0A13.525,13.525,0,0,0-12.675-13.411a13.417,13.417,0,0,0-17.1-8.228A13.419,13.419,0,0,0-38-4.539,13.42,13.42,0,0,0-26.085,4.423a14.025,14.025,0,0,0,5.011,6.633,24.231,24.231,0,0,0-5.747,5.895l-.295.441-.147.147A56.619,56.619,0,0,1-38.019,30.083,91.028,91.028,0,0,1-57.62,43.2L-66.9,41.135c-.3,0-.737-.147-1.032-.147a4.221,4.221,0,0,0-3.237,1.473,4.71,4.71,0,0,0-.887,4.423l4.568,12.949A4.9,4.9,0,0,0-66.017,61.9a16.957,16.957,0,0,0,10.169,3.237,20.068,20.068,0,0,0,7.073-1.177l.887-.295a.147.147,0,0,0,.145-.147,92.637,92.637,0,0,0,13.411-7.664A100.656,100.656,0,0,0-14.293,38.3,62.126,62.126,0,0,0-6.041,25.757,12.2,12.2,0,0,0-8.251,12.051,12.949,12.949,0,0,0,0-.032" fill="#fff"/>
      </g>
      <g id="g1162" transform="translate(252.524 -8665.958)">
        <path id="path1164" d="M0,0,2.945.591a12.6,12.6,0,0,0,2.36.145,6.811,6.811,0,0,0,7.956-5.429l0-.021a6.96,6.96,0,0,0-5.212-8.349c-.08-.019-.16-.036-.239-.051L-13.407-18.42A19.361,19.361,0,0,0-20.185-19.6a6.439,6.439,0,0,0-6.356,5.3,7.968,7.968,0,0,0,6.171,9.429l.02,0Z" fill="#d184a8"/>
      </g>
      <g id="g1166" transform="translate(232.91 -8688.652)">
        <path id="path1168" d="M0,0H-.591A9.143,9.143,0,0,0-9.579,7.665V7.96A10.971,10.971,0,0,0-1.327,20.5h.145l20.192,4.991h.147c1.619.295,2.359.441,3.237.591a16.06,16.06,0,0,0,2.655.145h1.2a9.646,9.646,0,0,0,9.873-8.093A10.189,10.189,0,0,0,28.456,6.349L6.94,1.34a4.324,4.324,0,0,0-1.327-.3A18.784,18.784,0,0,0,0,0M0,2.945A26.691,26.691,0,0,1,6.192,4.124l21.22,5.305a7.041,7.041,0,0,1,5.468,8.321c-.005.027-.012.053-.017.08a6.551,6.551,0,0,1-6.928,5.6H24.9a13.421,13.421,0,0,1-2.359-.147c-.736-.145-1.619-.295-2.947-.589L-.587,17.684A7.741,7.741,0,0,1-6.876,8.723c.028-.157.06-.315.1-.472A6.44,6.44,0,0,1-.441,2.945Z"/>
      </g>
      <g id="g1170" transform="translate(294.208 -8660.212)">
        <path id="path1172" d="M0,0A7.736,7.736,0,0,0-2.655-.591C-6.928-.736-8.845,2.064-11.5,5.747a65.269,65.269,0,0,1-11.5,13.411A102.821,102.821,0,0,1-44.655,33.6l-10.611-2.36h-.145c-.145,0-.3,0-.3.147a.539.539,0,0,0-.145.44l4.569,12.949c0,.145,0,.145.145.145a12.544,12.544,0,0,0,7.664,2.36,17.16,17.16,0,0,0,5.6-.883l.881-.295a83,83,0,0,0,12.949-7.369,97.052,97.052,0,0,0,19.307-16.8,64.069,64.069,0,0,0,7.664-11.5A7.605,7.605,0,0,0,.123.051C.077.024.031,0-.016-.028" fill="#b3ffd8"/>
      </g>
      <g id="g1174" transform="translate(291.287 -8663.721)">
        <path id="path1176" d="M0,0C-5.305,0-7.96,3.683-10.611,7.22l-.295.295-.147.145A67.217,67.217,0,0,1-21.957,20.48,95.847,95.847,0,0,1-42,34.036l-9.579-2.209c-.3,0-.441-.145-.736-.145a3.371,3.371,0,0,0-3.307,3.435,3.354,3.354,0,0,0,.211,1.109l4.568,12.949a2.711,2.711,0,0,0,1.032,1.473,14.845,14.845,0,0,0,9.433,3.1A18.63,18.63,0,0,0-33.6,52.565l.3-.145a7,7,0,0,1,.736-.295A84.921,84.921,0,0,0-19.3,44.611,98.6,98.6,0,0,0,.591,27.367,63.913,63.913,0,0,0,8.684,15.135,10.678,10.678,0,0,0,4.411.972,7.958,7.958,0,0,0,.579.089,1.1,1.1,0,0,0-.012-.056m0,2.973H.279a5.409,5.409,0,0,1,2.655.591A7.735,7.735,0,0,1,5.88,13.824a64.129,64.129,0,0,1-7.664,11.5,102.088,102.088,0,0,1-19.307,16.8A88.357,88.357,0,0,1-34.04,49.491l-.883.295a13.954,13.954,0,0,1-5.6.887,12.546,12.546,0,0,1-7.665-2.359l-.145-.147L-52.9,35.219a.542.542,0,0,1,.145-.441c.145-.145.145-.145.295-.145h.147l10.609,2.359A95.707,95.707,0,0,0-20.043,22.548,62.107,62.107,0,0,0-8.547,9.137C-5.892,5.747-3.977,2.945,0,2.945"/>
      </g>
      <g id="g1178" transform="translate(250.011 -8645.029)">
        <path id="path1180" d="M0,0C3.237,0,4.568-.145,5.6-.145a6.327,6.327,0,0,0,6.34-6.311c0-.055,0-.109,0-.164-.145-3.832-2.8-5.9-7.073-6.192H-11.5c-4.715-.145-9.137.883-9.137,6.041,0,5.452,4.568,6.779,10.019,6.779Z" fill="#dbaac0"/>
      </g>
      <g id="g1182" transform="translate(237.758 -8660.952)">
        <path id="path1184" d="M0,0C-10.169,0-11.331,6.336-11.331,8.988c0,4.423,2.209,9.711,12.82,9.711h11.2c2.359,0,3.683-.145,4.568-.145H18A9.37,9.37,0,0,0,27.112,9C26.967,3.691,23.28.449,17.239-.141H.607A.89.89,0,0,1,.016,0M0,2.953H17.243c4.273.3,7.073,2.36,7.073,6.192a6.319,6.319,0,0,1-6.165,6.472l-.172,0c-1.031,0-2.209.145-5.159.145H1.619c-5.305,0-10.02-1.327-10.02-6.777,0-4.856,3.979-6.043,8.4-6.043"/>
      </g>
      <g id="g1186" transform="translate(290.676 -8683.201)">
        <path id="path1188" d="M0,0A9.431,9.431,0,0,0-9.577-9.285,9.431,9.431,0,0,0-18.863.291,9.432,9.432,0,0,0-9.433,9.579a11.537,11.537,0,0,0,2.36-.3V9.137A9.67,9.67,0,0,1,0,0" fill="#dbaac0"/>
      </g>
      <g id="g1190" transform="translate(281.247 -8695.434)">
        <path id="path1192" d="M0,0A12.379,12.379,0,0,0-12.379,12.379,12.378,12.378,0,0,0,0,24.757a11.209,11.209,0,0,0,3.1-.441,3.006,3.006,0,0,0,2.209-2.945v-.147a6.474,6.474,0,0,1,4.856-6.191,3.008,3.008,0,0,0,2.209-2.947A12.4,12.4,0,0,0-.008,0M0,2.945a9.47,9.47,0,0,1,9.433,9.284,9.5,9.5,0,0,0-7.075,9.137v.145A12.881,12.881,0,0,1,0,21.807a9.432,9.432,0,0,1-9.627-9.235A9.434,9.434,0,0,1-.391,2.945c.131,0,.26,0,.391,0"/>
      </g>
      <g id="g1194" transform="translate(293.185 -8683.643)">
        <path id="path1196" d="M0,0A11.512,11.512,0,0,0-2.359.3,9.5,9.5,0,0,0-9.433,9.433v.145A9.433,9.433,0,0,0,.144,18.864,9.433,9.433,0,0,0,9.431,9.287,9.433,9.433,0,0,0,0,0" fill="#d184a8"/>
      </g>
      <g id="g1198" transform="translate(293.185 -8686.588)">
        <path id="path1200" d="M0,0A11.209,11.209,0,0,0-3.1.441a12.43,12.43,0,0,0-9.283,11.937v.3A12.384,12.384,0,0,0,.292,24.763,12.383,12.383,0,0,0,12.38,12.092,12.384,12.384,0,0,0,0,0M0,2.945A9.435,9.435,0,0,1,9.432,12.38,9.435,9.435,0,0,1,0,21.812a9.434,9.434,0,0,1-9.431-9.287v-.147A9.342,9.342,0,0,1-2.359,3.241,11.512,11.512,0,0,1,0,2.945"/>
      </g>
      <g id="g1202" transform="translate(221.118 -8648.421)">
        <path id="path1204" d="M0,0-.736-1.032A8.973,8.973,0,0,0-12.82-1.768l-.591.441C-25.348,8.547-35.959,11.052-44.947,5.6A23.7,23.7,0,0,1-54.084-6.944a49.525,49.525,0,0,1-.885-5.305c-.147-1.619-.147-3.391-.3-5.009l3.979-1.619,39.495-16.948a9.309,9.309,0,0,0,2.947-11.2L-12.083-54.1A12.047,12.047,0,0,1-18.861-51c-.887.145-.887,1.473-1.619,1.328l-2.359.885-30.5,12.82L-56.88-34.5l-.441-4.273L-58.94-56.455a7.95,7.95,0,0,0-8.987-6.191,7.9,7.9,0,0,0-8.092,7.709c0,.033,0,.067,0,.1l4.4,45.4A38.8,38.8,0,0,0-38.46,24.9c14.739,2.208,27.113-4.128,37.728-13.852A8.53,8.53,0,0,0,.887,1.032,6.293,6.293,0,0,1,0,0" fill="#b3ffd8"/>
      </g>
      <g id="g1206" transform="translate(154.215 -8714)">
        <path id="path1208" d="M0,0H-1.032A10.823,10.823,0,0,0-11.937,10.743v.309l4.273,45.391A41.621,41.621,0,0,0,28,93.433a43.8,43.8,0,0,0,6.2.449,49.784,49.784,0,0,0,34.04-15.033l.145-.147a11.452,11.452,0,0,0,2.064-13.556,4.784,4.784,0,0,0-.887-1.177l-.145-.145-.145-.147-.737-1.032-.145-.145a11.164,11.164,0,0,0-8.251-3.832,13.688,13.688,0,0,0-7.811,2.655l-.591.441-.137.149A32.835,32.835,0,0,1,31.847,70.9a15.283,15.283,0,0,1-8.251-2.36,19.786,19.786,0,0,1-7.811-10.756c-.295-1.619-.736-3.236-.885-4.713a14.191,14.191,0,0,1-.145-2.505v-.295l1.9-.9L56.147,32.421c.147,0,.147-.145.3-.145a11.986,11.986,0,0,0,4.128-15.033l-3.237-7.073a2.835,2.835,0,0,0-2.064-1.619h-.591a2.8,2.8,0,0,0-1.915.736,9.752,9.752,0,0,1-5.159,2.359,3.972,3.972,0,0,0-2.8,1.619L42.741,14h-.147L12.679,26.951v-.3L11.06,8.972V8.825A10.615,10.615,0,0,0,0,0M0,2.945A7.641,7.641,0,0,1,8.093,9.137L9.712,26.821l.441,4.273,3.536-1.473L43.9,16.672l2.359-.887h.145c.737,0,.737-1.327,1.619-1.327a11.161,11.161,0,0,0,6.807-3.128L58.069,18.4a9.243,9.243,0,0,1-2.945,11.2L15.467,46.7l-3.979,1.619c.147,1.62.147,3.239.3,5.011s.591,3.536.887,5.305a23.687,23.687,0,0,0,9.137,12.544,18.241,18.241,0,0,0,9.873,2.8c6.475,0,13.852-3.391,21.661-9.712l.591-.44a10.923,10.923,0,0,1,6.043-2.064,8.177,8.177,0,0,1,6.041,2.8l.736,1.032a10.009,10.009,0,0,0,.737,1.032,8.528,8.528,0,0,1-1.619,10.019A46.806,46.806,0,0,1,33.9,90.936a37.691,37.691,0,0,1-5.747-.441A38.659,38.659,0,0,1-4.707,56.159l-4.285-45.4A7.9,7.9,0,0,1-1,2.944H0Z"/>
      </g>
      <g id="g1210" transform="translate(211.985 -8711.199)">
        <path id="path1212" d="M0,0A11.1,11.1,0,0,0-10.907-11.291,11.1,11.1,0,0,0-22.2-.384,11.1,11.1,0,0,0-11.291,10.907,11.1,11.1,0,0,0-1.915,6.041,11,11,0,0,1-.145.3C0,.149,0,.149,0,0" fill="#d184a8"/>
      </g>
      <g id="g1214" transform="translate(201.079 -8725.035)">
        <path id="path1216" d="M0,0A13.852,13.852,0,0,0-13.795,13.909,13.849,13.849,0,0,0,.113,27.7,13.848,13.848,0,0,0,11.5,21.663a2.968,2.968,0,0,0,.441-1.619,7.68,7.68,0,0,1,1.324-4.277,2.976,2.976,0,0,0,.44-1.62v-.44A13.583,13.583,0,0,0,.256-.016c-.085,0-.171,0-.256,0M0,2.931A10.881,10.881,0,0,1,10.905,13.787v.36a9.833,9.833,0,0,0-1.768,5.747A10.848,10.848,0,0,1-5.9,22.945a10.846,10.846,0,0,1-4.857-9.093A10.664,10.664,0,0,1-.339,2.948c.112,0,.225,0,.339,0"/>
      </g>
      <g id="g1218" transform="translate(220.972 -8715.769)">
        <path id="path1220" d="M0,0A10.786,10.786,0,0,0-8.988,4.856,9.833,9.833,0,0,0-10.756,10.6V10.9a10.906,10.906,0,0,0,21.812,0A11.1,11.1,0,0,0,0,0" fill="#dbaac0"/>
      </g>
      <g id="g1222" transform="translate(220.972 -8718.715)">
        <path id="path1224" d="M0,0A13.926,13.926,0,0,0-11.5,6.041a14.536,14.536,0,0,0-2.36,7.369v.441A13.852,13.852,0,0,0,0,27.7,13.853,13.853,0,0,0,13.848,13.852,13.852,13.852,0,0,0,0,0M0,2.945A10.907,10.907,0,0,1,10.905,13.852,10.906,10.906,0,0,1,0,24.757,10.906,10.906,0,0,1-10.905,13.852v-.3A10.785,10.785,0,0,1,0,2.945"/>
      </g>
      <g id="g1226" transform="translate(363.038 -8739.955)">
        <path id="path1228" d="M0,0A2.642,2.642,0,0,1-2.655-2.631v-.024A2.375,2.375,0,0,0-4.128-4.719a2.319,2.319,0,0,0-2.5.591,2.109,2.109,0,0,0-.591,1.473A2.643,2.643,0,0,1-9.853,0h-.024a2.3,2.3,0,0,0-2.211,2.36A2.17,2.17,0,0,0-9.96,4.569h.083A2.643,2.643,0,0,1-7.223,7.2v.024A2.491,2.491,0,0,0-5.9,9.287a1.872,1.872,0,0,0,.887.147A2.373,2.373,0,0,0-3.391,8.7,2.217,2.217,0,0,0-2.8,7.079,2.643,2.643,0,0,1-.171,4.423h.025A2.267,2.267,0,0,0,2.064,2.213,1.909,1.909,0,0,0,.487.021,1.919,1.919,0,0,0,0,0"/>
      </g>
      <g id="g1230" transform="translate(197.397 -8742.443)">
        <path id="path1232" d="M0,0H-3.237C-4.564-.145-5.005-1.915-5.152-2.505c0-.145,0-.145-.145-.295V-5.009c0-.592-.591-1.032-1.473-1.032s-1.472.44-1.472,1.032v2.359A2.7,2.7,0,0,1-10.012-.145h-3.536c-.887,0-1.473.44-1.473,1.032s.591,1.031,1.473,1.031h3.536c1.179.3,1.619,1.915,1.619,2.505V6.908c0,.591.592,1.032,1.473,1.032S-5.447,7.5-5.447,6.908V4.7c0-.145.145-.145.145-.295A2.937,2.937,0,0,1-3.683,1.9H-.145C.74,1.9,1.327,1.456,1.327.865S.736-.02,0-.02" fill="#040000"/>
      </g>
      <g id="g1234" transform="translate(350.343 -8754.086)">
        <path id="path1236" d="M0,0H-3.1C-4.715-.591-5.305-4.856-5.455-6.475H-5.6v-5.167a.605.605,0,0,0-.46-.72.605.605,0,0,0-.719.46.611.611,0,0,0,0,.26v5.159c0,1.619-.591,5.9-2.359,6.475h-3.237A.757.757,0,0,0-12.937.9a.758.758,0,0,0,.563.563h3.391C-7.511,2.352-6.92,6.321-6.92,7.94v5.175a.6.6,0,0,0,.459.719.6.6,0,0,0,.719-.459.571.571,0,0,0,0-.26V7.96H-5.6c0-1.619.591-5.6,2.063-6.475H-.141A.676.676,0,0,0,.449.749C.449.308.3.012.008.012" fill="#fff"/>
      </g>
      <g id="g1238" transform="translate(344.156 -8767.938)">
        <path id="path1240" d="M0,0A2.141,2.141,0,0,0-2.064,2.209v5.16a12.16,12.16,0,0,1-1.177,5.009h-2.8a2.217,2.217,0,0,0-2.048,2.375A2.219,2.219,0,0,0-6.041,16.8h2.8a13.687,13.687,0,0,1,1.177,5.009v5.159A2.069,2.069,0,0,0-.129,29.164a2.069,2.069,0,0,0,2.193-1.935,2.093,2.093,0,0,0,0-.259V22.256a.54.54,0,0,1,.145-.44,11.227,11.227,0,0,1,1.177-5.011h2.8a2.217,2.217,0,0,0,0-4.423h-2.8A10.69,10.69,0,0,1,2.209,7.373a.543.543,0,0,0-.145-.441V2.209A2.14,2.14,0,0,0,0,0M0,1.473a.675.675,0,0,1,.591.736v5.16H.74c0,1.619.592,5.9,2.36,6.475H6.2a.756.756,0,0,1,0,1.472H2.8C1.332,16.2.74,20.172.74,21.791H.595v5.16a.6.6,0,0,1-.459.719.6.6,0,0,1-.719-.459.611.611,0,0,1,0-.26V21.812c0-1.619-.591-5.6-2.064-6.476H-6.037a.755.755,0,0,1-.563-.909.756.756,0,0,1,.563-.563H-2.8c1.619-.591,2.209-4.856,2.359-6.475V2.209c-.295-.441,0-.736.441-.736"/>
      </g>
      <g id="g1242" transform="translate(119.434 -8634.128)">
        <path id="path1244" d="M0,0A34.675,34.675,0,0,1-3.537-10.611a22.282,22.282,0,0,1,0-4.423,12.361,12.361,0,0,1,1.179-4.423A8.088,8.088,0,0,1-.445-22.111a11.84,11.84,0,0,1,2.655-1.768A9.3,9.3,0,0,1,5.6-24.611a13.3,13.3,0,0,1,3.392.44,9.345,9.345,0,0,1,3.536,2.8,32.374,32.374,0,0,1,2.505,3.683,12.027,12.027,0,0,1,2.8-1.327,9.56,9.56,0,0,1,2.947-.592,7.525,7.525,0,0,1,3.095.441,23.366,23.366,0,0,1,3.237,1.915,11.036,11.036,0,0,1,2.211,2.945,9.534,9.534,0,0,1,.736,3.979,13.215,13.215,0,0,1-1.032,3.977A17.408,17.408,0,0,1,22.985,1.02a39.3,39.3,0,0,1-8.7,5.009L5.743,9.567A86.7,86.7,0,0,1,0-.012" fill="#dbaac0"/>
      </g>
      <g id="g1246" transform="translate(146.093 -8642.823)">
        <path id="path1248" d="M0,0A28.73,28.73,0,0,1-1.327,2.945a26.3,26.3,0,0,1-2.064,2.36,30.582,30.582,0,0,1-8.672,5.308c-2.505,1.032-5.16,1.915-7.665,2.947L-21.055,14l-2.655-4.856a43.089,43.089,0,0,1-3.1-8.988A20.516,20.516,0,0,1-27.1-8.831a6.07,6.07,0,0,1,2.8-3.977,7.234,7.234,0,0,1,2.655-.736,4.052,4.052,0,0,1,1.327.145l1.915,1.327a13.442,13.442,0,0,1,1.913,3.239c.3.736.441,1.472.737,2.209a13,13,0,0,1,.736,2.208,1.5,1.5,0,0,0,.737.883,1.252,1.252,0,0,0,1.177,0l3.237-1.472A30.8,30.8,0,0,1-6.475-6.184a7.44,7.44,0,0,1,1.768-.295,2.514,2.514,0,0,1,1.032.145A6.036,6.036,0,0,1-.728-3.828,4.594,4.594,0,0,1,.008,0M6.353-5.3h0A11.34,11.34,0,0,0,3.848-9.279.146.146,0,0,0,3.7-9.425h0A15.906,15.906,0,0,0-.129-12.08a8.657,8.657,0,0,0-3.832-.881H-4.7a19.209,19.209,0,0,0-3.237.44h-.153c-.736.3-1.473.441-2.209.737a25.933,25.933,0,0,0-2.064-3.391,13.154,13.154,0,0,0-4.273-3.832h-.145a13.949,13.949,0,0,0-4.273-1.032h-.887a9.9,9.9,0,0,0-3.536.591h-.147a9.67,9.67,0,0,0-3.536,2.063,7.928,7.928,0,0,0-2.8,3.1,16.116,16.116,0,0,0-1.769,5.305,43.072,43.072,0,0,0-.591,5.6l.147,1.328a31.346,31.346,0,0,0,3.237,11.2c1.472,3.391,3.237,7.22,5.6,11.788a1.546,1.546,0,0,0,1.327.736h.441L-13.395,18.4A59.273,59.273,0,0,0-2.784,13.265a22.2,22.2,0,0,0,8.093-8.4A15.37,15.37,0,0,0,6.928-.145a12.681,12.681,0,0,0-.591-5.16" fill="#d184a8"/>
      </g>
      <g id="g1250" transform="translate(123.266 -8653.009)">
        <path id="path1252" d="M0,0A6.079,6.079,0,0,1,1.177-.441,1.726,1.726,0,0,1,2.8.3l.3.591q.222.44.885,2.209c.3,1.032.3,1.327.441,1.768a12.281,12.281,0,0,0,.591,1.768,4.678,4.678,0,0,0,2.36,2.655,3.757,3.757,0,0,0,3.536,0l3.237-1.473a14.233,14.233,0,0,1,2.947-1.032h.145a1.87,1.87,0,0,1,.887-.144h.145c.736.144,1.327.44,1.473,1.031a2.781,2.781,0,0,1,0,1.915A4.737,4.737,0,0,1,18.561,11.5a19.932,19.932,0,0,1-1.768,1.768,25.638,25.638,0,0,1-7.515,4.568c-2.064.887-4.273,1.619-6.475,2.36L1.489,17.7A48.731,48.731,0,0,1-1.619,9.161a17.846,17.846,0,0,1-.129-7.373C-1.012,1.2-.571.461.02.02M.891-12.961a15.483,15.483,0,0,0-4.424.736h-.444A19.61,19.61,0,0,0-8.4-9.72a12.336,12.336,0,0,0-3.391,4.128A21.884,21.884,0,0,0-13.856.6a22.808,22.808,0,0,0-.437,5.759c0,.591.147,1.327,0,1.177a37.014,37.014,0,0,0,3.537,12.949c1.473,3.537,3.391,7.369,5.747,11.937A4.306,4.306,0,0,0-1.032,34.78,4.1,4.1,0,0,0,.3,34.636L10.464,31.4h.147a59.346,59.346,0,0,0,11.051-5.451A25.889,25.889,0,0,0,30.8,16.368a17.3,17.3,0,0,0,1.915-5.9,14.435,14.435,0,0,0-.737-6.632c0-.145,0-.145-.145-.295a17.911,17.911,0,0,0-2.945-4.715c-.147-.145-.147-.3-.3-.3A21.471,21.471,0,0,0,24.167-4.7a.146.146,0,0,1-.145-.145,14.378,14.378,0,0,0-5.16-1.177h-.732a27.129,27.129,0,0,0-3.979.441c-.145,0-.295,0-.295.145-.3-.441-.591-1.032-.887-1.473a16.642,16.642,0,0,0-5.305-4.856.508.508,0,0,1-.295-.145,15.525,15.525,0,0,0-5.305-1.181,3.665,3.665,0,0,1-1.177.145m.885,37.144,1.336-.465c2.505-.887,5.159-1.913,7.664-2.945a30.6,30.6,0,0,0,8.684-5.289,26.078,26.078,0,0,0,2.064-2.359,8.788,8.788,0,0,0,1.177-2.36,8.153,8.153,0,0,0,.147-3.832,3.717,3.717,0,0,0-2.655-2.655,8.464,8.464,0,0,0-1.769-.145,7.363,7.363,0,0,0-1.768.295,31.074,31.074,0,0,0-3.391,1.177L10.024,7.089a1.255,1.255,0,0,1-1.179,0A.934.934,0,0,1,8.109,6.2c-.295-.736-.441-1.472-.736-2.208a12.919,12.919,0,0,1-.737-2.211A21.39,21.39,0,0,0,4.573-1.9,4.3,4.3,0,0,0,1.336-3.371a5.99,5.99,0,0,0-2.655.736,6.477,6.477,0,0,0-2.8,3.977,20.537,20.537,0,0,0,.3,8.988,58.605,58.605,0,0,0,3.1,8.988l2.5,4.856M.887-10h.885A13.969,13.969,0,0,1,6.045-8.968h.147a11.839,11.839,0,0,1,4.272,3.832,25.891,25.891,0,0,1,2.064,3.392,12.824,12.824,0,0,1,2.209-.736h.147a19.04,19.04,0,0,1,3.237-.441h.736a8.652,8.652,0,0,1,3.832.881A21.49,21.49,0,0,1,26.521.615l.147.145a15.8,15.8,0,0,1,2.359,3.979v.145a13.1,13.1,0,0,1,.591,5.305A15.37,15.37,0,0,1,28,15.2a20.234,20.234,0,0,1-8.093,8.4A59.279,59.279,0,0,1,9.295,28.76L-.724,32h-.453a1.549,1.549,0,0,1-1.328-.737c-2.359-4.568-4.127-8.251-5.6-11.788A35.162,35.162,0,0,1-11.343,7.535V6.652a35,35,0,0,1,.441-5.3A15.822,15.822,0,0,1-9.133-4.1a9.428,9.428,0,0,1,2.8-3.236A17.016,17.016,0,0,1-2.8-9.4h.145A9.931,9.931,0,0,1,.887-10" fill="#040000"/>
      </g>
      <g id="g1254" transform="translate(146.555 -8610.527)">
        <path id="path1256" d="M0,0A35.416,35.416,0,0,1-6.779-8.841a20.61,20.61,0,0,1-1.327-4.273,15.605,15.605,0,0,1-.3-4.569,8.524,8.524,0,0,1,1.032-3.1,14.141,14.141,0,0,1,1.915-2.5A8.312,8.312,0,0,1-2.509-24.9a12.6,12.6,0,0,1,3.392-.592,11.377,11.377,0,0,1,4.273,1.473,19.647,19.647,0,0,1,3.536,2.8c.737-.881,1.473-1.473,2.209-2.209A7.733,7.733,0,0,1,13.556-24.9a6.452,6.452,0,0,1,3.1-.592,9.224,9.224,0,0,1,6.632,3.1A8.3,8.3,0,0,1,25.2-18.861a12.43,12.43,0,0,1,.295,4.128A17.64,17.64,0,0,1,22.1-5.747a40.439,40.439,0,0,1-6.632,7.515L8.4,7.809C5.6,5.156,2.651,2.651,0,0" fill="#dbaac0"/>
      </g>
      <g id="g1258" transform="translate(162.761 -8638.247)">
        <path id="path1260" d="M0,0A12.057,12.057,0,0,0-3.977.736,15.439,15.439,0,0,0-7.073,2.5l-.145.147-.441.44A15.225,15.225,0,0,1-9.279,1.915,12.145,12.145,0,0,0-14.729,0h-.3A14.472,14.472,0,0,0-19.3.736a11.262,11.262,0,0,0-3.832,2.209l-.145.145a14.515,14.515,0,0,0-2.505,3.239,12.174,12.174,0,0,0-1.327,4.127,21.376,21.376,0,0,0,.295,5.305,27.912,27.912,0,0,0,1.473,4.569.146.146,0,0,0,.145.145h0a35.963,35.963,0,0,0,7.073,9.432c2.36,2.209,5.011,4.569,8.252,7.369a2.856,2.856,0,0,0,3.832,0l6.777-5.9.147-.145a52.736,52.736,0,0,0,6.777-7.664A19.077,19.077,0,0,0,11.5,13.552a14.168,14.168,0,0,0-.44-5.009A10.709,10.709,0,0,0,8.551,3.973l-.145-.145A15.852,15.852,0,0,0,4.868,1.173c-.145,0-.145-.145-.295-.145A26.018,26.018,0,0,0,.3,0H0M0,2.937H.149a15.2,15.2,0,0,1,3.537.736,12.509,12.509,0,0,1,2.8,2.064A11.157,11.157,0,0,1,8.4,9.129,11.55,11.55,0,0,1,8.7,13.107a18.386,18.386,0,0,1-3.237,8.7A49.436,49.436,0,0,1-.879,29.023l-6.777,5.9c-2.8-2.36-5.6-4.715-8.252-7.369a29.81,29.81,0,0,1-6.34-8.539,26.81,26.81,0,0,1-1.473-4.127,14.635,14.635,0,0,1-.3-4.424,7.863,7.863,0,0,1,1.032-2.945,7.142,7.142,0,0,1,1.915-2.36,9.163,9.163,0,0,1,2.8-1.619,11.542,11.542,0,0,1,3.237-.591,8.757,8.757,0,0,1,4.128,1.473A19.15,19.15,0,0,1-7.515,7.073,14.72,14.72,0,0,1-5.305,5.009,14.1,14.1,0,0,1-2.8,3.536,5.894,5.894,0,0,1,0,2.945" fill="#040000"/>
      </g>
      <g id="g1262" transform="translate(149.205 -8613.493)">
        <path id="path1264" d="M0,0A20,20,0,0,1-4.423-6.041c-.3-.883-.591-1.768-.887-2.8a10.673,10.673,0,0,1-.145-3.1A3.912,3.912,0,0,1-4.719-14,4.6,4.6,0,0,1-3.391-15.62,9.305,9.305,0,0,1-1.327-16.8a6.081,6.081,0,0,1,2.359-.441c1.032.145,1.473,1.619,2.359,2.064.887.591,1.915.591,2.655,1.327.441-.591,2.36-.441,2.947-.881.591-.3,1.032-1.473,1.619-1.62.885-.44,1.032-.885,1.032-.885a15.358,15.358,0,0,1,2.5.591,9.428,9.428,0,0,1,1.915,1.473,7.457,7.457,0,0,1,1.327,2.359,8.7,8.7,0,0,1,.147,2.8,12.189,12.189,0,0,1-2.36,5.9A29.242,29.242,0,0,1,10.607.893l-4.715,3.1A31.784,31.784,0,0,1,0,.012" fill="#7f80af"/>
      </g>
      <g id="g1266" transform="translate(165.562 -8618.374)">
        <path id="path1268" d="M0,0A14.805,14.805,0,0,0,2.655-6.928a7.865,7.865,0,0,0-.145-2.655v-.145a3.515,3.515,0,0,0-.887-1.619l-.445-.429a6.978,6.978,0,0,0-1.327-.887c-.147-.145-.441-.145-.591-.295A6.171,6.171,0,0,0-2.8-13.4h-.441a2.519,2.519,0,0,0-.736.295.147.147,0,0,0-.147.147h-.145c-.145.145-.591.295-1.327.736-.147,0-.147.145-.3.145-.441.441-1.177,1.032-1.768,1.619-.887.737-1.328,1.179-2.209,1.179h-.3a3.6,3.6,0,0,1-2.655-1.179,18.341,18.341,0,0,0-2.655-2.064,7.912,7.912,0,0,0-1.619-.736,15.628,15.628,0,0,0-1.619-.145,3.551,3.551,0,0,0-1.327.295h-.147a6.038,6.038,0,0,0-1.327.737c-.145.145-.3.145-.3.295-.44.592-.736.887-1.031,1.328s-.3.736-.441.883a3.487,3.487,0,0,0-.3,1.177,8.328,8.328,0,0,0,.3,3.237,20.56,20.56,0,0,0,.885,2.8,13.56,13.56,0,0,1,.737,1.473,27.623,27.623,0,0,0,5.305,6.632c1.177,1.177,2.5,2.359,3.832,3.537a3.471,3.471,0,0,0,1.913.736A3.1,3.1,0,0,0-8.7,8.992l2.505-2.211a.145.145,0,0,0,.145-.145A41.08,41.08,0,0,0,0,0M-2.359-10.74a1.8,1.8,0,0,1,1.327.441,4.889,4.889,0,0,1,.887.885A3.477,3.477,0,0,1,.149-8.235v1.619A9.112,9.112,0,0,1-1.323-2.193,17.427,17.427,0,0,1-3.237.461,33.092,33.092,0,0,1-9.869,6.652h-.591c-1.328-1.177-2.655-2.359-3.833-3.536a25.1,25.1,0,0,1-5.159-6.8,17.09,17.09,0,0,1-.887-2.209,3.17,3.17,0,0,1-.295-1.473v-.591a5.25,5.25,0,0,1,.295-1.473c.145-.145.3-.591.591-.736s.3-.3.441-.3.3-.145.441-.295c.295-.145.441,0,.736,0a1.946,1.946,0,0,1,1.032.441c.887.591,2.209,1.473,3.1,2.209A14.435,14.435,0,0,0-11.5-6.777a4.305,4.305,0,0,0,2.359.144A8.19,8.19,0,0,0-6.928-7.809c.887-.737,2.064-1.769,2.505-2.064a4.51,4.51,0,0,0,1.032-.737c.145-.145.295-.145.591-.145h.295" fill="#040000"/>
      </g>
      <g id="g1270" transform="translate(578.485 -8635.483)">
        <path id="path1272" d="M0,0-2.655-.145V-3.2A7.784,7.784,0,0,0-2.8-4.969l.736.3C1.768-3.2,3.387-2.76,4.128-2.464A33.788,33.788,0,0,1,0,.04M-18.275-20.484c-.591,0-1.177.145-1.619.145a13.121,13.121,0,0,0-8.841,5.451,12.207,12.207,0,0,0-5.011-5.9,21.283,21.283,0,0,0,5.16.591,24.083,24.083,0,0,0,10.315-2.359ZM100.51-27.675a8.908,8.908,0,0,0-5.9-2.211,10.953,10.953,0,0,0-3.683.737l-7.664,3.237a11.886,11.886,0,0,1-3.537-1.328c-.591-.295-1.619-1.177-2.655-1.913L76.93-29.3c-.591-.441-1.328-.887-1.915-1.328l-.591-.441a11.314,11.314,0,0,0-1.913-1.327c-.147-.145-.3-.145-.441-.3a17.086,17.086,0,0,0-9.137-2.945h-.3a8.374,8.374,0,0,0-1.913.145l-.737-4.568c-.295-1.328-.44-2.36-.591-3.392A13.165,13.165,0,0,0,47.313-54.059c-.591,0-1.177-.147-1.619-.147a10.53,10.53,0,0,0-2.8.3,14.264,14.264,0,0,0-12.911,15.5,14.618,14.618,0,0,0,.236,1.593v.295l1.032,6.632a13.483,13.483,0,0,0-10.315,6.633,16.144,16.144,0,0,0-7.515-6.779c-.145-.145-.3-.145-.591-.295l-7.664-3.1c-.147,0-.3-.145-.441-.145l-1.177-.441c-.147-.145-.441-.145-1.032-.295H2.371a1.611,1.611,0,0,0-.736-.147,16.189,16.189,0,0,0-5.16-.736,9.068,9.068,0,0,0-2.063.145,23.708,23.708,0,0,0,1.472-4.568A25.088,25.088,0,0,0-22.685-69.38a22.122,22.122,0,0,0-5.451-.591,24.626,24.626,0,0,0-21.516,12.82l-29.031-6.632c-1.177-.3-1.915-.441-2.36-.592a23.451,23.451,0,0,0-5.009-.591,14.166,14.166,0,0,0-14.443,11.788C-102.262-44.631-97.548-38-88.116-35.639a1.629,1.629,0,0,0,.737.145l21.957,5.009L-79.273-12.945l-7.073,1.177a9.206,9.206,0,0,0-7.532,10.62A9.2,9.2,0,0,0-90.62,4.444l9.432,7.809a11.361,11.361,0,0,0,3.237,1.913A12,12,0,0,0-72.5,15.2h1.473a18.313,18.313,0,0,0,11.5-4.423,14.011,14.011,0,0,0,2.36,5.747,13.8,13.8,0,0,0,8.547,5.6A9.791,9.791,0,0,0-46.415,32l5.747,6.191.591.591a15.145,15.145,0,0,0,10.464,3.683,17.491,17.491,0,0,0,11.5-4.569l.44-.44a29.565,29.565,0,0,0,4.128-5.009,58.7,58.7,0,0,0,5.009-8.252,16.67,16.67,0,0,0,11.5,4.423c6.041,0,12.544-2.655,21.22-8.7a63.372,63.372,0,0,0,6.337-5.009,25.806,25.806,0,0,0,1.915-1.769l.736-.736,2.209-2.359c.441-.441,1.032-1.179,1.913-2.211l.441,3.1a15.651,15.651,0,0,0,12.82,12.949,1.874,1.874,0,0,1,.883.147s1.913.145,2.064.145h.44A15.42,15.42,0,0,0,61.6,21.516,14.565,14.565,0,0,0,67.793,8.105l-.145-1.032a14.569,14.569,0,0,0-.3-2.655c0-.295-.145-.736-.145-1.327l-.736-4.128a46.019,46.019,0,0,0,9.579,3.979A27.045,27.045,0,0,0,83.713,4.12H84.89A16.747,16.747,0,0,0,92.7,2.056a17.561,17.561,0,0,0,4.568-3.537A19.223,19.223,0,0,0,101.1-8.259l.883-3.1c0-.145.145-.441.145-.591L103.6-18.42a9.462,9.462,0,0,0-3.1-9.283"/>
      </g>
      <g id="g1274" transform="translate(577.619 -8642.893)">
        <path id="path1276" d="M0,0A34.249,34.249,0,0,0,6.475,2.209c.3,0,.736.147,1.473.147h2.359a10.568,10.568,0,0,0,3.683-1.032A48.15,48.15,0,0,1,1.611,10.461l-5.451-.3H-4.872a37.853,37.853,0,0,0,.145-5.9A31.392,31.392,0,0,0-5.168-.74c-.145-.441-.145-.887-.295-1.328C-3.844-1.476-.012,0-.012,0M99.462-18.056a6.615,6.615,0,0,0-3.977-1.473,7.465,7.465,0,0,0-2.505.441l-8.4,3.536a13.4,13.4,0,0,1-5.451-1.913c-.736-.441-1.768-1.177-2.945-1.915-.591-.44-1.328-.885-2.064-1.472l-.595-.465c-.887-.591-1.473-1.032-2.064-1.473A14.663,14.663,0,0,0,63.8-25.445h-.3a10.571,10.571,0,0,0-4.273.887l-1.032-6.633-.145-1.177c-.145-1.327-.441-2.359-.591-3.237a10.213,10.213,0,0,0-9.579-8.4c-.441,0-.887-.147-1.328-.147a10.567,10.567,0,0,0-2.5.3A11.448,11.448,0,0,0,33.659-31.441a11.351,11.351,0,0,0,.22,1.436v.295L35.5-19.541a15.055,15.055,0,0,0-2.064-.145,10.706,10.706,0,0,0-9.283,5.451A29.557,29.557,0,0,0,22.532-11l-.147.3a32.549,32.549,0,0,1-2.209,3.832,11.863,11.863,0,0,0-7.2-13.233.508.508,0,0,1-.295-.145l-7.665-3.1c-.145,0-.145,0-.295-.145l-1.328-.441a5.892,5.892,0,0,1-.885-.295H2.359a1.1,1.1,0,0,0-.591-.147,15.446,15.446,0,0,0-4.419-.736,11.129,11.129,0,0,0-10.02,5.9c0,.145-.145.145-.145.3a11.651,11.651,0,0,0-.736,8.841c-.147,0-.441-.147-.591-.147-.591,0-1.032-.144-1.619-.144a15.285,15.285,0,0,0-2.505.144A10.4,10.4,0,0,0-25.34-5.8,12.04,12.04,0,0,0-27.255.833a11.191,11.191,0,0,0,.147,2.36c.145,2.063,0,3.095,0,4.713a32.823,32.823,0,0,1-6.475,17.4l-4.856.145a2.514,2.514,0,0,0-1.032.145,11.617,11.617,0,0,0,6.191-7.809L-29.6.7V.4a10.638,10.638,0,0,0-7.664-12.82l3.536-4.423a7.779,7.779,0,0,0,1.769.44,27.484,27.484,0,0,0,4.713.592A21.959,21.959,0,0,0-5.468-37.949,21.957,21.957,0,0,0-22.387-59.137a25.736,25.736,0,0,0-4.713-.591A21.715,21.715,0,0,0-46.993-46.464l-31.831-6.927c-1.032-.3-1.769-.443-2.211-.592a18.786,18.786,0,0,0-4.272-.591A10.98,10.98,0,0,0-96.8-45.14c-.881,4.128-.591,11.331,10.315,14.163.147,0,.441.145.591.145l26.527,6.043-17.4,22.107-8.251,1.327a6.2,6.2,0,0,0-5.125,7.113,6.194,6.194,0,0,0,2.18,3.793l9.577,7.809a12.034,12.034,0,0,0,2.505,1.473,9.267,9.267,0,0,0,4.273.736h1.327a15.261,15.261,0,0,0,10.169-4.127l.737-.737.295-.295,4.423-5.451c-.591,2.5-.885,4.423-.885,4.423a11.2,11.2,0,0,0,1.913,8.7,11.381,11.381,0,0,0,7.515,4.568,8.386,8.386,0,0,0,1.915.147,8.579,8.579,0,0,0,2.8-.441,6.946,6.946,0,0,0-3.1,3.391,7.069,7.069,0,0,0,1.328,7.369l5.745,6.192.441.44a12.09,12.09,0,0,0,8.547,2.947,14.412,14.412,0,0,0,9.579-3.832c.145-.147.3-.147.3-.3a37.62,37.62,0,0,0,3.977-4.715A54.373,54.373,0,0,0-7.811,25.3c.441.887.887,1.619,1.179,2.209l.295.441c.145.145.3.295.3.44A13.629,13.629,0,0,0,4.128,32.819c5.305,0,11.331-2.505,19.452-8.093,2.209-1.619,4.419-3.392,6.041-4.715.887-.736,1.328-1.327,1.768-1.619,0,0,.592-.441.592-.591l2.063-2.209a44.41,44.41,0,0,0,3.979-5.009c.736-1.032,1.327-1.915,1.913-2.8L41.555,17.8A12.516,12.516,0,0,0,51.871,28.267h.591s1.768.145,1.913.145h.3A12.04,12.04,0,0,0,65.881,15.6c0-.045-.007-.091-.009-.136l-.147-1.032a12.881,12.881,0,0,0-.295-2.359c0-.441-.147-.737-.147-1.328L63.665.429a53.518,53.518,0,0,0,14.3,6.928A24.536,24.536,0,0,0,84.89,8.389h1.032A15.406,15.406,0,0,0,92.554,6.62a16.373,16.373,0,0,0,3.832-2.945,14.386,14.386,0,0,0,3.237-5.6l.887-3.1c0-.145.145-.3.145-.441l1.473-6.475a7.86,7.86,0,0,0-2.655-6.041" fill="#7f80af"/>
      </g>
      <g id="g1278" transform="translate(541.794 -8643.411)">
        <path id="path1280" d="M0,0A5.664,5.664,0,0,0-4.612-6.551a5.676,5.676,0,0,0-1.135-.081A4.807,4.807,0,0,0-10.6-2.5l-.441,2.063v.284l-3.237,15.033a5.157,5.157,0,0,0,3.813,6.215,5.349,5.349,0,0,0,.756.123c.3,0,.736.145,1.032.145a5.235,5.235,0,0,0,5.159-4.423Z" fill="#fff"/>
      </g>
      <g id="g1282" transform="translate(567.013 -8638.551)">
        <path id="path1284" d="M0,0A19.711,19.711,0,0,0-.441-4.128,4.645,4.645,0,0,0-4.715-8.7a13.778,13.778,0,0,0-2.5,0,4.887,4.887,0,0,0-3.1,1.915A5.692,5.692,0,0,0-11.2-3.544c0,.736.145,1.913.145,2.064a35.371,35.371,0,0,1,0,5.6,37.843,37.843,0,0,1-9.577,22.693l-7.369.3a.993.993,0,0,0-.887.591,1.116,1.116,0,0,0,.145,1.177L-23,35.068a6.094,6.094,0,0,0,4.569,1.473,8.2,8.2,0,0,0,5.6-2.359A35.059,35.059,0,0,0-9.437,30.2,46.785,46.785,0,0,0-2.068,14.731,43.569,43.569,0,0,0,0-.008" fill="#fff"/>
      </g>
      <g id="g1286" transform="translate(579.666 -8648.57)">
        <path id="path1288" d="M0,0C.441.145,5.16,1.915,5.451,1.915a2.577,2.577,0,0,1,.887.145H7.811a4.745,4.745,0,0,0,4.127-3.391A5.93,5.93,0,0,0,8.415-8.94L8.255-9,.591-12.091l-1.473-.441c-.145,0-.145-.145-.441-.145l-.295-.147a.543.543,0,0,1-.441-.145,12.4,12.4,0,0,0-2.651-.441,5.346,5.346,0,0,0-4.856,2.8A5.565,5.565,0,0,0-7.225-3.1c.1.053.208.1.313.152.3.145,1.032.441,1.328.591Z" fill="#fff"/>
      </g>
      <g id="g1290" transform="translate(616.507 -8653.729)">
        <path id="path1292" d="M0,0A7.646,7.646,0,0,0-2.8-2.36a8.658,8.658,0,0,0-2.8-.591A4.4,4.4,0,0,0-9.728-.445l-1.619,3.237A50.912,50.912,0,0,1-36.1,27.108l-6.928-.441a1.282,1.282,0,0,0-.887.441,1.3,1.3,0,0,0-.145,1.032l1.619,4.273a15.53,15.53,0,0,0,1.177,2.655l.3.441a8.32,8.32,0,0,0,5.745,2.209A31.284,31.284,0,0,0-19.157,30.64a40.436,40.436,0,0,0,5.305-4.272c1.177-1.032,1.619-1.619,2.064-1.915l2.064-2.209c.887-1.032,2.359-2.8,3.683-4.568,1.473-1.915,2.5-3.833,3.1-4.715A30.6,30.6,0,0,0-1.032,9.279,21.265,21.265,0,0,0,.587,5.447,5.54,5.54,0,0,0,0,0" fill="#fff"/>
      </g>
      <g id="g1294" transform="translate(673.415 -8656.38)">
        <path id="path1296" d="M0,0A.512.512,0,0,0-.3-.145H-.441L-10.02,3.981A18.11,18.11,0,0,1-19.6,1.328c-1.327-.887-3.391-2.36-5.3-3.683l-2.36-1.768a8.231,8.231,0,0,0-4.856-1.769,4.383,4.383,0,0,0-3.391,1.177l-.887.883a6.4,6.4,0,0,0,1.619,8.841A58.073,58.073,0,0,0-16.652,15.179a17.008,17.008,0,0,0,6.191.887,6.845,6.845,0,0,0,4.128-1.177,8.962,8.962,0,0,0,2.209-1.769A7.462,7.462,0,0,0-2.356,9.883l.887-3.1L0,.312A.2.2,0,0,0,.013.027L0,.016" fill="#fff"/>
      </g>
      <g id="g1298" transform="translate(629.185 -8676.863)">
        <path id="path1300" d="M0,0A4.4,4.4,0,0,0-4.569-3.833a9.848,9.848,0,0,0-2.359.147c-4.715.591-5.451,3.832-5.16,7.369l7.515,47.159A6.757,6.757,0,0,0,.732,56.588H2.351a6.417,6.417,0,0,0,3.1-1.032,5.819,5.819,0,0,0,2.505-5.305l-.147-1.177c0-.885-.295-1.768-.44-3.237L.732,3.981A32.977,32.977,0,0,0,0,0" fill="#fff"/>
      </g>
      <g id="g1302" transform="translate(542.826 -8669.199)">
        <path id="path1304" d="M0,0A9.928,9.928,0,0,1-6.192-11.5c0-.144,0-.295.147-.295,0-.145.145-.145.145-.295v-.308a.146.146,0,0,0-.145-.145,13.63,13.63,0,0,0-3.392-.592l-35.808-8.092-2.064-.443a11.258,11.258,0,0,0-3.1-.44,5.612,5.612,0,0,0-5.9,4.715c-.736,3.977,1.032,6.191,6.337,7.368h.145L-14.3-1.931-39.059,29.019l-10.464,1.768a.317.317,0,0,0-.3.3c0,.145,0,.295.147.295l9.577,7.811a2.243,2.243,0,0,0,1.179.591,5.908,5.908,0,0,0,2.8.145,10.117,10.117,0,0,0,6.475-2.505l.441-.44,28-34.632A5.612,5.612,0,0,0,.125.433V.149L-.02,0" fill="#fff"/>
      </g>
      <g id="g1306" transform="translate(553.444 -8696.316)">
        <path id="path1308" d="M0,0A15.9,15.9,0,0,0-18.571,11.052l-.44,1.327,1.768.441c.295.145.887.145,1.327.295l.592.147.44.145-.145,1.177A9.612,9.612,0,0,0-8.988,25.636l.591.295-.145.441-.441.887a17.006,17.006,0,0,0-.736,1.619l-.441,1.177,1.177.441c.591.145,1.619.591,2.209.736A15.825,15.825,0,0,0,12.081,19.173a.142.142,0,0,0,.005-.025A16.128,16.128,0,0,0,0-.008" fill="#fff"/>
      </g>
      <g id="g1310" transform="translate(565.107 -8623.816)">
        <path id="path1312" d="M0,0A48.191,48.191,0,0,1-7.369,15.473a37.381,37.381,0,0,1-3.391,3.979,8.193,8.193,0,0,1-5.6,2.359,6.1,6.1,0,0,1-4.568-1.472l-5.747-6.192a1.113,1.113,0,0,1-.145-1.177.919.919,0,0,1,.887-.591l7.368-.295A37.841,37.841,0,0,0-8.988-10.611a35.371,35.371,0,0,0,0-5.6c0-.147-.145-1.328-.145-2.064a5.692,5.692,0,0,1,.887-3.237,4.884,4.884,0,0,1,3.095-1.915c.3,0,.887-.145,1.473-.145h.887A4.646,4.646,0,0,1,1.481-19a39.3,39.3,0,0,1,.441,4.127A48.635,48.635,0,0,1,.008.008M-2.38-25.935c-.441,0-.736-.147-1.177-.147-.736,0-1.473.147-1.915.147a6.5,6.5,0,0,0-4.856,3.095,9.148,9.148,0,0,0-1.327,4.715,7.883,7.883,0,0,0,.145,2.064v.145a30.039,30.039,0,0,1,0,5.16A36.413,36.413,0,0,1-19.6,9.583l-6.337.145a3.374,3.374,0,0,0-3.237,2.209,3.647,3.647,0,0,0,.737,3.979l5.747,6.191.145.145a8.964,8.964,0,0,0,6.337,2.209,10.64,10.64,0,0,0,7.368-3.1l.147-.144c1.473-1.62,2.651-2.947,3.683-4.275A46.543,46.543,0,0,0,2.8.591,56.424,56.424,0,0,0,4.86-14.735,25.142,25.142,0,0,0,4.419-19.3a7.622,7.622,0,0,0-6.777-6.632" fill="#d184a8"/>
      </g>
      <g id="g1314" transform="translate(569.809 -8659.034)">
        <path id="path1316" d="M0,0A5.343,5.343,0,0,1,4.856-2.8a6.616,6.616,0,0,1,2.651.44c.295,0,.295.147.441.147l.295.145a1.135,1.135,0,0,0,.441.145l1.473.441,7.664,3.1a5.77,5.77,0,0,1,3.847,7.2c-.048.159-.1.313-.164.467a5.015,5.015,0,0,1-4.128,3.391H15.9c-.441,0-.737,0-.887-.145-.3,0-5.009-1.768-5.451-1.913L3.671,8.4c-.3-.145-1.032-.44-1.328-.591A5.875,5.875,0,0,1-.016,0M-2.38-1.177A8.358,8.358,0,0,0,1.3,10.024a14.485,14.485,0,0,0,1.619.736h.147l5.9,2.209a42.345,42.345,0,0,0,6.041,2.064c.295,0,.736.145,1.177.145H18.1a7.343,7.343,0,0,0,6.473-5.009A8.355,8.355,0,0,0,19.985-.723q-.21-.086-.424-.16h-.145L11.752-3.977h-.147l-1.472-.441c-.147,0-.3-.145-.737-.3H9.1c-.147,0-.3-.145-.441-.145H8.547a9.9,9.9,0,0,0-3.537-.591A7.924,7.924,0,0,0-2.359-1.177" fill="#d184a8"/>
      </g>
      <g id="g1318" transform="translate(671.906 -8649.594)">
        <path id="path1320" d="M0,0-.887,3.1A9.722,9.722,0,0,1-2.655,6.333,8.988,8.988,0,0,1-4.864,8.1,10.44,10.44,0,0,1-8.992,9.279h-.736a22.1,22.1,0,0,1-5.451-.887A58.073,58.073,0,0,1-33.3-1.777a6.378,6.378,0,0,1-1.619-8.841l.887-.885A4.906,4.906,0,0,1-30.8-12.683h.145A8.239,8.239,0,0,1-25.8-10.915l2.359,1.769c1.915,1.327,3.979,2.8,5.305,3.683A21.106,21.106,0,0,0-9-2.663h.441L1.024-6.791h.145c.147,0,.147,0,.3.147a.453.453,0,0,1,.145.295ZM-35.205,18.42a18.024,18.024,0,0,1,.44,3.237l.147,1.177a5.819,5.819,0,0,1-2.505,5.305,5.474,5.474,0,0,1-3.1,1.032h-1.619a6.59,6.59,0,0,1-5.305-5.747l-7.515-47.172c-.44-3.536.3-6.632,5.16-7.368.3,0,.883-.145,1.619-.145h.736a4.512,4.512,0,0,1,4.569,3.832,27.989,27.989,0,0,1,.736,3.977Zm-19.461-16.8a17.522,17.522,0,0,1-1.619,3.832A30.6,30.6,0,0,1-58.2,9.137c-.591.887-1.619,2.8-3.1,4.715a48.817,48.817,0,0,1-3.683,4.568l-2.064,2.209c-.441.441-1.032,1.032-2.064,1.915-1.177,1.032-3.095,2.655-5.3,4.273A32.307,32.307,0,0,1-90.47,33.891a8.634,8.634,0,0,1-5.747-2.209l-.3-.441a15.576,15.576,0,0,1-1.177-2.655l-1.768-4.423a.907.907,0,0,1,.145-1.032.891.891,0,0,1,.887-.441l6.928.441A49.706,49.706,0,0,0-66.741-1.185c.145-.147,1.327-2.655,1.619-3.237a4.663,4.663,0,0,1,4.128-2.505,6.7,6.7,0,0,1,5.6,2.947,6.066,6.066,0,0,1,.736,5.6M3.108-8.845a2.72,2.72,0,0,0-3.1-.441L-9.125-5.309a17.766,17.766,0,0,1-7.664-2.359c-.887-.441-1.915-1.328-3.1-2.064-.591-.441-1.328-.887-2.064-1.473h-.157c-1.328-.885-1.915-1.473-2.505-1.768a11.438,11.438,0,0,0-6.041-2.064h-.3a7.711,7.711,0,0,0-5.009,1.768l-.295.3-.887.887-.3.295c-.145.145-.145.295-.295.441l-1.915-12.084-.145-1.177a11.45,11.45,0,0,0-.591-2.945,7.028,7.028,0,0,0-6.779-5.9h-1.032c-.736,0-1.472.145-1.913.145h-.145A8.236,8.236,0,0,0-57.872-24.5a8.246,8.246,0,0,0,.252,1.508v.145l2.5,15.916a7.943,7.943,0,0,0-2.209-1.327A12.215,12.215,0,0,0-61.3-9.141a7.533,7.533,0,0,0-6.475,3.683,33.711,33.711,0,0,0-1.473,3.1l-.145.295A47.754,47.754,0,0,1-92.385,20.625l-6.337-.295h-.295a3.483,3.483,0,0,0-2.8,1.619,3.782,3.782,0,0,0-.441,3.536l1.619,4.273A16.618,16.618,0,0,0-99.021,33l.295.441a.145.145,0,0,0,.147.145,10.516,10.516,0,0,0,7.664,3.237c4.715,0,10.169-2.359,17.684-7.515a39.026,39.026,0,0,0,5.6-4.423c.737-.736,1.328-1.177,1.768-1.619l.441-.441.147-.145,2.063-2.209a47.444,47.444,0,0,0,3.833-4.715,50.853,50.853,0,0,0,3.095-4.568l.147-.3a20.807,20.807,0,0,0,2.064-3.977q.442-1.032.885-2.064l3.1,19.307a9.408,9.408,0,0,0,7.515,7.959h2.209a10.339,10.339,0,0,0,4.423-1.472,8.156,8.156,0,0,0,3.537-7.809l-.147-1.179a9.9,9.9,0,0,0-.295-2.064c0-.44-.145-.885-.145-1.327L-35.943-.012l.441.441A60.043,60.043,0,0,0-16.344,11.185,20.824,20.824,0,0,0-10.3,12.217h.887a11.152,11.152,0,0,0,5.3-1.473A11.56,11.56,0,0,0-1.165,8.385,11.706,11.706,0,0,0,1.34,4.111l.881-3.095V.869L3.695-5.605A2.427,2.427,0,0,0,3.1-8.841" fill="#d184a8"/>
      </g>
      <g id="g1322" transform="translate(532.952 -8621.895)">
        <path id="path1324" d="M0,0A2.885,2.885,0,0,1-1.032-.145a5.305,5.305,0,0,1-4.64-5.9c.017-.148.041-.295.072-.441l3.237-15.033v-.295l.44-2.064A4.809,4.809,0,0,1,2.933-28a4.984,4.984,0,0,1,1.473.145c3.979.737,4.715,3.391,4.273,6.475L5-4.435A4.993,4.993,0,0,1-.012-.012M-19.307-10.169c-.145.3-.295.3-.441.441a9.536,9.536,0,0,1-6.475,2.505h-1.032a5.557,5.557,0,0,1-1.768-.147L-30.2-7.96l-9.579-7.809a.453.453,0,0,1-.145-.3.316.316,0,0,1,.295-.3l10.465-1.768L-4.552-49.373l-35.519-8.251h-.145c-5.305-1.179-7.073-3.392-6.337-7.369a5.489,5.489,0,0,1,5.747-4.715,11.259,11.259,0,0,1,3.1.441l2.064.441,34.78,7.96v.145A2.978,2.978,0,0,0,.752-59.392l1.769.44a12.068,12.068,0,0,0,5.9,11.939c0,.145-.147.295-.147.44v.147l-.44,1.177a2.466,2.466,0,0,0-.147,1.768Zm21.164-53.2a16.005,16.005,0,0,1,15.179-11.5,13.356,13.356,0,0,1,3.392.441A16.032,16.032,0,0,1,32.365-55.269,15.859,15.859,0,0,1,16.891-42.724a14.507,14.507,0,0,1-3.536-.441,9.694,9.694,0,0,1-2.209-.737c.44-.591.736-1.177,1.177-1.768a2.959,2.959,0,0,0,.145-2.5A3,3,0,0,0,10.7-49.944a7.388,7.388,0,0,1-4.569-8.4c0-.147.147-.3.147-.441A2.354,2.354,0,0,0,5.981-61a3.444,3.444,0,0,0-1.768-1.472,15.405,15.405,0,0,0-2.505-.591ZM7.811-3.832l3.681-17.093v-.145a7.644,7.644,0,0,0-5.548-9.279,7.547,7.547,0,0,0-.788-.155,11.152,11.152,0,0,0-2.064-.145,6.617,6.617,0,0,0-2.947.591l9.284-11.5.736.295h.145c.591.3,1.915.592,2.655.887A18.656,18.656,0,0,0,35.223-54.536,18.655,18.655,0,0,0,21.059-76.793a18.309,18.309,0,0,0-3.977-.441A18.571,18.571,0,0,0-.6-63.824l-.145.591-34.336-8.093h-.147a9.812,9.812,0,0,0-1.913-.441,27.5,27.5,0,0,0-3.683-.591,8.042,8.042,0,0,0-8.4,6.779c-1.619,7.809,5.305,9.712,8.093,10.465.147,0,.3.145.441.145L-9.3-47.751-30.673-20.639l-9.433,1.619a2.834,2.834,0,0,0-2.359,2.211,3.053,3.053,0,0,0,1.032,3.095L-31.855-5.9a9.821,9.821,0,0,0,1.619,1.032h.145a7.765,7.765,0,0,0,2.945.441h1.179a11.978,11.978,0,0,0,8.093-3.237l.591-.591a.145.145,0,0,1,.145-.147L-4.188-24.471l-.441,2.064v.147L-7.867-7.227v.145A8,8,0,0,0-1.717,2.409c.16.035.321.063.483.088a4.574,4.574,0,0,0,1.473.145A7.919,7.919,0,0,0,7.753-3.832" fill="#d184a8"/>
      </g>
      <g id="g1326" transform="translate(547.981 -8681.137)">
        <path id="path1328" d="M0,0A2.654,2.654,0,0,1,2.655-2.655,2.654,2.654,0,0,1,5.309,0,2.654,2.654,0,0,1,2.655,2.655,2.642,2.642,0,0,1,0,.024V0M2.655,5.305A5.305,5.305,0,0,0,7.96,0,5.305,5.305,0,0,0-2.651,0,5.054,5.054,0,0,0,2.14,5.305c.171.008.343.008.515,0" fill="#d184a8"/>
      </g>
      <g id="g1330" transform="translate(547.985 -8681.137)">
        <path id="path1332" d="M0,0A2.654,2.654,0,0,1,2.655-2.655,2.654,2.654,0,0,1,5.309,0,2.654,2.654,0,0,1,2.655,2.655,2.473,2.473,0,0,1,0,.379,2.564,2.564,0,0,1,0,0" fill="#7f80af"/>
      </g>
    </g>
  </g>
</svg>
