<svg width="324" height="353" viewBox="0 0 324 353" fill="none" xmlns="http://www.w3.org/2000/svg">
<g clip-path="url(#clip0_1_4312)">
<path d="M23.7101 219.022C23.7074 218.743 23.5943 218.476 23.3954 218.281C23.1965 218.085 22.9281 217.976 22.6491 217.978C22.3726 217.979 22.1078 218.09 21.9123 218.285C21.7168 218.481 21.6064 218.745 21.6051 219.022C21.6043 219.159 21.6307 219.295 21.6829 219.423C21.7351 219.55 21.8119 219.665 21.909 219.762C22.0061 219.859 22.1215 219.936 22.2486 219.989C22.3756 220.041 22.5117 220.068 22.6491 220.067C22.7877 220.069 22.9254 220.044 23.0541 219.992C23.1828 219.941 23.2999 219.864 23.3987 219.767C23.4974 219.67 23.5758 219.554 23.6293 219.426C23.6828 219.298 23.7102 219.161 23.7101 219.022ZM20.0541 219.511C20.2906 219.516 20.5271 219.504 20.7621 219.477C20.7282 219.328 20.7108 219.175 20.7101 219.022C20.713 218.509 20.9183 218.017 21.2813 217.655C21.6444 217.292 22.1359 217.087 22.6491 217.085C23.1645 217.084 23.6591 217.288 24.025 217.651C24.3909 218.014 24.5984 218.507 24.6021 219.022C24.6017 219.278 24.5508 219.531 24.4523 219.766C24.3538 220.002 24.2097 220.216 24.0282 220.396C23.8467 220.576 23.6315 220.719 23.3948 220.815C23.1581 220.912 22.9047 220.961 22.6491 220.959C22.5013 220.96 22.3539 220.943 22.2101 220.909L22.1271 221.229C21.7041 223.437 20.8446 225.539 19.5991 227.411C17.9077 229.601 15.5661 231.2 12.9101 231.977L11.4621 230.393C14.0636 229.878 16.3981 228.457 18.0501 226.383C19.1554 224.853 19.8773 223.08 20.1551 221.213H11.8841C11.1591 221.213 10.4841 221.245 10.0641 221.262V219.393C10.6678 219.469 11.2756 219.509 11.8841 219.512L20.0541 219.511Z" fill="#FFFFAE"/>
<path d="M39.028 218.331C38.995 218.77 38.961 219.275 38.961 219.88V222.88C38.961 226.739 38.354 228.171 37.108 229.58C35.999 230.73 34.6131 231.578 33.083 232.04L31.683 230.576C33.2339 230.27 34.6556 229.501 35.76 228.371C36.94 227.04 37.16 225.727 37.16 222.779V219.879C37.1565 219.361 37.1221 218.844 37.057 218.331H39.028ZM31.245 218.467C31.212 218.819 31.178 219.242 31.178 219.712V225.356C31.178 225.793 31.211 226.383 31.245 226.72H29.275C29.292 226.433 29.359 225.844 29.359 225.356V219.712C29.359 219.412 29.326 218.819 29.292 218.467H31.245Z" fill="#FFFFAE"/>
<path d="M51.6851 222.206L50.3541 223.57C49.0377 222.28 47.6301 221.086 46.1421 219.999L47.3731 218.684C48.9039 219.738 50.346 220.916 51.6851 222.206ZM52.2581 227.597C54.7497 226.053 56.7709 223.856 58.1021 221.245L59.1301 223.082C57.6958 225.574 55.6641 227.67 53.2181 229.182C51.2437 230.415 49.055 231.265 46.7661 231.69L45.6371 229.955C47.9807 229.624 50.233 228.822 52.2581 227.597Z" fill="#FFFFAE"/>
<path d="M74.8191 227.108C72.7668 226.07 70.6379 225.192 68.4511 224.48V229.685C68.4568 230.406 68.5018 231.125 68.5861 231.841H66.5141C66.603 231.126 66.6481 230.406 66.6491 229.685V219.948C66.6475 219.316 66.5966 218.685 66.4971 218.061H68.5701C68.5181 218.617 68.4511 219.361 68.4511 219.948V222.576C70.8825 223.319 73.2626 224.221 75.5761 225.276L74.8191 227.108Z" fill="#FFFFAE"/>
<path d="M91.166 229.546H87.966V230.81H91.166V229.546ZM91.166 227.288H87.966V228.467H91.166V227.288ZM86.431 219.269C85.522 219.336 84.595 219.386 83.686 219.437C84.172 220.04 84.569 220.709 84.865 221.425L84.174 221.694H86.431V219.269ZM83.516 230.808H86.481V229.544H83.516V230.808ZM86.481 227.288H83.516V228.467H86.481V227.288ZM91.788 226.057C90.3869 225.347 89.1028 224.426 87.98 223.328V225.771H86.432V223.396C85.3377 224.442 84.1085 225.336 82.777 226.057H91.788ZM89.513 223.009C91.2046 224.253 93.1126 225.173 95.14 225.721C94.738 226.108 94.392 226.55 94.112 227.034C93.657 226.882 93.185 226.714 92.731 226.513V232.513H91.166V232.025H83.517V232.58H82.002V226.467C81.479 226.719 80.941 226.938 80.435 227.123C80.158 226.677 79.8243 226.27 79.442 225.911C81.4192 225.288 83.264 224.305 84.883 223.011H79.883V221.697H83.338C83.0365 221.025 82.6637 220.389 82.226 219.797L83.118 219.46C82.461 219.493 81.805 219.511 81.165 219.527C81.1091 219.111 81.0012 218.703 80.844 218.314C84.6661 218.246 88.478 217.897 92.249 217.27L93.26 218.399C91.5177 218.745 89.7572 218.992 87.987 219.139V221.701H90.094L89.555 221.532C90.0457 220.727 90.4681 219.882 90.818 219.007L92.518 219.462C92.03 220.253 91.507 221.096 91.069 221.702H94.674V223.016L89.513 223.009Z" fill="#FFFFAE"/>
<path d="M108.792 219.122H101.192V221.43H108.792V219.122ZM110.409 222.794H99.661V217.739H110.409V222.794ZM102.592 225.338C102.457 225.759 102.323 226.181 102.171 226.602H110.443C110.428 226.833 110.4 227.064 110.359 227.293C109.971 230.138 109.567 231.453 108.944 232.009C108.496 232.38 107.926 232.572 107.344 232.548C106.755 232.581 105.644 232.565 104.48 232.515C104.438 231.973 104.246 231.453 103.924 231.015C105.087 231.115 106.316 231.134 106.788 231.134C107.072 231.166 107.359 231.113 107.613 230.981C108.001 230.681 108.321 229.786 108.59 228.033H101.667C101.531 228.405 101.396 228.759 101.279 229.061L99.579 228.808C99.979 227.9 100.455 226.568 100.859 225.339H97.422V223.923H112.433V225.339L102.592 225.338Z" fill="#FFFFAE"/>
<path d="M179.371 231.69H170.55C169.052 231.691 167.615 232.287 166.555 233.346C165.496 234.406 164.9 235.843 164.899 237.341C164.9 238.839 165.496 240.275 166.556 241.335C167.615 242.394 169.052 242.989 170.55 242.99H179.371C180.851 242.962 182.261 242.355 183.298 241.298C184.335 240.241 184.916 238.82 184.916 237.34C184.916 235.86 184.335 234.438 183.298 233.382C182.261 232.325 180.851 231.718 179.371 231.69" fill="white"/>
<path d="M179.371 176.651H170.55C169.052 176.652 167.615 177.248 166.555 178.307C165.496 179.367 164.9 180.803 164.899 182.302C164.9 183.8 165.496 185.236 166.556 186.296C167.615 187.355 169.052 187.95 170.55 187.951H179.371C180.851 187.923 182.261 187.316 183.298 186.259C184.335 185.202 184.916 183.781 184.916 182.301C184.916 180.821 184.335 179.399 183.298 178.343C182.261 177.286 180.851 176.679 179.371 176.651" fill="white"/>
<path d="M179.371 285.158H170.55C169.052 285.159 167.615 285.754 166.555 286.814C165.496 287.874 164.9 289.31 164.899 290.809C164.9 292.307 165.496 293.743 166.556 294.802C167.615 295.862 169.052 296.457 170.55 296.458H179.371C180.851 296.43 182.261 295.822 183.298 294.766C184.335 293.709 184.916 292.288 184.916 290.808C184.916 289.327 184.335 287.906 183.298 286.85C182.261 285.793 180.851 285.186 179.371 285.158" fill="white"/>
<path d="M318.172 152.119V97.3056C318.173 96.5633 318.027 95.8283 317.743 95.1424C317.459 94.4566 317.043 93.8334 316.518 93.3085C315.993 92.7837 315.37 92.3675 314.684 92.0837C313.998 91.7999 313.263 91.654 312.521 91.6546H247.302V82.2716H312.972C314.463 82.2432 315.884 81.6385 316.939 80.5845C317.993 79.5305 318.598 78.1091 318.627 76.6186C318.628 75.1182 318.032 73.679 316.972 72.6175C315.911 71.5561 314.472 70.9594 312.972 70.9586H247.194C246.963 66.6402 245.09 62.5734 241.959 59.5906C238.827 56.6079 234.675 54.9347 230.35 54.9136H156.881C152.385 54.9149 148.074 56.7013 144.896 59.8802C141.717 63.059 139.93 67.37 139.929 71.8656V140.711H124.896C124.261 140.604 123.612 140.604 122.977 140.711L99.016 125.226C97.7695 124.407 96.2503 124.113 94.7883 124.407C93.3263 124.702 92.0394 125.561 91.2071 126.799C90.3868 128.064 90.0937 129.601 90.3902 131.079C90.6867 132.558 91.5493 133.863 92.794 134.715L139.929 165.795V324.037C139.928 325.537 140.522 326.976 141.582 328.038C142.642 329.1 144.08 329.698 145.58 329.7H160.959V343.147C160.959 343.889 161.104 344.624 161.388 345.31C161.672 345.996 162.088 346.619 162.613 347.144C163.138 347.668 163.761 348.085 164.447 348.368C165.133 348.652 165.868 348.798 166.61 348.798H192.943C193.685 348.798 194.42 348.652 195.106 348.369C195.792 348.085 196.416 347.669 196.94 347.144C197.465 346.619 197.882 345.996 198.166 345.31C198.45 344.624 198.595 343.889 198.595 343.147V329.807H259.856V343.147C259.856 343.889 260.001 344.624 260.285 345.31C260.569 345.996 260.985 346.619 261.51 347.144C262.035 347.668 262.658 348.085 263.344 348.368C264.03 348.652 264.765 348.798 265.507 348.798H291.842C292.584 348.798 293.319 348.652 294.005 348.368C294.691 348.085 295.314 347.668 295.839 347.144C296.364 346.619 296.78 345.996 297.064 345.31C297.348 344.624 297.494 343.889 297.493 343.147V329.807H312.972C313.714 329.807 314.449 329.661 315.135 329.378C315.821 329.094 316.444 328.677 316.969 328.153C317.494 327.628 317.91 327.005 318.194 326.319C318.478 325.633 318.624 324.898 318.623 324.156L318.172 152.119ZM151.228 71.8646C151.228 71.1223 151.373 70.3873 151.657 69.7014C151.941 69.0156 152.357 68.3924 152.882 67.8675C153.407 67.3427 154.03 66.9265 154.716 66.6427C155.402 66.3589 156.137 66.2131 156.879 66.2136H230.348C231.09 66.2135 231.824 66.3599 232.51 66.6442C233.195 66.9286 233.817 67.3453 234.341 67.8706C235.4 68.9296 235.996 70.3657 235.998 71.8636V91.6526H151.228V71.8646ZM187.288 337.492H172.256V329.803H187.288V337.492ZM286.188 337.492H271.153V329.803H286.185L286.188 337.492ZM307.324 318.501H151.227V276.456H279.296C280.794 276.455 282.231 275.859 283.291 274.799C284.35 273.74 284.946 272.303 284.947 270.805C284.946 269.306 284.351 267.869 283.291 266.81C282.231 265.75 280.795 265.154 279.296 265.154H151.227V222.43H279.296C280.794 222.426 282.229 221.83 283.288 220.771C284.347 219.712 284.944 218.276 284.947 216.779C284.946 215.279 284.351 213.842 283.291 212.781C282.232 211.72 280.795 211.122 279.296 211.119H151.227V168.51H279.296C280.794 168.509 282.231 167.913 283.291 166.853C284.35 165.794 284.946 164.357 284.947 162.859C284.946 161.36 284.351 159.923 283.291 158.864C282.231 157.804 280.795 157.208 279.296 157.208H151.227V102.955H307.321L307.324 318.501Z" fill="white"/>
<path d="M194.963 70.959H183.663C182.163 70.9608 180.725 71.5585 179.665 72.6204C178.605 73.6824 178.011 75.1217 178.012 76.622C178.013 78.1202 178.609 79.5567 179.669 80.616C180.728 81.6754 182.165 82.2709 183.663 82.272H194.963C196.463 82.2715 197.901 81.6764 198.962 80.6173C200.024 79.5583 200.622 78.1215 200.626 76.622C200.625 75.1205 200.028 73.6808 198.966 72.6191C197.904 71.5574 196.465 70.9603 194.963 70.959" fill="white"/>
<path d="M59.945 113.114C51.5917 113.096 43.3535 111.165 35.8627 107.468C28.3719 103.772 21.8275 98.408 16.732 91.7888C11.6358 85.1698 8.12328 77.4715 6.46387 69.2843C4.80447 61.0972 5.04226 52.6388 7.15901 44.5578C9.27695 36.4781 13.2171 28.9907 18.6773 22.6698C24.1376 16.3489 30.9729 11.3625 38.659 8.0928C47.5002 4.35687 57.169 3.01404 66.6936 4.19927C76.2182 5.38449 85.2631 9.05602 92.919 14.8448C100.577 20.6329 106.575 28.335 110.312 37.1768C114.049 46.0186 115.392 55.6884 114.206 65.2138C113.02 74.7374 109.349 83.7811 103.56 91.4361C97.7718 99.091 90.0704 105.087 81.23 108.823C74.4963 111.672 67.2566 113.131 59.945 113.114ZM59.945 10.9288C53.7032 10.9288 47.5226 12.1583 41.7561 14.5473C35.9895 16.9362 30.7501 20.4377 26.337 24.8518C21.923 29.2648 18.4216 34.5041 16.0326 40.2704C13.6437 46.0367 12.4141 52.2172 12.414 58.4588C12.4136 64.7006 13.643 70.8814 16.032 76.6479C18.421 82.4145 21.9226 87.6539 26.337 92.0668C30.75 96.481 35.9895 99.9826 41.756 102.372C47.5225 104.76 53.7032 105.99 59.945 105.99C66.1868 105.99 72.3676 104.761 78.1341 102.372C83.9007 99.9829 89.1401 96.4812 93.553 92.0668C97.9672 87.6538 101.469 82.4144 103.858 76.6478C106.247 70.8813 107.476 64.7006 107.476 58.4588C107.462 45.8576 102.45 33.7763 93.54 24.8658C84.6292 15.9547 72.547 10.9428 59.945 10.9298V10.9288Z" fill="white"/>
<path d="M59.4731 15.0737H60.4181C60.7576 15.0965 61.0774 15.2417 61.318 15.4825C61.5586 15.7232 61.7036 16.0431 61.7261 16.3827V23.0537C61.7261 23.2255 61.6922 23.3956 61.6265 23.5543C61.5608 23.713 61.4644 23.8572 61.343 23.9786C61.2215 24.1001 61.0773 24.1964 60.9186 24.2622C60.7599 24.3279 60.5898 24.3617 60.4181 24.3617H59.4731C59.1335 24.339 58.8138 24.194 58.573 23.9534C58.3323 23.7129 58.187 23.3932 58.1641 23.0537V16.3827C58.1643 16.0356 58.3023 15.7028 58.5478 15.4574C58.7932 15.212 59.126 15.074 59.4731 15.0737" fill="white"/>
<path d="M59.4731 92.5396H60.4181C60.7576 92.5623 61.0774 92.7075 61.318 92.9483C61.5586 93.1891 61.7036 93.5089 61.7261 93.8486V100.52C61.7261 100.691 61.6922 100.861 61.6265 101.02C61.5608 101.179 61.4644 101.323 61.343 101.444C61.2215 101.566 61.0773 101.662 60.9186 101.728C60.7599 101.794 60.5898 101.828 60.4181 101.828H59.4731C59.1335 101.805 58.8138 101.66 58.573 101.419C58.3323 101.179 58.187 100.859 58.1641 100.52V93.8486C58.1643 93.5015 58.3023 93.1687 58.5478 92.9232C58.7932 92.6778 59.126 92.5398 59.4731 92.5396" fill="white"/>
<path d="M90.294 27.4517L90.962 28.1197C91.1854 28.3759 91.3084 28.7043 91.3084 29.0442C91.3084 29.3841 91.1854 29.7125 90.962 29.9687L86.245 34.6867C85.9991 34.9305 85.6668 35.0674 85.3205 35.0674C84.9742 35.0674 84.6419 34.9305 84.396 34.6867L83.728 34.0187C83.5051 33.7623 83.3823 33.434 83.3823 33.0942C83.3823 32.7544 83.5051 32.4261 83.728 32.1697L88.445 27.4517C88.6906 27.2071 89.023 27.0698 89.3695 27.0698C89.7161 27.0698 90.0485 27.2071 90.294 27.4517Z" fill="white"/>
<path d="M35.5071 82.2159L36.1751 82.8839C36.3984 83.1401 36.5214 83.4685 36.5214 83.8084C36.5214 84.1483 36.3984 84.4767 36.1751 84.7329L31.4591 89.4509C31.2129 89.6951 30.8803 89.8321 30.5336 89.8321C30.1868 89.8321 29.8542 89.6951 29.6081 89.4509L28.9411 88.7829C28.7175 88.5267 28.5944 88.1983 28.5944 87.8584C28.5944 87.5184 28.7175 87.19 28.9411 86.9339L33.6581 82.2159C33.9036 81.9713 34.236 81.834 34.5826 81.834C34.9291 81.834 35.2615 81.9713 35.5071 82.2159Z" fill="white"/>
<path d="M103.331 57.9877V58.9327C103.308 59.2723 103.163 59.5921 102.922 59.8326C102.681 60.0732 102.362 60.2182 102.022 60.2407H95.352C95.005 60.2407 94.6722 60.1029 94.4267 59.8577C94.1813 59.6124 94.0432 59.2797 94.043 58.9327V57.9877C94.0659 57.6481 94.2112 57.3283 94.4519 57.0876C94.6926 56.8469 95.0124 56.7016 95.352 56.6787H102.021C102.368 56.6787 102.701 56.8166 102.947 57.062C103.193 57.3075 103.331 57.6405 103.331 57.9877Z" fill="white"/>
<path d="M25.865 57.9877V58.9327C25.8423 59.2723 25.697 59.5921 25.4563 59.8326C25.2155 60.0732 24.8956 60.2182 24.556 60.2407H17.886C17.539 60.2407 17.2062 60.1029 16.9608 59.8577C16.7153 59.6124 16.5773 59.2797 16.577 58.9327V57.9877C16.6 57.6481 16.7452 57.3283 16.9859 57.0876C17.2266 56.8469 17.5464 56.7016 17.886 56.6787H24.555C24.9023 56.6787 25.2353 56.8166 25.481 57.062C25.7266 57.3075 25.8648 57.6405 25.865 57.9877Z" fill="white"/>
<path d="M90.948 88.8087L90.28 89.4767C90.0238 89.7 89.6954 89.823 89.3555 89.823C89.0156 89.823 88.6872 89.7 88.431 89.4767L83.715 84.7597C83.4704 84.5142 83.3331 84.1817 83.3331 83.8352C83.3331 83.4886 83.4704 83.1562 83.715 82.9107L84.383 82.2427C84.6394 82.0197 84.9677 81.897 85.3075 81.897C85.6473 81.897 85.9756 82.0197 86.232 82.2427L90.948 86.9597C91.1926 87.2052 91.3299 87.5376 91.3299 87.8842C91.3299 88.2307 91.1926 88.5632 90.948 88.8087Z" fill="white"/>
<path d="M36.1751 34.0269L35.5071 34.6949C35.2508 34.9183 34.9225 35.0413 34.5826 35.0413C34.2427 35.0413 33.9143 34.9183 33.6581 34.6949L28.9421 29.9779C28.6975 29.7324 28.5602 29.4 28.5602 29.0534C28.5602 28.7069 28.6975 28.3745 28.9421 28.1289L29.6101 27.4609C29.8665 27.238 30.1948 27.1152 30.5346 27.1152C30.8743 27.1152 31.2027 27.238 31.4591 27.4609L36.1751 32.1779C36.4196 32.4235 36.5569 32.7559 36.5569 33.1024C36.5569 33.449 36.4196 33.7814 36.1751 34.0269Z" fill="white"/>
<path d="M56.55 68.216V74.836H33.125L44.467 60.577C45.423 59.497 46.21 58.5714 46.828 57.8C47.3657 57.143 47.8531 56.4464 48.286 55.716C48.61 55.1734 48.8593 54.5894 49.027 53.98C49.1708 53.3975 49.2407 52.7991 49.235 52.199C49.2288 51.7649 49.1507 51.3347 49.004 50.926C48.8481 50.4785 48.6127 50.0628 48.309 49.699C47.9737 49.3097 47.5541 49.0019 47.082 48.799C46.5196 48.5563 45.9114 48.4376 45.299 48.451C44.7821 48.4493 44.273 48.5768 43.818 48.822C43.3455 49.0769 42.9284 49.4233 42.591 49.841C42.2179 50.3046 41.9279 50.8294 41.734 51.392C41.5156 52.0088 41.406 52.6588 41.41 53.313H34.374C34.3529 51.7288 34.6437 50.1559 35.23 48.684C35.7694 47.3423 36.5722 46.1223 37.591 45.096C38.597 44.0909 39.7934 43.2964 41.11 42.759C42.4988 42.1944 43.9859 41.9112 45.485 41.926C46.9668 41.9091 48.4374 42.1839 49.813 42.735C51.076 43.2453 52.23 43.992 53.213 44.935C54.1707 45.8627 54.9339 46.972 55.458 48.198C56.0013 49.4629 56.2774 50.8264 56.269 52.203C56.2809 53.2262 56.2032 54.2484 56.037 55.258C55.8814 56.1272 55.6008 56.9692 55.204 57.758C54.7439 58.6509 54.1941 59.4946 53.563 60.276C52.8697 61.156 51.9987 62.1824 50.95 63.355L47.013 68.216H56.55Z" fill="white"/>
<path d="M77.1501 49.9757L69.0951 62.4757H77.1501V49.9757ZM83.3991 68.6757V74.9757H77.1501V68.6757H62.0111V62.8917L74.7891 42.4307H83.3991V62.4757H86.8711V68.6757H83.3991Z" fill="white"/>
<path d="M44.012 255.732H19.679V280.065H44.012V255.732ZM50.169 286.222H13.619V249.671H50.17L50.169 286.222ZM25.836 261.889H38.053V274.107H25.836V261.889ZM104.892 255.732H80.558V280.065H104.892V255.732ZM110.952 286.222H74.502V249.671H110.952V286.222ZM86.619 261.889H98.836V274.107H86.618L86.619 261.889ZM44.014 316.612H19.68V340.945H44.013L44.014 316.612ZM50.17 347.005H13.619V310.556H50.17V347.005ZM25.837 322.672H38.054V334.889H25.836L25.837 322.672ZM56.228 249.672H62.288V255.732H56.228V249.672ZM62.288 255.732H68.348V261.792H62.288V255.736V255.732ZM56.228 261.889H62.288V267.949H56.228V261.889ZM62.288 267.945H68.348V274.005H62.288V267.945ZM56.228 274.005H62.288V280.065H56.228V274.005ZM62.288 280.065H68.348V286.125H62.288V280.069V280.065ZM56.228 286.222H62.288V292.282H56.228V286.222ZM56.228 298.338H62.288V304.398H56.228V298.338ZM62.288 304.398H68.348V310.458H62.288V304.402V304.398ZM56.228 310.555H62.288V316.615H56.228V310.555ZM62.288 316.611H68.348V322.671H62.288V316.611ZM56.228 322.671H62.288V328.731H56.228V322.671ZM62.288 328.731H68.348V334.791H62.288V328.735V328.731ZM56.228 334.888H62.288V340.948H56.228V334.888ZM62.288 340.944H68.348V347.004H62.288V340.944ZM104.893 298.337H110.953V304.397H104.893V298.337ZM19.68 298.337H25.74V304.397H19.68V298.337ZM25.837 292.277H31.897V298.337H25.837V292.277ZM13.62 292.277H19.68V298.337H13.62V292.277ZM37.953 292.277H44.013V298.337H37.953V292.277ZM44.013 298.337H50.073V304.397H44.013V298.337ZM50.17 292.277H56.23V298.337H50.17V292.277ZM68.346 298.337H74.406V304.397H68.346V298.337ZM74.503 292.277H80.563V298.337H74.502L74.503 292.277ZM80.559 298.337H86.619V304.397H80.559V298.337ZM86.619 292.277H92.679V298.337H86.619V292.277ZM92.679 298.337H98.739V304.397H92.679V298.337ZM98.836 292.277H104.896V298.337H98.836V292.277ZM104.892 310.554H110.952V316.614H104.892V310.554ZM68.345 310.554H74.405V316.614H68.345V310.554ZM74.502 304.397H80.562V310.457H74.502V304.397ZM80.558 310.554H86.618V316.614H80.558V310.554ZM92.678 310.554H98.738V316.614H92.678V310.554ZM98.835 304.397H104.895V310.457H98.835V304.397ZM104.891 322.67H110.951V328.73H104.891V322.67ZM68.344 322.67H74.404V328.73H68.344V322.67ZM74.501 316.61H80.561V322.67H74.502L74.501 316.61ZM86.617 316.61H92.677V322.67H86.617V316.61ZM92.677 322.67H98.737V328.73H92.677V322.67ZM98.834 316.61H104.894V322.67H98.834V316.61ZM104.89 334.886H110.95V340.946H104.89V334.886ZM74.501 328.729H80.561V334.789H74.502L74.501 328.729ZM80.557 334.886H86.617V340.946H80.557V334.886ZM86.617 328.729H92.677V334.789H86.617V328.729ZM92.677 334.886H98.737V340.946H92.677V334.886ZM74.501 340.942H80.561V347.002H74.502L74.501 340.942ZM86.617 340.942H92.677V347.002H86.617V340.942ZM98.833 340.942H104.894V347.002H98.834L98.833 340.942Z" fill="#FFFFAE"/>
</g>
<defs>
<clipPath id="clip0_1_4312">
<rect width="324" height="353" fill="white"/>
</clipPath>
</defs>
</svg>
