<svg width="324" height="353" viewBox="0 0 324 353" fill="none" xmlns="http://www.w3.org/2000/svg">
<g clip-path="url(#clip0_1_2876)">
<path d="M309.877 159.79C313.339 156.797 315.801 152.817 316.934 148.383C318.067 143.95 317.816 139.276 316.214 134.99C314.607 130.705 311.727 127.015 307.961 124.414C304.196 121.814 299.725 120.428 295.149 120.442H278.285V47.3676C278.274 36.9347 274.125 26.9323 266.748 19.5549C259.371 12.1776 249.369 8.02798 238.936 8.0166H115.268C104.835 8.02957 94.8339 12.1796 87.457 19.5566C80.0801 26.9335 75.93 36.935 75.917 47.3676V78.6206C72.5215 76.5798 68.6386 75.4923 64.677 75.4726H47.8141C47.0759 75.4725 46.3448 75.6178 45.6628 75.9002C44.9808 76.1826 44.3611 76.5967 43.8391 77.1187C43.3171 77.6406 42.9031 78.2603 42.6206 78.9424C42.3382 79.6244 42.1929 80.3554 42.1931 81.0936V258.667L4.47705 296.331L12.4601 304.314L51.811 264.963C52.8468 263.891 53.4302 262.461 53.44 260.971V86.7116H64.677C67.6561 86.7206 70.5106 87.908 72.6171 90.0145C74.7237 92.121 75.9111 94.9755 75.92 97.9546V142.926C75.9188 143.934 76.1911 144.924 76.708 145.79L82.385 155.233C89.189 166.597 92.7832 179.594 92.785 192.84V200.99C92.806 211.193 90.0256 221.207 84.747 229.94L94.415 235.79C100.71 225.273 104.032 213.246 104.027 200.99V192.841C104.027 177.552 99.8688 162.552 91.998 149.446L87.163 141.351V47.3646C87.1621 43.6733 87.8885 40.0179 89.3007 36.6074C90.7129 33.1969 92.7832 30.0981 95.3933 27.4879C98.0035 24.8777 101.102 22.8074 104.513 21.3952C107.923 19.9831 111.579 19.2567 115.27 19.2576H238.936C246.389 19.2592 253.536 22.2201 258.806 27.4896C264.077 32.7594 267.04 39.907 267.042 47.3606V121.222C263.078 122.223 259.465 124.292 256.596 127.204C253.727 130.117 251.711 133.76 250.769 137.739C249.833 141.718 250.006 145.878 251.269 149.766C252.533 153.654 254.839 157.121 257.936 159.79C255.504 161.875 253.552 164.461 252.212 167.371C250.873 170.282 250.179 173.447 250.177 176.651C250.178 179.855 250.872 183.02 252.211 185.931C253.55 188.842 255.502 191.429 257.934 193.515C255.502 195.6 253.55 198.187 252.211 201.098C250.872 204.009 250.178 207.175 250.177 210.379C250.178 213.583 250.872 216.748 252.211 219.659C253.55 222.57 255.502 225.157 257.934 227.243C254.838 229.911 252.533 233.377 251.27 237.265C250.007 241.152 249.833 245.311 250.769 249.29C251.712 253.267 253.728 256.909 256.597 259.821C259.466 262.732 263.079 264.801 267.042 265.802V272.21C267.04 279.663 264.077 286.811 258.806 292.081C253.536 297.351 246.388 300.313 238.935 300.316H115.269C111.578 300.317 107.923 299.59 104.512 298.178C101.102 296.766 98.0032 294.696 95.3931 292.086C92.7829 289.476 90.7126 286.377 89.3003 282.967C87.888 279.557 87.1614 275.902 87.162 272.211V244.106H75.9191V272.213C75.932 282.645 80.0821 292.647 87.459 300.024C94.8359 307.401 104.837 311.551 115.27 311.564H186.042L156.25 341.3L164.233 349.283L201.896 311.566H238.94C249.373 311.554 259.376 307.405 266.753 300.027C274.13 292.65 278.28 282.648 278.291 272.215V266.59H295.155C299.731 266.604 304.201 265.218 307.966 262.619C311.732 260.019 314.612 256.33 316.22 252.047C317.822 247.76 318.073 243.086 316.94 238.653C315.807 234.22 313.345 230.239 309.883 227.247C312.315 225.16 314.267 222.573 315.606 219.662C316.945 216.751 317.639 213.585 317.64 210.381C317.639 207.177 316.945 204.011 315.606 201.1C314.267 198.189 312.314 195.602 309.882 193.517C312.314 191.431 314.267 188.844 315.606 185.933C316.945 183.022 317.639 179.857 317.64 176.653C317.639 173.449 316.944 170.283 315.605 167.373C314.266 164.462 312.314 161.875 309.882 159.79H309.877ZM295.149 255.348H272.664C271.188 255.348 269.726 255.058 268.362 254.493C266.997 253.928 265.758 253.1 264.714 252.056C263.67 251.013 262.842 249.773 262.277 248.409C261.712 247.045 261.422 245.583 261.422 244.107C261.422 242.63 261.712 241.168 262.277 239.804C262.841 238.439 263.669 237.2 264.714 236.156C265.758 235.112 266.997 234.284 268.361 233.719C269.725 233.154 271.188 232.863 272.664 232.864H295.149C296.626 232.863 298.088 233.154 299.452 233.718C300.816 234.283 302.056 235.111 303.1 236.155C304.144 237.2 304.972 238.439 305.537 239.803C306.102 241.168 306.393 242.63 306.392 244.107C306.392 245.583 306.102 247.045 305.537 248.409C304.972 249.773 304.144 251.013 303.1 252.056C302.055 253.1 300.816 253.928 299.452 254.493C298.088 255.058 296.625 255.348 295.149 255.348ZM295.149 221.621H272.664C271.188 221.621 269.726 221.33 268.361 220.766C266.997 220.201 265.758 219.373 264.714 218.329C263.67 217.285 262.842 216.045 262.277 214.681C261.712 213.317 261.422 211.855 261.422 210.379C261.422 208.902 261.712 207.44 262.277 206.076C262.842 204.712 263.67 203.472 264.714 202.428C265.758 201.384 266.997 200.556 268.361 199.992C269.726 199.427 271.188 199.136 272.664 199.137H295.149C296.626 199.136 298.088 199.426 299.452 199.991C300.816 200.556 302.056 201.384 303.1 202.428C304.144 203.472 304.972 204.712 305.537 206.076C306.102 207.44 306.392 208.902 306.392 210.379C306.393 211.855 306.102 213.317 305.537 214.682C304.972 216.046 304.144 217.286 303.1 218.33C302.056 219.374 300.816 220.202 299.452 220.767C298.088 221.332 296.626 221.622 295.149 221.622M295.149 187.894H272.664C271.188 187.894 269.725 187.603 268.361 187.039C266.997 186.474 265.758 185.646 264.714 184.601C263.669 183.557 262.841 182.318 262.277 180.953C261.712 179.589 261.422 178.127 261.422 176.651C261.422 175.174 261.712 173.712 262.277 172.348C262.842 170.984 263.67 169.745 264.714 168.701C265.758 167.657 266.997 166.829 268.362 166.264C269.726 165.699 271.188 165.409 272.664 165.41H295.149C296.625 165.409 298.088 165.699 299.452 166.264C300.816 166.829 302.055 167.657 303.1 168.701C304.144 169.745 304.972 170.984 305.537 172.348C306.102 173.712 306.392 175.174 306.392 176.651C306.392 178.127 306.101 179.589 305.536 180.952C304.971 182.316 304.143 183.555 303.099 184.599C302.055 185.643 300.815 186.471 299.451 187.035C298.087 187.6 296.625 187.89 295.149 187.89M295.149 154.163H272.664C271.188 154.163 269.726 153.873 268.362 153.308C266.999 152.743 265.759 151.916 264.715 150.872C263.671 149.829 262.843 148.59 262.278 147.226C261.713 145.862 261.422 144.401 261.422 142.925C261.422 141.448 261.712 139.986 262.277 138.622C262.841 137.257 263.669 136.018 264.714 134.974C265.758 133.93 266.997 133.102 268.361 132.537C269.725 131.972 271.188 131.681 272.664 131.682H295.149C296.626 131.681 298.088 131.972 299.452 132.536C300.816 133.101 302.056 133.929 303.1 134.973C304.144 136.018 304.972 137.257 305.537 138.621C306.102 139.986 306.393 141.448 306.392 142.925C306.392 144.401 306.102 145.863 305.537 147.227C304.972 148.592 304.144 149.831 303.1 150.875C302.056 151.919 300.816 152.747 299.452 153.312C298.088 153.877 296.626 154.167 295.149 154.167" fill="white"/>
<path d="M137.754 41.7456H149.002V30.5029H137.754V41.7456Z" fill="white"/>
<path d="M160.24 41.7456H193.968V30.5029H160.24V41.7456Z" fill="white"/>
<path d="M165.863 255.353C163.648 255.352 161.455 255.788 159.409 256.635C157.362 257.482 155.503 258.724 153.937 260.29C152.371 261.857 151.129 263.716 150.281 265.762C149.434 267.809 148.998 270.002 148.999 272.217C148.998 274.431 149.434 276.624 150.282 278.671C151.129 280.717 152.371 282.576 153.937 284.142C155.503 285.708 157.363 286.95 159.409 287.797C161.455 288.644 163.648 289.08 165.863 289.08H188.348C192.821 289.08 197.11 287.303 200.272 284.14C203.435 280.978 205.212 276.689 205.212 272.216C205.212 267.744 203.435 263.454 200.272 260.292C197.11 257.129 192.821 255.353 188.348 255.353H165.863ZM193.97 272.217C193.971 272.955 193.826 273.686 193.544 274.369C193.262 275.051 192.848 275.671 192.325 276.193C191.803 276.715 191.183 277.129 190.501 277.411C189.819 277.693 189.087 277.838 188.349 277.838H165.863C165.125 277.838 164.394 277.692 163.712 277.41C163.03 277.127 162.41 276.713 161.888 276.191C161.366 275.669 160.952 275.05 160.67 274.368C160.387 273.686 160.242 272.955 160.242 272.217C160.242 271.478 160.387 270.747 160.669 270.065C160.952 269.383 161.366 268.763 161.888 268.241C162.41 267.719 163.03 267.305 163.712 267.023C164.394 266.74 165.125 266.595 165.863 266.596H188.348C189.086 266.595 189.818 266.74 190.5 267.022C191.182 267.304 191.802 267.718 192.324 268.24C192.847 268.762 193.261 269.382 193.543 270.065C193.825 270.747 193.97 271.478 193.969 272.217H193.97Z" fill="white"/>
<path d="M191.207 211.331C187.775 211.341 184.457 210.099 181.874 207.839C181.411 207.998 180.937 208.139 180.454 208.25L173.989 210.05C172.508 210.556 170.954 210.814 169.389 210.814C166.476 210.817 163.633 209.919 161.25 208.243C160.498 207.716 159.795 207.121 159.15 206.466C158.481 206.537 157.806 206.59 157.13 206.629C156.495 206.664 155.954 206.676 155.419 206.676C152.225 206.688 149.052 206.17 146.028 205.143C142.632 203.985 139.484 202.198 136.748 199.876C133.866 197.429 131.529 194.404 129.889 190.996C128.308 187.719 127.352 184.177 127.068 180.549C126.672 175.61 127.396 170.644 129.187 166.023C130.752 162.032 132.943 158.315 135.68 155.014C136.336 154.221 137.018 153.449 137.725 152.699C135.922 151.744 134.344 150.414 133.096 148.799C131.071 146.21 129.979 143.013 129.996 139.726V132.539C129.965 130.623 130.317 128.719 131.031 126.94C131.745 125.161 132.807 123.543 134.155 122.18C135.503 120.817 137.11 119.737 138.881 119.003C140.651 118.269 142.551 117.896 144.468 117.905H146.779C147.625 114.84 149.462 112.141 152.002 110.228C154.543 108.316 157.644 107.297 160.824 107.331H169.249C172.416 107.301 175.503 108.323 178.026 110.237C180.549 112.151 182.366 114.848 183.191 117.905H205.678C207.606 117.885 209.518 118.249 211.303 118.977C213.088 119.705 214.709 120.782 216.072 122.145C217.435 123.508 218.512 125.13 219.24 126.915C219.968 128.7 220.333 130.612 220.312 132.539V139.726C220.333 142.889 219.338 145.976 217.475 148.531C217.586 148.656 217.694 148.783 217.802 148.911C222.593 154.539 225.501 161.526 226.119 168.891C226.635 173.899 226.113 178.959 224.586 183.755C223.15 188.262 220.894 192.466 217.934 196.155C215.052 199.721 211.602 202.788 207.722 205.231C204.061 207.543 200.095 209.331 195.939 210.543C194.416 211.064 192.817 211.33 191.207 211.331Z" fill="#C7A2E0"/>
<path d="M191.207 206.867C189.556 206.876 187.93 206.461 186.485 205.661C185.041 204.861 183.826 203.703 182.958 202.298C181.878 203.077 180.652 203.63 179.353 203.923L172.66 205.783C171.61 206.155 170.503 206.346 169.389 206.346C167.391 206.346 165.441 205.729 163.807 204.58C162.705 203.808 161.762 202.833 161.027 201.706C159.653 201.936 158.267 202.091 156.876 202.169C156.347 202.197 155.876 202.208 155.42 202.208C152.719 202.219 150.035 201.783 147.477 200.916C144.609 199.937 141.95 198.428 139.639 196.467C137.23 194.422 135.277 191.894 133.907 189.047C132.566 186.266 131.755 183.26 131.516 180.183C131.173 175.922 131.797 171.638 133.34 167.652C134.733 164.103 136.684 160.8 139.119 157.867C141.449 155.053 144.128 152.548 147.092 150.412C147.332 150.239 147.575 150.067 147.816 149.899H144.468C142.954 149.906 141.459 149.563 140.099 148.899C138.739 148.234 137.551 147.265 136.626 146.067C135.213 144.258 134.451 142.026 134.465 139.731V132.543C134.424 131.211 134.653 129.884 135.139 128.643C135.625 127.402 136.358 126.272 137.292 125.322C138.227 124.371 139.344 123.62 140.577 123.114C141.81 122.607 143.132 122.355 144.465 122.374H150.716C150.723 122.131 150.731 121.889 150.739 121.643C150.741 120.33 151.005 119.031 151.516 117.822C152.027 116.613 152.773 115.518 153.713 114.601C154.652 113.684 155.765 112.963 156.986 112.482C158.207 112.001 159.512 111.768 160.824 111.797H169.249C170.576 111.773 171.895 112.018 173.124 112.517C174.354 113.017 175.47 113.76 176.405 114.703C177.339 115.646 178.073 116.768 178.562 118.002C179.051 119.236 179.285 120.557 179.249 121.884V122.371H205.678C207.022 122.34 208.358 122.583 209.605 123.083C210.853 123.583 211.986 124.331 212.936 125.281C213.886 126.231 214.634 127.364 215.135 128.612C215.635 129.859 215.877 131.195 215.847 132.539V139.727C215.881 141.463 215.462 143.177 214.631 144.702C213.799 146.226 212.585 147.507 211.107 148.418C212.278 149.468 213.375 150.597 214.39 151.798C218.586 156.73 221.132 162.852 221.671 169.305C222.129 173.714 221.673 178.169 220.331 182.394C219.062 186.379 217.068 190.095 214.451 193.357C211.877 196.54 208.795 199.277 205.33 201.457C201.994 203.563 198.379 205.189 194.59 206.287C193.503 206.668 192.359 206.864 191.207 206.867Z" fill="#FFFFAE"/>
<path d="M155.169 178.73C155.244 178.73 155.321 178.73 155.401 178.721C156.521 178.629 157.618 178.355 158.65 177.911C158.314 176.219 158.009 174.511 157.737 172.811C157.712 172.652 157.686 172.494 157.661 172.332C157.49 172.532 157.327 172.734 157.172 172.937C156.523 173.763 155.994 174.676 155.6 175.65C155.29 176.414 155.131 177.23 155.129 178.054V178.554C155.138 178.613 155.152 178.672 155.169 178.73ZM191.208 202.402C190.048 202.399 188.921 202.018 187.998 201.316C187.074 200.615 186.405 199.631 186.091 198.515L182.969 190.583L182.893 190.227C182.538 188.885 182.701 187.459 183.35 186.233C183.998 185.006 185.085 184.068 186.393 183.606C187.805 183.05 189.257 182.466 190.641 181.897C191.691 181.467 192.687 180.917 193.61 180.258C194.424 179.673 195.142 178.964 195.737 178.158C196.36 177.274 196.82 176.287 197.097 175.242C197.481 173.991 197.612 172.676 197.481 171.374C197.368 170.156 197.025 168.971 196.469 167.882C195.93 166.853 195.195 165.94 194.304 165.195C192.616 168.778 190.704 172.251 188.581 175.595C186.197 179.309 183.453 182.779 180.388 185.955C180.581 186.656 180.772 187.356 180.959 188.055C181.344 189.498 181.778 190.94 182.246 192.343C182.674 193.603 182.661 194.971 182.209 196.222C181.899 197.075 181.375 197.833 180.686 198.424C179.997 199.015 179.168 199.418 178.278 199.594L171.296 201.53C170.687 201.763 170.04 201.883 169.388 201.883C168.305 201.882 167.249 201.547 166.363 200.924C165.303 200.182 164.511 199.117 164.106 197.888C163.954 197.459 163.797 197.004 163.637 196.531C163.389 196.606 163.137 196.676 162.888 196.744C160.837 197.277 158.737 197.602 156.621 197.713C156.2 197.734 155.809 197.745 155.421 197.745C153.213 197.756 151.019 197.401 148.928 196.694C146.586 195.896 144.415 194.665 142.528 193.066C140.594 191.423 139.027 189.392 137.928 187.105C136.828 184.82 136.164 182.35 135.969 179.822C135.679 176.238 136.203 172.635 137.501 169.282C138.719 166.174 140.425 163.28 142.556 160.711C144.645 158.189 147.047 155.944 149.704 154.03C151.504 152.728 153.387 151.545 155.342 150.489C155.285 149.284 155.242 148.044 155.205 146.789C155.192 146.33 155.181 145.878 155.169 145.43H144.469C143.637 145.435 142.815 145.248 142.066 144.884C141.318 144.519 140.664 143.988 140.154 143.33C139.353 142.302 138.921 141.033 138.929 139.73V132.542C138.893 131.797 139.011 131.054 139.274 130.356C139.538 129.659 139.942 129.024 140.462 128.489C140.981 127.955 141.605 127.533 142.294 127.249C142.984 126.966 143.724 126.827 144.469 126.842H155.12V126.599C155.12 125.082 155.148 123.482 155.204 121.799C155.191 121.061 155.328 120.329 155.606 119.646C155.885 118.964 156.3 118.345 156.826 117.828C157.352 117.311 157.978 116.906 158.665 116.638C159.352 116.371 160.087 116.246 160.824 116.272H169.251C169.991 116.252 170.726 116.385 171.412 116.662C172.098 116.939 172.72 117.353 173.24 117.88C173.759 118.408 174.164 119.036 174.43 119.726C174.697 120.416 174.819 121.154 174.788 121.893C174.788 123.574 174.774 125.172 174.747 126.685C174.747 126.738 174.747 126.792 174.747 126.845H205.678C206.433 126.819 207.186 126.949 207.889 127.227C208.592 127.504 209.231 127.923 209.765 128.458C210.3 128.992 210.719 129.631 210.996 130.334C211.273 131.037 211.403 131.789 211.378 132.545V139.73C211.404 140.485 211.274 141.238 210.996 141.941C210.719 142.644 210.3 143.283 209.766 143.817C209.231 144.352 208.592 144.771 207.889 145.048C207.186 145.326 206.433 145.455 205.678 145.43H201.429C201.559 146.027 201.589 146.642 201.517 147.25C205.146 149.057 208.368 151.586 210.985 154.683C214.585 158.918 216.769 164.174 217.228 169.714C217.628 173.524 217.238 177.376 216.084 181.03C214.981 184.494 213.249 187.725 210.975 190.561C208.709 193.363 205.996 195.771 202.946 197.689C199.928 199.593 196.653 201.057 193.222 202.037C192.578 202.276 191.896 202.401 191.209 202.404" fill="#8484CC"/>
<path d="M182.384 157.652L180.401 157.817C178.799 157.921 177.209 158.169 175.652 158.56C174.137 158.947 172.554 159.413 170.903 159.96C171.122 162.221 171.369 164.452 171.645 166.652C171.921 168.852 172.279 171.055 172.72 173.26C174.661 171.017 176.389 168.599 177.884 166.037C179.453 163.365 180.953 160.57 182.384 157.652ZM163.716 180.285C163.109 177.588 162.586 174.862 162.147 172.108C161.708 169.354 161.322 166.602 160.989 163.852C159.55 164.683 158.194 165.651 156.942 166.743C155.73 167.787 154.625 168.949 153.642 170.212C152.737 171.369 152 172.648 151.453 174.012C150.936 175.296 150.668 176.667 150.664 178.052V178.796C150.744 179.992 151.224 181.127 152.027 182.017C152.508 182.482 153.09 182.829 153.728 183.03C154.366 183.23 155.043 183.279 155.703 183.173C158.573 182.891 161.327 181.897 163.716 180.282M212.784 170.125C213.129 173.337 212.805 176.585 211.833 179.666C210.9 182.611 209.43 185.357 207.497 187.766C205.54 190.186 203.195 192.265 200.558 193.919C197.844 195.632 194.894 196.94 191.802 197.8C191.03 198.133 190.534 197.886 190.315 197.057L187.257 189.289C187.092 188.518 187.312 188.023 187.918 187.802C189.459 187.195 190.933 186.603 192.338 186.026C193.711 185.465 195.014 184.744 196.219 183.878C197.404 183.025 198.45 181.994 199.319 180.821C200.261 179.511 200.96 178.042 201.384 176.485C201.927 174.68 202.109 172.785 201.92 170.909C201.748 169.138 201.243 167.414 200.433 165.83C199.614 164.262 198.492 162.871 197.133 161.739C195.674 160.526 194.007 159.589 192.213 158.973C190.144 163.904 187.672 168.656 184.821 173.181C182.22 177.239 179.157 180.981 175.693 184.333L175.528 184.498L175.363 184.579C175.803 186.123 176.23 187.665 176.643 189.206C177.056 190.747 177.511 192.262 178.007 193.752C178.116 194.06 178.116 194.395 178.007 194.703C177.948 194.855 177.846 194.986 177.714 195.081C177.582 195.176 177.426 195.231 177.263 195.239L169.828 197.306C169.689 197.388 169.529 197.427 169.368 197.42C169.207 197.413 169.051 197.359 168.92 197.265C168.646 197.074 168.442 196.798 168.341 196.48C168.008 195.543 167.677 194.565 167.35 193.548C167.023 192.531 166.72 191.526 166.441 190.533C164.956 191.357 163.374 191.995 161.733 192.433C159.976 192.889 158.177 193.165 156.364 193.258C154.336 193.383 152.302 193.117 150.375 192.473C148.561 191.857 146.879 190.905 145.419 189.665C143.96 188.425 142.778 186.892 141.95 185.165C141.089 183.377 140.571 181.444 140.422 179.465C140.184 176.558 140.607 173.634 141.661 170.914C142.704 168.247 144.168 165.765 145.998 163.563C147.843 161.331 149.966 159.344 152.316 157.652C154.545 156.027 156.922 154.616 159.416 153.439C159.484 153.38 159.564 153.334 159.649 153.306C159.735 153.278 159.826 153.267 159.916 153.275V152.367C159.805 150.548 159.723 148.648 159.668 146.667C159.613 144.686 159.586 142.786 159.585 140.967H144.469C144.318 140.973 144.168 140.942 144.031 140.877C143.894 140.813 143.775 140.716 143.684 140.595C143.491 140.348 143.389 140.043 143.395 139.73V132.543C143.395 131.716 143.753 131.303 144.47 131.303H159.584V126.595C159.584 125.108 159.612 123.539 159.667 121.886C159.645 121.729 159.659 121.569 159.709 121.418C159.759 121.268 159.844 121.131 159.956 121.019C160.068 120.907 160.205 120.822 160.355 120.772C160.506 120.722 160.666 120.708 160.823 120.73H169.25C169.965 120.73 170.322 121.115 170.323 121.886C170.323 123.539 170.309 125.109 170.282 126.595C170.255 128.081 170.241 129.65 170.241 131.303H205.679C205.847 131.28 206.018 131.296 206.179 131.35C206.34 131.404 206.486 131.495 206.606 131.615C206.726 131.735 206.817 131.882 206.871 132.043C206.925 132.203 206.941 132.375 206.918 132.543V139.73C206.942 139.898 206.926 140.07 206.873 140.231C206.819 140.392 206.728 140.538 206.608 140.658C206.488 140.778 206.341 140.869 206.18 140.922C206.019 140.976 205.847 140.991 205.679 140.967H170.159V145.467C170.159 147.038 170.187 148.538 170.242 149.967C172.83 149.363 175.391 148.882 177.925 148.523C180.551 148.161 183.205 148.037 185.853 148.152C185.851 148.13 185.854 148.107 185.861 148.086C185.868 148.065 185.879 148.046 185.894 148.029C185.909 148.012 185.92 147.992 185.927 147.971C185.934 147.949 185.937 147.926 185.935 147.904L187.256 143.94C187.293 143.786 187.363 143.641 187.462 143.517C187.56 143.393 187.685 143.292 187.827 143.221C187.968 143.15 188.124 143.112 188.283 143.107C188.441 143.103 188.599 143.134 188.744 143.197L196.344 145.674C196.486 145.712 196.618 145.781 196.731 145.876C196.844 145.97 196.935 146.088 196.998 146.221C197.061 146.354 197.094 146.5 197.095 146.647C197.097 146.794 197.066 146.94 197.005 147.074L196.097 149.801C200.563 151.291 204.534 153.978 207.579 157.569C210.587 161.105 212.406 165.498 212.779 170.125" fill="white"/>
</g>
<defs>
<clipPath id="clip0_1_2876">
<rect width="324" height="353" fill="white"/>
</clipPath>
</defs>
</svg>
