<svg width="324" height="353" viewBox="0 0 324 353" fill="none" xmlns="http://www.w3.org/2000/svg">
<g clip-path="url(#clip0_1_5748)">
<path d="M274.818 241.94C274.994 241.426 275.271 240.953 275.632 240.547C275.992 240.141 276.43 239.81 276.919 239.575C277.409 239.339 277.94 239.202 278.482 239.173C279.024 239.144 279.567 239.223 280.079 239.405C280.593 239.582 281.066 239.858 281.472 240.219C281.879 240.58 282.209 241.018 282.445 241.507C282.68 241.996 282.817 242.528 282.845 243.07C282.874 243.613 282.795 244.155 282.613 244.667L269.394 282.453L261.594 279.724L274.818 241.94ZM280.839 295.113C283.092 291.74 286.498 289.304 290.419 288.262C294.34 287.221 298.506 287.645 302.136 289.456C305.767 291.266 308.612 294.339 310.139 298.097C311.666 301.856 311.769 306.042 310.43 309.872C309.09 313.701 306.4 316.91 302.864 318.898C299.327 320.886 295.187 321.515 291.22 320.668C287.252 319.822 283.73 317.557 281.313 314.299C278.896 311.041 277.75 307.013 278.091 302.97L263.942 297.957L259.042 312.146C261.275 313.64 263.114 315.651 264.403 318.009C265.691 320.367 266.391 323.001 266.442 325.687C266.492 328.374 265.893 331.032 264.694 333.437C263.496 335.842 261.733 337.921 259.558 339.498C257.381 341.074 254.854 342.101 252.194 342.489C249.535 342.878 246.82 342.617 244.283 341.73C241.746 340.842 239.462 339.354 237.624 337.392C235.787 335.43 234.451 333.054 233.731 330.464C233.012 327.875 232.929 325.15 233.49 322.522C234.051 319.893 235.24 317.44 236.954 315.37C238.669 313.301 240.859 311.678 243.337 310.638C245.815 309.598 248.507 309.173 251.185 309.398L256.198 295.247L210.634 279.34C210.122 279.162 209.649 278.884 209.244 278.523C208.84 278.162 208.51 277.725 208.274 277.236C208.039 276.747 207.902 276.217 207.872 275.675C207.842 275.133 207.919 274.591 208.099 274.079C208.277 273.566 208.554 273.094 208.915 272.688C209.276 272.283 209.714 271.953 210.203 271.717C210.691 271.481 211.222 271.344 211.764 271.313C212.306 271.283 212.849 271.36 213.361 271.54L280.839 295.113ZM246.327 318.27C244.86 318.976 243.636 320.101 242.809 321.503C241.982 322.905 241.59 324.521 241.682 326.146C241.773 327.771 242.344 329.332 243.324 330.631C244.303 331.931 245.646 332.91 247.182 333.446C248.717 333.985 250.378 334.056 251.954 333.65C253.529 333.244 254.949 332.38 256.033 331.166C257.118 329.953 257.819 328.445 258.046 326.834C258.273 325.222 258.017 323.579 257.31 322.113C256.842 321.139 256.185 320.266 255.379 319.546C254.572 318.826 253.631 318.273 252.61 317.918C251.591 317.56 250.511 317.407 249.432 317.468C248.354 317.528 247.298 317.801 246.325 318.27M290.806 296.847C289.09 297.673 287.713 299.068 286.91 300.795C286.107 302.523 285.928 304.475 286.403 306.319C286.878 308.164 287.978 309.786 289.516 310.91C291.053 312.035 292.933 312.591 294.835 312.484C296.736 312.378 298.542 311.615 299.945 310.327C301.347 309.038 302.259 307.303 302.526 305.417C302.792 303.531 302.396 301.611 301.406 299.984C300.415 298.357 298.891 297.124 297.093 296.495C296.073 296.138 294.993 295.985 293.914 296.045C292.836 296.106 291.779 296.378 290.806 296.847Z" fill="white"/>
<path d="M136.707 170.646C133.438 168.701 130.99 165.633 129.82 162.014C129.285 161.902 128.757 161.763 128.237 161.597L121.068 159.625C119.372 159.262 117.748 158.623 116.26 157.733C113.489 156.077 111.297 153.606 109.984 150.657C109.569 149.728 109.24 148.762 109.001 147.773C108.325 147.46 107.653 147.126 106.988 146.778C106.365 146.449 105.844 146.154 105.336 145.849C102.293 144.044 99.5707 141.746 97.2798 139.049C94.7108 136.015 92.7351 132.525 91.4558 128.76C90.1074 124.793 89.6076 120.588 89.9888 116.415C90.3494 112.399 91.456 108.486 93.2518 104.876C95.6852 99.9561 99.1982 95.649 103.529 92.2762C107.288 89.3709 111.487 87.0848 115.968 85.5042C117.042 85.1229 118.13 84.7775 119.231 84.4682C118.061 82.5331 117.316 80.3707 117.048 78.1252C116.597 74.5113 117.379 70.8511 119.268 67.7372L123.359 60.9042C124.419 59.0642 125.837 57.4545 127.528 56.1695C129.219 54.8845 131.15 53.9501 133.207 53.4212C135.264 52.8922 137.405 52.7793 139.507 53.0891C141.608 53.3989 143.626 54.1251 145.443 55.2252L147.643 56.5402C150.191 54.1093 153.472 52.5891 156.974 52.2166C160.477 51.844 164.004 52.6398 167.007 54.4802L175.018 59.2752C178.046 61.0489 180.399 63.7775 181.709 67.033C183.019 70.2886 183.211 73.8868 182.255 77.2632L203.634 90.0632C205.478 91.1405 207.089 92.5752 208.371 94.2831C209.654 95.9911 210.582 97.938 211.102 100.01C211.622 102.081 211.724 104.236 211.4 106.347C211.076 108.458 210.335 110.484 209.218 112.304L205.127 119.136C203.347 122.157 200.645 124.526 197.418 125.896C197.451 126.079 197.482 126.26 197.511 126.444C198.863 134.521 197.652 142.819 194.048 150.172C191.689 155.225 188.314 159.737 184.134 163.427C180.203 166.893 175.668 169.605 170.755 171.427C165.985 173.179 160.959 174.131 155.879 174.246C151.083 174.36 146.296 173.803 141.655 172.59C139.91 172.217 138.239 171.561 136.707 170.646Z" fill="#C7A2E0"/>
<path d="M139.248 166.401C137.673 165.47 136.363 164.149 135.445 162.566C134.527 160.983 134.031 159.191 134.005 157.361C132.535 157.489 131.054 157.316 129.653 156.854L122.23 154.814C121.02 154.57 119.86 154.121 118.801 153.487C116.902 152.35 115.401 150.654 114.501 148.632C113.893 147.271 113.551 145.806 113.494 144.317C112.057 143.752 110.652 143.11 109.285 142.394C108.768 142.119 108.317 141.865 107.88 141.602C105.305 140.077 103.002 138.134 101.064 135.854C98.893 133.291 97.2231 130.343 96.141 127.163C95.0161 123.848 94.6001 120.334 94.92 116.848C95.2276 113.441 96.1676 110.122 97.692 107.06C99.7909 102.814 102.822 99.096 106.559 96.185C109.901 93.6013 113.635 91.569 117.619 90.165C121.434 88.8161 125.407 87.9605 129.439 87.619C129.767 87.59 130.095 87.564 130.42 87.542L127.237 85.637C125.794 84.782 124.567 83.6058 123.652 82.1998C122.737 80.7938 122.158 79.1959 121.961 77.53C121.647 75.0066 122.194 72.451 123.513 70.277L127.602 63.444C128.321 62.1536 129.295 61.0223 130.464 60.1185C131.632 59.2148 132.972 58.5573 134.402 58.1858C135.832 57.8143 137.323 57.7364 138.784 57.957C140.244 58.1775 141.645 58.6919 142.902 59.469L148.848 63.025L149.285 62.342C150.034 61.0961 151.025 60.0123 152.198 59.1538C153.372 58.2954 154.705 57.6797 156.119 57.3426C157.533 57.0056 159.001 56.9541 160.435 57.1912C161.869 57.4282 163.242 57.949 164.473 58.723L172.484 63.523C173.759 64.2557 174.872 65.2391 175.757 66.4138C176.641 67.5885 177.278 68.9301 177.63 70.3579C177.982 71.7856 178.041 73.2698 177.803 74.7209C177.566 76.172 177.037 77.56 176.248 78.801C176.155 78.956 176.063 79.11 175.971 79.262L201.095 94.301C202.39 95.0368 203.522 96.0274 204.424 97.2131C205.325 98.3988 205.977 99.7548 206.34 101.199C206.702 102.644 206.768 104.147 206.534 105.618C206.299 107.089 205.769 108.497 204.975 109.757L200.886 116.589C199.931 118.259 198.557 119.651 196.9 120.628C195.242 121.604 193.359 122.131 191.435 122.156C191.951 123.821 192.352 125.519 192.635 127.239C193.818 134.316 192.755 141.585 189.594 148.026C187.519 152.479 184.549 156.457 180.868 159.71C177.394 162.776 173.383 165.175 169.039 166.786C164.779 168.349 160.291 169.199 155.755 169.301C151.384 169.403 147.021 168.889 142.793 167.774C141.543 167.519 140.344 167.054 139.248 166.401Z" fill="#FFFFAE"/>
<path d="M121 119.14C121.071 119.183 121.147 119.224 121.225 119.264C122.343 119.811 123.542 120.175 124.776 120.34C125.419 118.54 126.1 116.748 126.811 114.973C126.876 114.808 126.944 114.641 127.011 114.473C126.735 114.566 126.466 114.666 126.2 114.773C125.113 115.189 124.09 115.756 123.161 116.457C122.432 117.007 121.817 117.692 121.347 118.475L121.064 118.947C121.038 119.01 121.017 119.074 121 119.14ZM141.789 162.156C140.688 161.492 139.834 160.488 139.356 159.296C138.877 158.104 138.8 156.788 139.137 155.548L140.684 146.232L140.813 145.849C141.238 144.37 142.204 143.106 143.519 142.308C144.833 141.51 146.4 141.235 147.908 141.54C149.567 141.815 151.279 142.087 152.919 142.333C154.162 142.522 155.422 142.566 156.675 142.464C157.782 142.371 158.867 142.106 159.892 141.679C160.987 141.192 161.987 140.515 162.845 139.679C163.922 138.708 164.795 137.532 165.412 136.22C165.997 134.999 166.345 133.677 166.437 132.327C166.51 131.042 166.329 129.755 165.905 128.54C162.261 130.983 158.469 133.197 154.549 135.167C150.168 137.341 145.584 139.078 140.862 140.352C140.647 141.128 140.43 141.901 140.211 142.673C139.756 144.262 139.347 145.881 138.994 147.481C138.684 148.922 137.893 150.215 136.751 151.148C135.971 151.782 135.041 152.204 134.05 152.374C133.059 152.544 132.041 152.455 131.095 152.117L123.355 149.988C122.644 149.863 121.962 149.609 121.343 149.24C120.314 148.623 119.5 147.703 119.012 146.607C118.428 145.299 118.281 143.838 118.593 142.44C118.693 141.947 118.802 141.424 118.92 140.883C118.641 140.812 118.363 140.739 118.085 140.659C115.832 139.999 113.651 139.113 111.576 138.014C111.163 137.795 110.785 137.582 110.419 137.362C108.314 136.116 106.429 134.53 104.843 132.669C103.071 130.577 101.708 128.171 100.824 125.577C99.9213 122.914 99.5878 120.092 99.8449 117.293C100.099 114.495 100.873 111.768 102.126 109.254C103.89 105.682 106.438 102.554 109.581 100.106C112.507 97.8436 115.777 96.0638 119.265 94.8336C122.687 93.6243 126.249 92.8568 129.865 92.5496C132.317 92.3364 134.781 92.2839 137.24 92.3926C137.872 91.2126 138.533 90.0086 139.216 88.7926C139.464 88.3513 139.711 87.915 139.956 87.4836L129.779 81.3906C128.985 80.9218 128.31 80.2764 127.806 79.5045C127.302 78.7326 126.983 77.8549 126.873 76.9396C126.696 75.5059 127.008 74.0543 127.758 72.8196L131.847 65.9866C132.236 65.2579 132.771 64.6169 133.419 64.1035C134.066 63.5901 134.812 63.2153 135.61 63.0022C136.408 62.7892 137.242 62.7425 138.059 62.865C138.876 62.9876 139.659 63.2768 140.36 63.7146L150.487 69.7776L150.626 69.5466C151.489 68.104 152.426 66.5976 153.439 65.0276C153.846 64.3189 154.393 63.7004 155.046 63.21C155.7 62.7195 156.447 62.3674 157.241 62.175C158.035 61.9826 158.86 61.954 159.666 62.091C160.472 62.2279 161.241 62.5276 161.927 62.9716L169.938 67.7666C170.653 68.1686 171.278 68.7135 171.774 69.3674C172.269 70.0212 172.625 70.7701 172.819 71.5673C173.013 72.3646 173.041 73.1932 172.901 74.0016C172.761 74.8101 172.456 75.5811 172.005 76.2666C171.048 77.8666 170.125 79.377 169.237 80.7976C169.206 80.8486 169.174 80.8976 169.144 80.9486L198.554 98.5476C199.288 98.9533 199.93 99.5055 200.442 100.17C200.953 100.835 201.322 101.597 201.526 102.41C201.73 103.224 201.765 104.07 201.628 104.897C201.491 105.724 201.185 106.515 200.73 107.219L196.641 114.051C196.235 114.784 195.683 115.427 195.019 115.938C194.355 116.449 193.592 116.819 192.779 117.023C191.966 117.227 191.12 117.261 190.293 117.124C189.466 116.988 188.676 116.682 187.972 116.227L183.932 113.808C183.716 114.45 183.395 115.052 182.98 115.589C185.403 119.372 187.026 123.611 187.751 128.045C188.764 134.12 187.848 140.36 185.132 145.888C183.342 149.737 180.778 153.177 177.6 155.993C174.581 158.658 171.096 160.744 167.32 162.146C163.571 163.519 159.62 164.265 155.628 164.353C151.676 164.445 147.73 163.973 143.911 162.953C143.161 162.813 142.442 162.542 141.786 162.153" fill="#8484CC"/>
<path d="M158.87 114.589L156.891 113.618C155.308 112.803 153.655 112.134 151.952 111.618C150.292 111.123 148.52 110.667 146.637 110.25C145.559 112.522 144.526 114.783 143.537 117.034C142.547 119.284 141.634 121.583 140.797 123.929C143.919 122.901 146.939 121.585 149.818 119.998C152.831 118.351 155.848 116.548 158.87 114.589ZM128.241 125.482C129.199 122.572 130.254 119.683 131.404 116.814C132.554 113.944 133.754 111.107 135.004 108.303C133.163 108.273 131.324 108.422 129.512 108.748C127.764 109.05 126.05 109.524 124.396 110.165C122.877 110.749 121.448 111.545 120.152 112.53C118.929 113.459 117.894 114.613 117.103 115.93L116.679 116.637C116.074 117.819 115.885 119.171 116.142 120.474C116.334 121.19 116.69 121.851 117.182 122.405C117.675 122.959 118.289 123.391 118.978 123.666C121.867 125.031 125.051 125.653 128.242 125.478M180.67 143.748C179.17 146.998 177.014 149.903 174.337 152.279C171.775 154.546 168.814 156.319 165.606 157.507C162.367 158.694 158.954 159.336 155.506 159.407C151.951 159.491 148.402 159.055 144.973 158.114C144.051 157.988 143.721 157.471 143.982 156.562L145.495 147.439C145.776 146.612 146.268 146.266 146.97 146.402C148.78 146.703 150.518 146.979 152.182 147.229C153.807 147.477 155.456 147.533 157.095 147.396C158.706 147.259 160.287 146.874 161.78 146.253C163.421 145.543 164.922 144.544 166.212 143.305C167.756 141.898 169.007 140.201 169.895 138.31C170.74 136.527 171.241 134.602 171.372 132.634C171.485 130.676 171.209 128.716 170.559 126.866C169.863 124.884 168.813 123.044 167.459 121.438C162.685 124.948 157.629 128.059 152.344 130.738C147.562 133.114 142.52 134.929 137.32 136.145L137.068 136.209L136.868 136.192C136.409 137.91 135.937 139.619 135.453 141.319C134.968 143.018 134.538 144.718 134.164 146.419C134.093 146.772 133.902 147.09 133.623 147.319C133.481 147.43 133.309 147.497 133.13 147.513C132.95 147.528 132.77 147.491 132.611 147.407L124.37 145.14C124.191 145.138 124.016 145.085 123.867 144.986C123.718 144.888 123.601 144.748 123.53 144.584C123.38 144.246 123.344 143.868 123.43 143.508C123.65 142.429 123.892 141.312 124.157 140.156C124.421 139 124.705 137.872 125.009 136.773C123.128 136.711 121.261 136.417 119.452 135.898C117.519 135.332 115.649 134.572 113.87 133.628C111.87 132.594 110.088 131.184 108.623 129.475C107.249 127.857 106.192 125.994 105.508 123.984C104.825 121.973 104.573 119.842 104.77 117.728C104.969 115.539 105.577 113.406 106.561 111.441C107.989 108.541 110.055 106.003 112.605 104.017C115.114 102.075 117.919 100.549 120.912 99.4957C123.936 98.4252 127.086 97.7467 130.283 97.4767C133.328 97.2008 136.392 97.2132 139.435 97.5137C139.532 97.4962 139.633 97.4981 139.729 97.5196C139.826 97.5411 139.918 97.5816 139.999 97.6387L140.516 96.7757C141.444 94.9837 142.446 93.1301 143.524 91.2147C144.601 89.2994 145.656 87.4777 146.689 85.7497L132.317 77.1497C132.17 77.0691 132.045 76.9542 131.952 76.815C131.86 76.6757 131.802 76.5161 131.784 76.3497C131.74 76.0052 131.816 75.656 132.001 75.3617L136.092 68.5287C136.558 67.7447 137.134 67.5557 137.819 67.9617L152.191 76.5617L154.87 72.0887C155.716 70.6754 156.636 69.1991 157.629 67.6597C157.697 67.4977 157.802 67.3537 157.935 67.2391C158.068 67.1246 158.227 67.0427 158.397 66.9999C158.568 66.9571 158.746 66.9546 158.917 66.9926C159.089 67.0306 159.249 67.108 159.386 67.2187L167.398 72.0087C167.551 72.0812 167.685 72.188 167.79 72.3208C167.895 72.4537 167.968 72.6089 168.003 72.7744C168.038 72.94 168.034 73.1114 167.992 73.2754C167.95 73.4393 167.871 73.5914 167.761 73.7197C166.819 75.2917 165.913 76.7761 165.041 78.1727C164.169 79.5694 163.263 81.0537 162.323 82.6257L196.014 102.789C196.188 102.862 196.342 102.974 196.465 103.117C196.587 103.26 196.675 103.43 196.721 103.613C196.767 103.796 196.769 103.987 196.728 104.17C196.688 104.354 196.605 104.526 196.486 104.673L192.397 111.51C192.324 111.683 192.211 111.838 192.068 111.96C191.925 112.083 191.756 112.171 191.573 112.217C191.39 112.262 191.199 112.265 191.015 112.224C190.831 112.184 190.659 112.1 190.513 111.982L156.743 91.7677C155.928 93.1304 155.074 94.5571 154.182 96.0477C153.289 97.5384 152.461 98.9807 151.698 100.375C154.502 101.273 157.21 102.273 159.823 103.375C162.525 104.524 165.118 105.916 167.57 107.533C167.581 107.51 167.597 107.49 167.616 107.474C167.635 107.458 167.657 107.445 167.681 107.438C167.729 107.422 167.769 107.388 167.792 107.343L171.304 104.326C171.426 104.2 171.575 104.102 171.739 104.04C171.904 103.978 172.08 103.953 172.255 103.966C172.43 103.979 172.6 104.031 172.754 104.117C172.907 104.204 173.039 104.323 173.141 104.466L178.956 111.147C179.07 111.264 179.157 111.405 179.21 111.56C179.264 111.715 179.284 111.879 179.267 112.042C179.251 112.205 179.199 112.362 179.116 112.503C179.033 112.644 178.92 112.765 178.785 112.858L176.37 114.933C179.768 118.89 182.017 123.703 182.87 128.849C183.719 133.923 182.949 139.136 180.67 143.749" fill="white"/>
<path d="M265.37 175.183C269.402 159.396 269.512 142.862 265.689 127.022C261.371 109.176 253.379 92.4258 242.222 77.8424C229.722 61.3975 214.208 47.4807 196.507 36.8344C178.56 26.0904 158.594 18.6914 138.768 15.9134C120.644 12.9731 102.106 13.8409 84.336 18.4614C68.567 22.5693 54.0439 30.4766 42.036 41.4924C30.6769 52.0706 22.3557 65.4961 17.936 80.3754C13.4794 94.9999 12.1506 110.399 14.036 125.57C15.507 139.67 19.536 153.659 25.628 167.641C26.0875 168.69 26.8489 169.579 27.815 170.193C28.3132 170.556 28.9066 170.765 29.522 170.793L70.506 234.183L69.958 235.098L30.907 294.805C28.359 299.06 31.523 305.505 34.566 307.328C37.609 309.151 44.786 308.893 47.333 304.639L81.51 242.015L82.058 241.1L157.614 247.468C158.463 248.8 160.162 249.413 162.231 249.409C176.848 248.53 191.223 245.269 204.788 239.753C218.975 234.103 231.892 225.677 242.779 214.968C253.294 203.639 261.028 190.018 265.37 175.183ZM40.22 168.107C54.2 164.222 68.9176 163.81 83.093 166.907L82.908 167.216L74.57 220.492L40.22 168.107ZM85.212 222.728L93.855 169.617C100.702 171.736 107.261 174.692 113.384 178.417C118.777 181.718 123.815 185.567 128.417 189.902L85.212 222.728ZM134.933 198.357C135.103 198.145 135.34 197.997 135.605 197.936C144.802 209.297 151.247 222.631 154.436 236.896L91.543 231.489L134.933 198.357ZM234.749 207.673C224.921 217.312 213.324 224.963 200.595 230.204C189.495 234.547 177.887 237.462 166.052 238.877C157.988 200.565 136.313 180.164 118.663 169.599C108.48 163.556 97.3526 159.269 85.747 156.918C68.3654 153.236 50.327 154.112 33.384 159.461C28.8072 148.437 25.8846 136.796 24.711 124.917C23.116 110.317 24.136 96.8854 28.436 84.1724C32.803 70.6724 39.727 59.1094 49.803 49.8534C60.5888 39.9692 73.6315 32.8772 87.791 29.1974C103.055 25.1124 120.44 24.3624 137.596 26.7694C156.656 29.8305 174.941 36.5649 191.433 46.5984C208.169 56.6174 223.082 69.6774 234.048 84.5074C244.175 97.9061 251.454 113.235 255.437 129.551C258.886 143.77 258.794 158.617 255.17 172.791C251.234 185.878 244.231 197.837 234.742 207.671L234.749 207.673Z" fill="white"/>
</g>
<defs>
<clipPath id="clip0_1_5748">
<rect width="324" height="353" fill="white"/>
</clipPath>
</defs>
</svg>
